<ttFont>
    <TTGlyph name=".notdef" xMin="0" yMin="0" xMax="500" yMax="700">
      <contour>
        <pt x="0" y="700" on="1"/>
        <pt x="500" y="700" on="1"/>
        <pt x="500" y="0" on="1"/>
        <pt x="0" y="0" on="1"/>
      </contour>
      <contour>
        <pt x="50" y="650" on="1"/>
        <pt x="50" y="50" on="1"/>
        <pt x="450" y="50" on="1"/>
        <pt x="450" y="650" on="1"/>
      </contour>
      <contour>
        <pt x="229" y="278" on="1"/>
        <pt x="229" y="307" on="0"/>
        <pt x="256" y="345" on="0"/>
        <pt x="283" y="367" on="1"/>
        <pt x="311" y="390" on="0"/>
        <pt x="339" y="431" on="0"/>
        <pt x="339" y="465" on="1"/>
        <pt x="339" y="496" on="0"/>
        <pt x="301" y="552" on="0"/>
        <pt x="250" y="552" on="1"/>
        <pt x="192" y="552" on="0"/>
        <pt x="152" y="485" on="0"/>
        <pt x="152" y="452" on="1"/>
        <pt x="152" y="424" on="1"/>
        <pt x="103" y="424" on="1"/>
        <pt x="99" y="438" on="0"/>
        <pt x="99" y="455" on="1"/>
        <pt x="99" y="478" on="0"/>
        <pt x="120" y="544" on="0"/>
        <pt x="187" y="602" on="0"/>
        <pt x="250" y="602" on="1"/>
        <pt x="313" y="602" on="0"/>
        <pt x="376" y="546" on="0"/>
        <pt x="393" y="486" on="0"/>
        <pt x="393" y="467" on="1"/>
        <pt x="393" y="422" on="0"/>
        <pt x="356" y="364" on="0"/>
        <pt x="326" y="338" on="1"/>
        <pt x="304" y="320" on="0"/>
        <pt x="282" y="290" on="0"/>
        <pt x="282" y="268" on="1"/>
        <pt x="282" y="215" on="1"/>
        <pt x="229" y="215" on="1"/>
      </contour>
      <contour>
        <pt x="225" y="169" on="1"/>
        <pt x="285" y="169" on="1"/>
        <pt x="285" y="99" on="1"/>
        <pt x="225" y="99" on="1"/>
      </contour>
    </TTGlyph>
    <TTGlyph name="A" xMin="9" yMin="0" xMax="414" yMax="688">
      <contour>
        <pt x="269" y="151" on="1"/>
        <pt x="151" y="151" on="1"/>
        <pt x="128" y="0" on="1"/>
        <pt x="9" y="0" on="1"/>
        <pt x="122" y="688" on="1"/>
        <pt x="300" y="688" on="1"/>
        <pt x="414" y="0" on="1"/>
        <pt x="292" y="0" on="1"/>
      </contour>
      <contour>
        <pt x="207" y="564" on="1"/>
        <pt x="163" y="257" on="1"/>
        <pt x="257" y="257" on="1"/>
        <pt x="213" y="564" on="1"/>
      </contour>
    </TTGlyph>
    <TTGlyph name="A.ss01" xMin="39" yMin="0" xMax="387" yMax="696">
      <contour>
        <pt x="267" y="203" on="1"/>
        <pt x="159" y="203" on="1"/>
        <pt x="159" y="0" on="1"/>
        <pt x="39" y="0" on="1"/>
        <pt x="39" y="385" on="1"/>
        <pt x="39" y="522" on="0"/>
        <pt x="57" y="641" on="0"/>
        <pt x="129" y="696" on="0"/>
        <pt x="213" y="696" on="1"/>
        <pt x="297" y="696" on="0"/>
        <pt x="369" y="641" on="0"/>
        <pt x="387" y="522" on="0"/>
        <pt x="387" y="385" on="1"/>
        <pt x="387" y="0" on="1"/>
        <pt x="267" y="0" on="1"/>
      </contour>
      <contour>
        <pt x="267" y="509" on="0"/>
        <pt x="261" y="568" on="0"/>
        <pt x="240" y="587" on="0"/>
        <pt x="213" y="587" on="1"/>
        <pt x="186" y="587" on="0"/>
        <pt x="165" y="568" on="0"/>
        <pt x="159" y="509" on="0"/>
        <pt x="159" y="432" on="1"/>
        <pt x="159" y="312" on="1"/>
        <pt x="267" y="312" on="1"/>
        <pt x="267" y="432" on="1"/>
      </contour>
    </TTGlyph>
    <TTGlyph name="AE" xMin="-11" yMin="0" xMax="529" yMax="688">
      <contour>
        <pt x="260" y="151" on="1"/>
        <pt x="140" y="151" on="1"/>
        <pt x="109" y="0" on="1"/>
        <pt x="-11" y="0" on="1"/>
        <pt x="136" y="688" on="1"/>
        <pt x="529" y="688" on="1"/>
        <pt x="529" y="579" on="1"/>
        <pt x="334" y="579" on="1"/>
        <pt x="355" y="402" on="1"/>
        <pt x="510" y="402" on="1"/>
        <pt x="510" y="293" on="1"/>
        <pt x="365" y="293" on="1"/>
        <pt x="388" y="109" on="1"/>
        <pt x="529" y="109" on="1"/>
        <pt x="529" y="0" on="1"/>
        <pt x="276" y="0" on="1"/>
      </contour>
      <contour>
        <pt x="216" y="564" on="1"/>
        <pt x="155" y="257" on="1"/>
        <pt x="252" y="257" on="1"/>
        <pt x="222" y="564" on="1"/>
      </contour>
    </TTGlyph>
    <TTGlyph name="AEacute" xMin="-11" yMin="0" xMax="529" yMax="888">
      <component glyphName="AE" x="0" y="0" flags="0x0"/>
      <component glyphName="acutecomb.case" x="382" y="0" flags="0x0"/>
    </TTGlyph>
    <TTGlyph name="Aacute" xMin="9" yMin="0" xMax="414" yMax="895">
      <component glyphName="A" x="0" y="0" flags="0x0"/>
      <component glyphName="acute" x="159" y="152" flags="0x4"/>
    </TTGlyph>
    <TTGlyph name="Aacute.ss01" xMin="39" yMin="0" xMax="387" yMax="895">
      <component glyphName="A.ss01" x="0" y="0" flags="0x0"/>
      <component glyphName="acute" x="168" y="152" flags="0x4"/>
    </TTGlyph>
    <TTGlyph name="Abreve" xMin="9" yMin="0" xMax="414" yMax="888">
      <component glyphName="A" x="0" y="0" flags="0x0"/>
      <component glyphName="uni0306.case" x="330" y="0" flags="0x0"/>
    </TTGlyph>
    <TTGlyph name="Abreve.ss01" xMin="39" yMin="0" xMax="387" yMax="888">
      <component glyphName="A.ss01" x="0" y="0" flags="0x0"/>
      <component glyphName="uni0306.case" x="331" y="0" flags="0x0"/>
    </TTGlyph>
    <TTGlyph name="Acircumflex" xMin="9" yMin="0" xMax="414" yMax="877">
      <component glyphName="A" x="0" y="0" flags="0x0"/>
      <component glyphName="circumflex" x="86" y="134" flags="0x4"/>
    </TTGlyph>
    <TTGlyph name="Acircumflex.ss01" xMin="39" yMin="0" xMax="387" yMax="877">
      <component glyphName="A.ss01" x="0" y="0" flags="0x0"/>
      <component glyphName="circumflex" x="93" y="134" flags="0x4"/>
    </TTGlyph>
    <TTGlyph name="Adieresis" xMin="9" yMin="0" xMax="414" yMax="872">
      <component glyphName="A" x="0" y="0" flags="0x0"/>
      <component glyphName="dieresis" x="72" y="142" flags="0x4"/>
    </TTGlyph>
    <TTGlyph name="Adieresis.ss01" xMin="39" yMin="0" xMax="387" yMax="872">
      <component glyphName="A.ss01" x="0" y="0" flags="0x0"/>
      <component glyphName="dieresis" x="79" y="142" flags="0x4"/>
    </TTGlyph>
    <TTGlyph name="Agrave" xMin="9" yMin="0" xMax="414" yMax="894">
      <component glyphName="A" x="0" y="0" flags="0x0"/>
      <component glyphName="grave" x="114" y="151" flags="0x4"/>
    </TTGlyph>
    <TTGlyph name="Agrave.ss01" xMin="39" yMin="0" xMax="387" yMax="895">
      <component glyphName="A.ss01" x="0" y="0" flags="0x0"/>
      <component glyphName="grave" x="121" y="152" flags="0x4"/>
    </TTGlyph>
    <TTGlyph name="Amacron" xMin="9" yMin="0" xMax="414" yMax="888">
      <component glyphName="A" x="0" y="0" flags="0x0"/>
      <component glyphName="uni0304.case" x="347" y="0" flags="0x0"/>
    </TTGlyph>
    <TTGlyph name="Amacron.ss01" xMin="39" yMin="0" xMax="387" yMax="888">
      <component glyphName="A.ss01" x="0" y="0" flags="0x0"/>
      <component glyphName="uni0304.case" x="348" y="0" flags="0x0"/>
    </TTGlyph>
    <TTGlyph name="Aogonek" xMin="9" yMin="-196" xMax="414" yMax="688">
      <contour>
        <pt x="327" y="-110" on="0"/>
        <pt x="343" y="-131" on="0"/>
        <pt x="364" y="-131" on="1"/>
        <pt x="376" y="-130" on="1"/>
        <pt x="376" y="-192" on="1"/>
        <pt x="360" y="-196" on="0"/>
        <pt x="331" y="-196" on="1"/>
        <pt x="283" y="-196" on="0"/>
        <pt x="240" y="-148" on="0"/>
        <pt x="240" y="-110" on="1"/>
        <pt x="240" y="-83" on="0"/>
        <pt x="269" y="-22" on="0"/>
        <pt x="292" y="2" on="1"/>
        <pt x="269" y="151" on="1"/>
        <pt x="151" y="151" on="1"/>
        <pt x="128" y="0" on="1"/>
        <pt x="9" y="0" on="1"/>
        <pt x="122" y="688" on="1"/>
        <pt x="300" y="688" on="1"/>
        <pt x="414" y="0" on="1"/>
        <pt x="371" y="0" on="1"/>
        <pt x="354" y="-18" on="0"/>
        <pt x="327" y="-69" on="0"/>
        <pt x="327" y="-91" on="1"/>
      </contour>
      <contour>
        <pt x="257" y="257" on="1"/>
        <pt x="213" y="564" on="1"/>
        <pt x="207" y="564" on="1"/>
        <pt x="163" y="257" on="1"/>
      </contour>
    </TTGlyph>
    <TTGlyph name="Aogonek.ss01" xMin="39" yMin="-196" xMax="387" yMax="696">
      <contour>
        <pt x="346" y="0" on="1"/>
        <pt x="329" y="-18" on="0"/>
        <pt x="302" y="-68" on="0"/>
        <pt x="302" y="-91" on="1"/>
        <pt x="302" y="-110" on="0"/>
        <pt x="318" y="-131" on="0"/>
        <pt x="339" y="-131" on="1"/>
        <pt x="351" y="-130" on="1"/>
        <pt x="351" y="-192" on="1"/>
        <pt x="335" y="-196" on="0"/>
        <pt x="306" y="-196" on="1"/>
        <pt x="258" y="-196" on="0"/>
        <pt x="215" y="-148" on="0"/>
        <pt x="215" y="-110" on="1"/>
        <pt x="215" y="-83" on="0"/>
        <pt x="244" y="-23" on="0"/>
        <pt x="267" y="2" on="1"/>
        <pt x="267" y="203" on="1"/>
        <pt x="159" y="203" on="1"/>
        <pt x="159" y="0" on="1"/>
        <pt x="39" y="0" on="1"/>
        <pt x="39" y="385" on="1"/>
        <pt x="39" y="522" on="0"/>
        <pt x="57" y="641" on="0"/>
        <pt x="129" y="696" on="0"/>
        <pt x="213" y="696" on="1"/>
        <pt x="297" y="696" on="0"/>
        <pt x="369" y="641" on="0"/>
        <pt x="387" y="522" on="0"/>
        <pt x="387" y="385" on="1"/>
        <pt x="387" y="0" on="1"/>
      </contour>
      <contour>
        <pt x="267" y="312" on="1"/>
        <pt x="267" y="432" on="1"/>
        <pt x="267" y="509" on="0"/>
        <pt x="261" y="568" on="0"/>
        <pt x="240" y="587" on="0"/>
        <pt x="213" y="587" on="1"/>
        <pt x="186" y="587" on="0"/>
        <pt x="165" y="568" on="0"/>
        <pt x="159" y="509" on="0"/>
        <pt x="159" y="432" on="1"/>
        <pt x="159" y="312" on="1"/>
      </contour>
    </TTGlyph>
    <TTGlyph name="Aring" xMin="9" yMin="0" xMax="414" yMax="870">
      <contour>
        <pt x="414" y="0" on="1"/>
        <pt x="292" y="0" on="1"/>
        <pt x="269" y="151" on="1"/>
        <pt x="151" y="151" on="1"/>
        <pt x="128" y="0" on="1"/>
        <pt x="9" y="0" on="1"/>
        <pt x="121" y="683" on="1"/>
        <pt x="105" y="694" on="0"/>
        <pt x="97" y="730" on="0"/>
        <pt x="97" y="765" on="1"/>
        <pt x="97" y="807" on="0"/>
        <pt x="109" y="848" on="0"/>
        <pt x="158" y="870" on="0"/>
        <pt x="211" y="870" on="1"/>
        <pt x="265" y="870" on="0"/>
        <pt x="314" y="848" on="0"/>
        <pt x="326" y="807" on="0"/>
        <pt x="326" y="765" on="1"/>
        <pt x="326" y="732" on="0"/>
        <pt x="317" y="693" on="0"/>
        <pt x="302" y="683" on="1"/>
      </contour>
      <contour>
        <pt x="193" y="810" on="0"/>
        <pt x="177" y="802" on="0"/>
        <pt x="173" y="785" on="0"/>
        <pt x="173" y="765" on="1"/>
        <pt x="173" y="746" on="0"/>
        <pt x="177" y="729" on="0"/>
        <pt x="193" y="722" on="0"/>
        <pt x="211" y="722" on="1"/>
        <pt x="230" y="722" on="0"/>
        <pt x="246" y="729" on="0"/>
        <pt x="250" y="746" on="0"/>
        <pt x="250" y="765" on="1"/>
        <pt x="250" y="785" on="0"/>
        <pt x="246" y="802" on="0"/>
        <pt x="230" y="810" on="0"/>
        <pt x="211" y="810" on="1"/>
      </contour>
      <contour>
        <pt x="257" y="257" on="1"/>
        <pt x="213" y="564" on="1"/>
        <pt x="207" y="564" on="1"/>
        <pt x="163" y="257" on="1"/>
      </contour>
    </TTGlyph>
    <TTGlyph name="Aring.ss01" xMin="39" yMin="0" xMax="387" yMax="939">
      <component glyphName="A.ss01" x="0" y="0" flags="0x0"/>
      <component glyphName="ring" x="102" y="118" flags="0x4"/>
    </TTGlyph>
    <TTGlyph name="Aringacute" xMin="9" yMin="0" xMax="414" yMax="1070">
      <component glyphName="Aring" x="0" y="0" flags="0x0"/>
      <component glyphName="acutecomb.case" x="315" y="182" flags="0x4"/>
    </TTGlyph>
    <TTGlyph name="Aringacute.ss01" xMin="39" yMin="0" xMax="387" yMax="1106">
      <component glyphName="A.ss01" x="0" y="0" flags="0x0"/>
      <component glyphName="uni030A.case" x="327" y="0" flags="0x0"/>
      <component glyphName="acutecomb.case" x="319" y="218" flags="0x4"/>
    </TTGlyph>
    <TTGlyph name="Atilde" xMin="9" yMin="0" xMax="414" yMax="885">
      <component glyphName="A" x="0" y="0" flags="0x0"/>
      <component glyphName="tilde" x="75" y="142" flags="0x4"/>
    </TTGlyph>
    <TTGlyph name="Atilde.ss01" xMin="39" yMin="0" xMax="387" yMax="885">
      <component glyphName="A.ss01" x="0" y="0" flags="0x0"/>
      <component glyphName="tilde" x="81" y="142" flags="0x4"/>
    </TTGlyph>
    <TTGlyph name="B" xMin="43" yMin="0" xMax="385" yMax="688">
      <contour>
        <pt x="43" y="688" on="1"/>
        <pt x="231" y="688" on="1"/>
        <pt x="306" y="688" on="0"/>
        <pt x="379" y="603" on="0"/>
        <pt x="379" y="515" on="1"/>
        <pt x="379" y="442" on="0"/>
        <pt x="339" y="365" on="0"/>
        <pt x="296" y="353" on="1"/>
        <pt x="296" y="349" on="1"/>
        <pt x="344" y="337" on="0"/>
        <pt x="385" y="262" on="0"/>
        <pt x="385" y="184" on="1"/>
        <pt x="385" y="93" on="0"/>
        <pt x="313" y="0" on="0"/>
        <pt x="230" y="0" on="1"/>
        <pt x="43" y="0" on="1"/>
      </contour>
      <contour>
        <pt x="238" y="401" on="0"/>
        <pt x="263" y="437" on="0"/>
        <pt x="263" y="490" on="1"/>
        <pt x="263" y="529" on="0"/>
        <pt x="254" y="566" on="0"/>
        <pt x="230" y="579" on="0"/>
        <pt x="205" y="579" on="1"/>
        <pt x="162" y="579" on="1"/>
        <pt x="162" y="401" on="1"/>
        <pt x="205" y="401" on="1"/>
      </contour>
      <contour>
        <pt x="232" y="109" on="0"/>
        <pt x="256" y="123" on="0"/>
        <pt x="264" y="161" on="0"/>
        <pt x="264" y="202" on="1"/>
        <pt x="264" y="242" on="0"/>
        <pt x="254" y="281" on="0"/>
        <pt x="230" y="295" on="0"/>
        <pt x="206" y="295" on="1"/>
        <pt x="162" y="295" on="1"/>
        <pt x="162" y="109" on="1"/>
        <pt x="206" y="109" on="1"/>
      </contour>
    </TTGlyph>
    <TTGlyph name="C" xMin="32" yMin="-8" xMax="302" yMax="696">
      <contour>
        <pt x="285" y="1" on="0"/>
        <pt x="232" y="-8" on="0"/>
        <pt x="209" y="-8" on="1"/>
        <pt x="130" y="-8" on="0"/>
        <pt x="56" y="53" on="0"/>
        <pt x="32" y="196" on="0"/>
        <pt x="32" y="344" on="1"/>
        <pt x="32" y="490" on="0"/>
        <pt x="57" y="635" on="0"/>
        <pt x="131" y="696" on="0"/>
        <pt x="209" y="696" on="1"/>
        <pt x="236" y="696" on="0"/>
        <pt x="287" y="688" on="0"/>
        <pt x="300" y="681" on="1"/>
        <pt x="300" y="580" on="1"/>
        <pt x="261" y="587" on="0"/>
        <pt x="231" y="587" on="1"/>
        <pt x="192" y="587" on="0"/>
        <pt x="161" y="558" on="0"/>
        <pt x="152" y="464" on="0"/>
        <pt x="152" y="344" on="1"/>
        <pt x="152" y="224" on="0"/>
        <pt x="161" y="130" on="0"/>
        <pt x="192" y="101" on="0"/>
        <pt x="231" y="101" on="1"/>
        <pt x="269" y="101" on="0"/>
        <pt x="302" y="108" on="1"/>
        <pt x="302" y="8" on="1"/>
      </contour>
    </TTGlyph>
    <TTGlyph name="Cacute" xMin="32" yMin="-8" xMax="302" yMax="888">
      <component glyphName="C" x="0" y="0" flags="0x0"/>
      <component glyphName="acutecomb.case" x="266" y="0" flags="0x0"/>
    </TTGlyph>
    <TTGlyph name="Cacute.loclPLK" xMin="32" yMin="-8" xMax="302" yMax="888">
      <component glyphName="C" x="0" y="0" flags="0x0"/>
      <component glyphName="acute.case.loclPLK" x="119" y="0" flags="0x0"/>
    </TTGlyph>
    <TTGlyph name="Ccaron" xMin="32" yMin="-8" xMax="302" yMax="888">
      <component glyphName="C" x="0" y="0" flags="0x0"/>
      <component glyphName="uni030C.case" x="287" y="0" flags="0x0"/>
    </TTGlyph>
    <TTGlyph name="Ccedilla" xMin="32" yMin="-189" xMax="302" yMax="696">
      <contour>
        <pt x="269" y="101" on="0"/>
        <pt x="302" y="108" on="1"/>
        <pt x="302" y="8" on="1"/>
        <pt x="285" y="1" on="0"/>
        <pt x="232" y="-8" on="0"/>
        <pt x="209" y="-8" on="1"/>
        <pt x="198" y="-8" on="1"/>
        <pt x="164" y="-189" on="1"/>
        <pt x="67" y="-189" on="1"/>
        <pt x="67" y="-184" on="1"/>
        <pt x="127" y="3" on="1"/>
        <pt x="86" y="18" on="0"/>
        <pt x="46" y="95" on="0"/>
        <pt x="32" y="226" on="0"/>
        <pt x="32" y="344" on="1"/>
        <pt x="32" y="490" on="0"/>
        <pt x="57" y="635" on="0"/>
        <pt x="131" y="696" on="0"/>
        <pt x="209" y="696" on="1"/>
        <pt x="236" y="696" on="0"/>
        <pt x="287" y="688" on="0"/>
        <pt x="300" y="681" on="1"/>
        <pt x="300" y="580" on="1"/>
        <pt x="261" y="587" on="0"/>
        <pt x="231" y="587" on="1"/>
        <pt x="192" y="587" on="0"/>
        <pt x="161" y="558" on="0"/>
        <pt x="152" y="464" on="0"/>
        <pt x="152" y="344" on="1"/>
        <pt x="152" y="224" on="0"/>
        <pt x="161" y="130" on="0"/>
        <pt x="192" y="101" on="0"/>
        <pt x="231" y="101" on="1"/>
      </contour>
    </TTGlyph>
    <TTGlyph name="Ccircumflex" xMin="32" yMin="-8" xMax="302" yMax="888">
      <component glyphName="C" x="0" y="0" flags="0x0"/>
      <component glyphName="uni0302.case" x="287" y="0" flags="0x0"/>
    </TTGlyph>
    <TTGlyph name="Cdotaccent" xMin="32" yMin="-8" xMax="302" yMax="875">
      <component glyphName="C" x="0" y="0" flags="0x0"/>
      <component glyphName="uni0307.case" x="214" y="0" flags="0x0"/>
    </TTGlyph>
    <TTGlyph name="D" xMin="43" yMin="0" xMax="384" yMax="688">
      <contour>
        <pt x="43" y="688" on="1"/>
        <pt x="204" y="688" on="1"/>
        <pt x="291" y="688" on="0"/>
        <pt x="365" y="629" on="0"/>
        <pt x="384" y="498" on="0"/>
        <pt x="384" y="344" on="1"/>
        <pt x="384" y="191" on="0"/>
        <pt x="365" y="59" on="0"/>
        <pt x="291" y="0" on="0"/>
        <pt x="204" y="0" on="1"/>
        <pt x="43" y="0" on="1"/>
      </contour>
      <contour>
        <pt x="204" y="109" on="1"/>
        <pt x="235" y="109" on="0"/>
        <pt x="257" y="132" on="0"/>
        <pt x="265" y="224" on="0"/>
        <pt x="265" y="344" on="1"/>
        <pt x="265" y="464" on="0"/>
        <pt x="257" y="556" on="0"/>
        <pt x="235" y="579" on="0"/>
        <pt x="204" y="579" on="1"/>
        <pt x="162" y="579" on="1"/>
        <pt x="162" y="109" on="1"/>
      </contour>
    </TTGlyph>
    <TTGlyph name="Dcaron" xMin="43" yMin="0" xMax="384" yMax="888">
      <component glyphName="D" x="0" y="0" flags="0x0"/>
      <component glyphName="uni030C.case" x="333" y="0" flags="0x0"/>
    </TTGlyph>
    <TTGlyph name="Dcroat" xMin="3" yMin="0" xMax="384" yMax="688">
      <component glyphName="Eth" x="0" y="0" flags="0x0"/>
    </TTGlyph>
    <TTGlyph name="E" xMin="43" yMin="0" xMax="317" yMax="688">
      <contour>
        <pt x="43" y="688" on="1"/>
        <pt x="317" y="688" on="1"/>
        <pt x="317" y="579" on="1"/>
        <pt x="164" y="579" on="1"/>
        <pt x="164" y="402" on="1"/>
        <pt x="298" y="402" on="1"/>
        <pt x="298" y="293" on="1"/>
        <pt x="164" y="293" on="1"/>
        <pt x="164" y="109" on="1"/>
        <pt x="317" y="109" on="1"/>
        <pt x="317" y="0" on="1"/>
        <pt x="43" y="0" on="1"/>
      </contour>
    </TTGlyph>
    <TTGlyph name="Eacute" xMin="43" yMin="0" xMax="317" yMax="895">
      <component glyphName="E" x="0" y="0" flags="0x0"/>
      <component glyphName="acute" x="135" y="152" flags="0x4"/>
    </TTGlyph>
    <TTGlyph name="Ebreve" xMin="43" yMin="0" xMax="317" yMax="888">
      <component glyphName="E" x="0" y="0" flags="0x0"/>
      <component glyphName="uni0306.case" x="298" y="0" flags="0x0"/>
    </TTGlyph>
    <TTGlyph name="Ecaron" xMin="43" yMin="0" xMax="317" yMax="888">
      <component glyphName="E" x="0" y="0" flags="0x0"/>
      <component glyphName="uni030C.case" x="305" y="0" flags="0x0"/>
    </TTGlyph>
    <TTGlyph name="Ecircumflex" xMin="43" yMin="0" xMax="317" yMax="877">
      <component glyphName="E" x="0" y="0" flags="0x0"/>
      <component glyphName="circumflex" x="56" y="134" flags="0x4"/>
    </TTGlyph>
    <TTGlyph name="Edieresis" xMin="43" yMin="0" xMax="317" yMax="872">
      <component glyphName="E" x="0" y="0" flags="0x0"/>
      <component glyphName="dieresis" x="42" y="142" flags="0x4"/>
    </TTGlyph>
    <TTGlyph name="Edotaccent" xMin="43" yMin="0" xMax="317" yMax="875">
      <component glyphName="E" x="0" y="0" flags="0x0"/>
      <component glyphName="uni0307.case" x="232" y="0" flags="0x0"/>
    </TTGlyph>
    <TTGlyph name="Egrave" xMin="43" yMin="0" xMax="317" yMax="895">
      <component glyphName="E" x="0" y="0" flags="0x0"/>
      <component glyphName="grave" x="90" y="152" flags="0x4"/>
    </TTGlyph>
    <TTGlyph name="Emacron" xMin="43" yMin="0" xMax="317" yMax="888">
      <component glyphName="E" x="0" y="0" flags="0x0"/>
      <component glyphName="uni0304.case" x="315" y="0" flags="0x0"/>
    </TTGlyph>
    <TTGlyph name="Eng" xMin="43" yMin="-196" xMax="396" yMax="688">
      <contour>
        <pt x="396" y="688" on="1"/>
        <pt x="396" y="-26" on="1"/>
        <pt x="395" y="-104" on="0"/>
        <pt x="364" y="-175" on="0"/>
        <pt x="299" y="-196" on="0"/>
        <pt x="231" y="-196" on="1"/>
        <pt x="231" y="-109" on="1"/>
        <pt x="255" y="-109" on="0"/>
        <pt x="277" y="-99" on="0"/>
        <pt x="282" y="-79" on="0"/>
        <pt x="282" y="-57" on="1"/>
        <pt x="282" y="31" on="1"/>
        <pt x="162" y="388" on="1"/>
        <pt x="158" y="388" on="1"/>
        <pt x="158" y="0" on="1"/>
        <pt x="43" y="0" on="1"/>
        <pt x="43" y="688" on="1"/>
        <pt x="157" y="688" on="1"/>
        <pt x="276" y="330" on="1"/>
        <pt x="282" y="330" on="1"/>
        <pt x="282" y="688" on="1"/>
      </contour>
    </TTGlyph>
    <TTGlyph name="Eogonek" xMin="43" yMin="-196" xMax="317" yMax="688">
      <contour>
        <pt x="218" y="-196" on="0"/>
        <pt x="174" y="-149" on="0"/>
        <pt x="174" y="-115" on="1"/>
        <pt x="174" y="-55" on="0"/>
        <pt x="236" y="0" on="1"/>
        <pt x="43" y="0" on="1"/>
        <pt x="43" y="688" on="1"/>
        <pt x="317" y="688" on="1"/>
        <pt x="317" y="579" on="1"/>
        <pt x="164" y="579" on="1"/>
        <pt x="164" y="402" on="1"/>
        <pt x="298" y="402" on="1"/>
        <pt x="298" y="293" on="1"/>
        <pt x="164" y="293" on="1"/>
        <pt x="164" y="109" on="1"/>
        <pt x="317" y="109" on="1"/>
        <pt x="317" y="0" on="1"/>
        <pt x="296" y="-17" on="0"/>
        <pt x="261" y="-68" on="0"/>
        <pt x="261" y="-95" on="1"/>
        <pt x="261" y="-131" on="0"/>
        <pt x="298" y="-131" on="1"/>
        <pt x="310" y="-130" on="1"/>
        <pt x="310" y="-192" on="1"/>
        <pt x="294" y="-196" on="0"/>
        <pt x="267" y="-196" on="1"/>
      </contour>
    </TTGlyph>
    <TTGlyph name="Eth" xMin="3" yMin="0" xMax="384" yMax="688">
      <contour>
        <pt x="43" y="293" on="1"/>
        <pt x="3" y="293" on="1"/>
        <pt x="3" y="403" on="1"/>
        <pt x="43" y="403" on="1"/>
        <pt x="43" y="688" on="1"/>
        <pt x="204" y="688" on="1"/>
        <pt x="291" y="688" on="0"/>
        <pt x="365" y="629" on="0"/>
        <pt x="384" y="498" on="0"/>
        <pt x="384" y="344" on="1"/>
        <pt x="384" y="191" on="0"/>
        <pt x="365" y="59" on="0"/>
        <pt x="291" y="0" on="0"/>
        <pt x="204" y="0" on="1"/>
        <pt x="43" y="0" on="1"/>
      </contour>
      <contour>
        <pt x="235" y="109" on="0"/>
        <pt x="257" y="132" on="0"/>
        <pt x="265" y="224" on="0"/>
        <pt x="265" y="344" on="1"/>
        <pt x="265" y="464" on="0"/>
        <pt x="257" y="556" on="0"/>
        <pt x="235" y="579" on="0"/>
        <pt x="204" y="579" on="1"/>
        <pt x="162" y="579" on="1"/>
        <pt x="162" y="403" on="1"/>
        <pt x="220" y="403" on="1"/>
        <pt x="220" y="293" on="1"/>
        <pt x="162" y="293" on="1"/>
        <pt x="162" y="109" on="1"/>
        <pt x="204" y="109" on="1"/>
      </contour>
    </TTGlyph>
    <TTGlyph name="Euro" xMin="22" yMin="-8" xMax="340" yMax="696">
      <contour>
        <pt x="179" y="-8" on="0"/>
        <pt x="107" y="36" on="0"/>
        <pt x="75" y="139" on="0"/>
        <pt x="71" y="237" on="1"/>
        <pt x="22" y="237" on="1"/>
        <pt x="22" y="302" on="1"/>
        <pt x="70" y="302" on="1"/>
        <pt x="70" y="389" on="1"/>
        <pt x="22" y="389" on="1"/>
        <pt x="22" y="454" on="1"/>
        <pt x="72" y="454" on="1"/>
        <pt x="76" y="550" on="0"/>
        <pt x="109" y="652" on="0"/>
        <pt x="181" y="696" on="0"/>
        <pt x="247" y="696" on="1"/>
        <pt x="274" y="696" on="0"/>
        <pt x="325" y="688" on="0"/>
        <pt x="338" y="681" on="1"/>
        <pt x="338" y="580" on="1"/>
        <pt x="300" y="587" on="0"/>
        <pt x="269" y="587" on="1"/>
        <pt x="237" y="587" on="0"/>
        <pt x="207" y="570" on="0"/>
        <pt x="194" y="515" on="0"/>
        <pt x="192" y="454" on="1"/>
        <pt x="310" y="454" on="1"/>
        <pt x="310" y="389" on="1"/>
        <pt x="191" y="389" on="1"/>
        <pt x="191" y="302" on="1"/>
        <pt x="310" y="302" on="1"/>
        <pt x="310" y="237" on="1"/>
        <pt x="191" y="237" on="1"/>
        <pt x="193" y="175" on="0"/>
        <pt x="206" y="119" on="0"/>
        <pt x="237" y="101" on="0"/>
        <pt x="269" y="101" on="1"/>
        <pt x="309" y="101" on="0"/>
        <pt x="340" y="108" on="1"/>
        <pt x="340" y="8" on="1"/>
        <pt x="323" y="1" on="0"/>
        <pt x="270" y="-8" on="0"/>
        <pt x="247" y="-8" on="1"/>
      </contour>
    </TTGlyph>
    <TTGlyph name="F" xMin="43" yMin="0" xMax="304" yMax="688">
      <contour>
        <pt x="43" y="688" on="1"/>
        <pt x="304" y="688" on="1"/>
        <pt x="304" y="579" on="1"/>
        <pt x="164" y="579" on="1"/>
        <pt x="164" y="388" on="1"/>
        <pt x="288" y="388" on="1"/>
        <pt x="288" y="279" on="1"/>
        <pt x="164" y="279" on="1"/>
        <pt x="164" y="0" on="1"/>
        <pt x="43" y="0" on="1"/>
      </contour>
    </TTGlyph>
    <TTGlyph name="G" xMin="32" yMin="-8" xMax="372" yMax="696">
      <contour>
        <pt x="212" y="288" on="1"/>
        <pt x="212" y="394" on="1"/>
        <pt x="372" y="394" on="1"/>
        <pt x="372" y="13" on="1"/>
        <pt x="343" y="3" on="0"/>
        <pt x="259" y="-8" on="0"/>
        <pt x="220" y="-8" on="1"/>
        <pt x="140" y="-8" on="0"/>
        <pt x="62" y="48" on="0"/>
        <pt x="32" y="195" on="0"/>
        <pt x="32" y="344" on="1"/>
        <pt x="32" y="493" on="0"/>
        <pt x="64" y="640" on="0"/>
        <pt x="148" y="696" on="0"/>
        <pt x="232" y="696" on="1"/>
        <pt x="264" y="696" on="0"/>
        <pt x="343" y="685" on="0"/>
        <pt x="371" y="677" on="1"/>
        <pt x="371" y="576" on="1"/>
        <pt x="300" y="587" on="0"/>
        <pt x="265" y="587" on="1"/>
        <pt x="209" y="587" on="0"/>
        <pt x="167" y="563" on="0"/>
        <pt x="151" y="467" on="0"/>
        <pt x="151" y="344" on="1"/>
        <pt x="151" y="227" on="0"/>
        <pt x="160" y="131" on="0"/>
        <pt x="188" y="98" on="0"/>
        <pt x="223" y="98" on="1"/>
        <pt x="248" y="98" on="0"/>
        <pt x="264" y="102" on="1"/>
        <pt x="264" y="288" on="1"/>
      </contour>
    </TTGlyph>
    <TTGlyph name="G.ss01" xMin="32" yMin="-8" xMax="383" yMax="696">
      <contour>
        <pt x="134" y="-8" on="0"/>
        <pt x="57" y="48" on="0"/>
        <pt x="32" y="191" on="0"/>
        <pt x="32" y="344" on="1"/>
        <pt x="32" y="494" on="0"/>
        <pt x="64" y="641" on="0"/>
        <pt x="149" y="696" on="0"/>
        <pt x="236" y="696" on="1"/>
        <pt x="266" y="696" on="0"/>
        <pt x="342" y="685" on="0"/>
        <pt x="371" y="677" on="1"/>
        <pt x="371" y="576" on="1"/>
        <pt x="300" y="587" on="0"/>
        <pt x="262" y="587" on="1"/>
        <pt x="208" y="587" on="0"/>
        <pt x="166" y="560" on="0"/>
        <pt x="152" y="466" on="0"/>
        <pt x="152" y="344" on="1"/>
        <pt x="152" y="224" on="0"/>
        <pt x="160" y="128" on="0"/>
        <pt x="183" y="101" on="0"/>
        <pt x="213" y="101" on="1"/>
        <pt x="241" y="101" on="0"/>
        <pt x="261" y="118" on="0"/>
        <pt x="267" y="174" on="0"/>
        <pt x="267" y="252" on="1"/>
        <pt x="267" y="291" on="1"/>
        <pt x="216" y="291" on="1"/>
        <pt x="216" y="397" on="1"/>
        <pt x="383" y="397" on="1"/>
        <pt x="383" y="269" on="1"/>
        <pt x="383" y="151" on="0"/>
        <pt x="367" y="45" on="0"/>
        <pt x="297" y="-8" on="0"/>
        <pt x="217" y="-8" on="1"/>
      </contour>
    </TTGlyph>
    <TTGlyph name="G_tilde.loclGUA" xMin="32" yMin="-8" xMax="372" yMax="888">
      <component glyphName="G" x="0" y="0" flags="0x0"/>
      <component glyphName="tildecomb.case" x="340" y="0" flags="0x0"/>
    </TTGlyph>
    <TTGlyph name="Gbreve" xMin="32" yMin="-8" xMax="372" yMax="888">
      <component glyphName="G" x="0" y="0" flags="0x0"/>
      <component glyphName="uni0306.case" x="322" y="0" flags="0x0"/>
    </TTGlyph>
    <TTGlyph name="Gbreve.ss01" xMin="32" yMin="-8" xMax="383" yMax="888">
      <component glyphName="G.ss01" x="0" y="0" flags="0x0"/>
      <component glyphName="uni0306.case" x="325" y="0" flags="0x0"/>
    </TTGlyph>
    <TTGlyph name="Gcaron" xMin="32" yMin="-8" xMax="372" yMax="888">
      <component glyphName="G" x="0" y="0" flags="0x0"/>
      <component glyphName="uni030C.case" x="329" y="0" flags="0x0"/>
    </TTGlyph>
    <TTGlyph name="Gcaron.ss01" xMin="32" yMin="-8" xMax="383" yMax="888">
      <component glyphName="G.ss01" x="0" y="0" flags="0x0"/>
      <component glyphName="uni030C.case" x="332" y="0" flags="0x0"/>
    </TTGlyph>
    <TTGlyph name="Gcircumflex" xMin="32" yMin="-8" xMax="372" yMax="888">
      <component glyphName="G" x="0" y="0" flags="0x0"/>
      <component glyphName="uni0302.case" x="329" y="0" flags="0x0"/>
    </TTGlyph>
    <TTGlyph name="Gcircumflex.ss01" xMin="32" yMin="-8" xMax="383" yMax="888">
      <component glyphName="G.ss01" x="0" y="0" flags="0x0"/>
      <component glyphName="uni0302.case" x="332" y="0" flags="0x0"/>
    </TTGlyph>
    <TTGlyph name="Gcommaaccent" xMin="32" yMin="-272" xMax="372" yMax="696">
      <component glyphName="G" x="0" y="0" flags="0x0"/>
      <component glyphName="uni0326" x="310" y="0" flags="0x0"/>
    </TTGlyph>
    <TTGlyph name="Gcommaaccent.ss01" xMin="32" yMin="-272" xMax="383" yMax="696">
      <component glyphName="G.ss01" x="0" y="0" flags="0x0"/>
      <component glyphName="uni0326" x="313" y="0" flags="0x0"/>
    </TTGlyph>
    <TTGlyph name="Gdotaccent" xMin="32" yMin="-8" xMax="372" yMax="875">
      <component glyphName="G" x="0" y="0" flags="0x0"/>
      <component glyphName="uni0307.case" x="256" y="0" flags="0x0"/>
    </TTGlyph>
    <TTGlyph name="Gdotaccent.ss01" xMin="32" yMin="-8" xMax="383" yMax="875">
      <component glyphName="G.ss01" x="0" y="0" flags="0x0"/>
      <component glyphName="uni0307.case" x="259" y="0" flags="0x0"/>
    </TTGlyph>
    <TTGlyph name="Gtilde.loclGUA.ss01" xMin="32" yMin="-8" xMax="383" yMax="888">
      <component glyphName="G.ss01" x="0" y="0" flags="0x0"/>
      <component glyphName="tildecomb.case" x="343" y="0" flags="0x0"/>
    </TTGlyph>
    <TTGlyph name="H" xMin="43" yMin="0" xMax="393" yMax="688">
      <contour>
        <pt x="272" y="290" on="1"/>
        <pt x="164" y="290" on="1"/>
        <pt x="164" y="0" on="1"/>
        <pt x="43" y="0" on="1"/>
        <pt x="43" y="688" on="1"/>
        <pt x="164" y="688" on="1"/>
        <pt x="164" y="404" on="1"/>
        <pt x="272" y="404" on="1"/>
        <pt x="272" y="688" on="1"/>
        <pt x="393" y="688" on="1"/>
        <pt x="393" y="0" on="1"/>
        <pt x="272" y="0" on="1"/>
      </contour>
    </TTGlyph>
    <TTGlyph name="Hbar" xMin="43" yMin="0" xMax="393" yMax="688">
      <contour>
        <pt x="393" y="688" on="1"/>
        <pt x="393" y="0" on="1"/>
        <pt x="272" y="0" on="1"/>
        <pt x="272" y="255" on="1"/>
        <pt x="164" y="255" on="1"/>
        <pt x="164" y="0" on="1"/>
        <pt x="43" y="0" on="1"/>
        <pt x="43" y="688" on="1"/>
        <pt x="164" y="688" on="1"/>
        <pt x="164" y="588" on="1"/>
        <pt x="272" y="588" on="1"/>
        <pt x="272" y="688" on="1"/>
      </contour>
      <contour>
        <pt x="272" y="370" on="1"/>
        <pt x="272" y="479" on="1"/>
        <pt x="164" y="479" on="1"/>
        <pt x="164" y="370" on="1"/>
      </contour>
    </TTGlyph>
    <TTGlyph name="Hcircumflex" xMin="43" yMin="0" xMax="393" yMax="888">
      <component glyphName="H" x="0" y="0" flags="0x0"/>
      <component glyphName="uni0302.case" x="343" y="0" flags="0x0"/>
    </TTGlyph>
    <TTGlyph name="I" xMin="45" yMin="0" xMax="165" yMax="688">
      <contour>
        <pt x="45" y="688" on="1"/>
        <pt x="165" y="688" on="1"/>
        <pt x="165" y="0" on="1"/>
        <pt x="45" y="0" on="1"/>
      </contour>
    </TTGlyph>
    <TTGlyph name="IJ" xMin="45" yMin="0" xMax="416" yMax="688">
      <component glyphName="I" x="0" y="0" flags="0x0"/>
      <component glyphName="J" x="210" y="0" flags="0x0"/>
    </TTGlyph>
    <TTGlyph name="Iacute" xMin="45" yMin="0" xMax="194" yMax="895">
      <component glyphName="I" x="0" y="0" flags="0x0"/>
      <component glyphName="acute" x="47" y="152" flags="0x4"/>
    </TTGlyph>
    <TTGlyph name="Iacute_J.loclNLD" xMin="45" yMin="0" xMax="460" yMax="888">
      <component glyphName="I" x="0" y="0" flags="0x0"/>
      <component glyphName="acutecomb.case" x="209" y="0" flags="0x0"/>
      <component glyphName="J" x="210" y="0" flags="0x0"/>
      <component glyphName="acutecomb.case" x="460" y="0" flags="0x0"/>
    </TTGlyph>
    <TTGlyph name="Ibreve" xMin="-14" yMin="0" xMax="223" yMax="888">
      <component glyphName="I" x="0" y="0" flags="0x0"/>
      <component glyphName="uni0306.case" x="223" y="0" flags="0x0"/>
    </TTGlyph>
    <TTGlyph name="Icircumflex" xMin="-20" yMin="0" xMax="230" yMax="877">
      <component glyphName="I" x="0" y="0" flags="0x0"/>
      <component glyphName="circumflex" x="-20" y="134" flags="0x4"/>
    </TTGlyph>
    <TTGlyph name="Idieresis" xMin="-27" yMin="0" xMax="237" yMax="872">
      <component glyphName="I" x="0" y="0" flags="0x0"/>
      <component glyphName="dieresis" x="-34" y="142" flags="0x4"/>
    </TTGlyph>
    <TTGlyph name="Idotaccent" xMin="45" yMin="0" xMax="165" yMax="875">
      <component glyphName="I" x="0" y="0" flags="0x0"/>
      <component glyphName="uni0307.case" x="157" y="0" flags="0x0"/>
    </TTGlyph>
    <TTGlyph name="Igrave" xMin="17" yMin="0" xMax="165" yMax="895">
      <component glyphName="I" x="0" y="0" flags="0x0"/>
      <component glyphName="grave" x="17" y="152" flags="0x4"/>
    </TTGlyph>
    <TTGlyph name="Imacron" xMin="18" yMin="0" xMax="192" yMax="888">
      <component glyphName="I" x="0" y="0" flags="0x0"/>
      <component glyphName="uni0304.case" x="240" y="0" flags="0x0"/>
    </TTGlyph>
    <TTGlyph name="Iogonek" xMin="30" yMin="-196" xMax="166" yMax="688">
      <contour>
        <pt x="73" y="-196" on="0"/>
        <pt x="30" y="-148" on="0"/>
        <pt x="30" y="-110" on="1"/>
        <pt x="30" y="-83" on="0"/>
        <pt x="60" y="-24" on="0"/>
        <pt x="84" y="0" on="1"/>
        <pt x="45" y="0" on="1"/>
        <pt x="45" y="688" on="1"/>
        <pt x="165" y="688" on="1"/>
        <pt x="165" y="0" on="1"/>
        <pt x="148" y="-15" on="0"/>
        <pt x="117" y="-68" on="0"/>
        <pt x="117" y="-91" on="1"/>
        <pt x="117" y="-110" on="0"/>
        <pt x="133" y="-131" on="0"/>
        <pt x="154" y="-131" on="1"/>
        <pt x="166" y="-130" on="1"/>
        <pt x="166" y="-192" on="1"/>
        <pt x="150" y="-196" on="0"/>
        <pt x="121" y="-196" on="1"/>
      </contour>
    </TTGlyph>
    <TTGlyph name="Itilde" xMin="-32" yMin="0" xMax="241" yMax="888">
      <component glyphName="I" x="0" y="0" flags="0x0"/>
      <component glyphName="tildecomb.case" x="241" y="0" flags="0x0"/>
    </TTGlyph>
    <TTGlyph name="J" xMin="6" yMin="0" xMax="206" yMax="688">
      <contour>
        <pt x="47" y="104" on="0"/>
        <pt x="77" y="118" on="0"/>
        <pt x="86" y="168" on="0"/>
        <pt x="86" y="236" on="1"/>
        <pt x="86" y="688" on="1"/>
        <pt x="206" y="688" on="1"/>
        <pt x="206" y="298" on="1"/>
        <pt x="206" y="145" on="0"/>
        <pt x="184" y="33" on="0"/>
        <pt x="109" y="1" on="0"/>
        <pt x="6" y="0" on="1"/>
        <pt x="6" y="103" on="1"/>
      </contour>
    </TTGlyph>
    <TTGlyph name="Jcircumflex" xMin="6" yMin="0" xMax="271" yMax="888">
      <component glyphName="J" x="0" y="0" flags="0x0"/>
      <component glyphName="uni0302.case" x="271" y="0" flags="0x0"/>
    </TTGlyph>
    <TTGlyph name="K" xMin="43" yMin="0" xMax="404" yMax="688">
      <contour>
        <pt x="198" y="291" on="1"/>
        <pt x="164" y="291" on="1"/>
        <pt x="164" y="0" on="1"/>
        <pt x="43" y="0" on="1"/>
        <pt x="43" y="688" on="1"/>
        <pt x="164" y="688" on="1"/>
        <pt x="164" y="406" on="1"/>
        <pt x="198" y="406" on="1"/>
        <pt x="280" y="688" on="1"/>
        <pt x="403" y="688" on="1"/>
        <pt x="292" y="356" on="1"/>
        <pt x="404" y="0" on="1"/>
        <pt x="278" y="0" on="1"/>
      </contour>
    </TTGlyph>
    <TTGlyph name="Kcommaaccent" xMin="43" yMin="-272" xMax="404" yMax="688">
      <component glyphName="K" x="0" y="0" flags="0x0"/>
      <component glyphName="uni0326" x="311" y="0" flags="0x0"/>
    </TTGlyph>
    <TTGlyph name="L" xMin="43" yMin="0" xMax="302" yMax="688">
      <contour>
        <pt x="43" y="688" on="1"/>
        <pt x="164" y="688" on="1"/>
        <pt x="164" y="111" on="1"/>
        <pt x="302" y="111" on="1"/>
        <pt x="302" y="0" on="1"/>
        <pt x="43" y="0" on="1"/>
      </contour>
    </TTGlyph>
    <TTGlyph name="Lacute" xMin="43" yMin="0" xMax="302" yMax="888">
      <component glyphName="L" x="0" y="0" flags="0x0"/>
      <component glyphName="acutecomb.case" x="208" y="0" flags="0x0"/>
    </TTGlyph>
    <TTGlyph name="Lcaron" xMin="43" yMin="0" xMax="338" yMax="688">
      <component glyphName="L" x="0" y="0" flags="0x0"/>
      <component glyphName="caron.loclCSY" x="190" y="0" flags="0x0"/>
    </TTGlyph>
    <TTGlyph name="Lcommaaccent" xMin="43" yMin="-272" xMax="302" yMax="688">
      <component glyphName="L" x="0" y="0" flags="0x0"/>
      <component glyphName="uni0326" x="266" y="0" flags="0x0"/>
    </TTGlyph>
    <TTGlyph name="Ldot" xMin="43" yMin="0" xMax="347" yMax="688">
      <component glyphName="L" x="0" y="0" flags="0x0"/>
      <component glyphName="periodcentered" x="176" y="74" flags="0x4"/>
    </TTGlyph>
    <TTGlyph name="Lslash" xMin="6" yMin="0" xMax="302" yMax="688">
      <contour>
        <pt x="302" y="111" on="1"/>
        <pt x="302" y="0" on="1"/>
        <pt x="43" y="0" on="1"/>
        <pt x="43" y="259" on="1"/>
        <pt x="6" y="245" on="1"/>
        <pt x="6" y="347" on="1"/>
        <pt x="43" y="361" on="1"/>
        <pt x="43" y="688" on="1"/>
        <pt x="164" y="688" on="1"/>
        <pt x="164" y="407" on="1"/>
        <pt x="254" y="441" on="1"/>
        <pt x="254" y="339" on="1"/>
        <pt x="164" y="305" on="1"/>
        <pt x="164" y="111" on="1"/>
      </contour>
    </TTGlyph>
    <TTGlyph name="M" xMin="43" yMin="0" xMax="567" yMax="688">
      <contour>
        <pt x="451" y="532" on="1"/>
        <pt x="444" y="532" on="1"/>
        <pt x="364" y="0" on="1"/>
        <pt x="243" y="0" on="1"/>
        <pt x="165" y="532" on="1"/>
        <pt x="157" y="532" on="1"/>
        <pt x="157" y="0" on="1"/>
        <pt x="43" y="0" on="1"/>
        <pt x="43" y="688" on="1"/>
        <pt x="230" y="688" on="1"/>
        <pt x="304" y="181" on="1"/>
        <pt x="311" y="181" on="1"/>
        <pt x="385" y="688" on="1"/>
        <pt x="567" y="688" on="1"/>
        <pt x="567" y="0" on="1"/>
        <pt x="451" y="0" on="1"/>
      </contour>
    </TTGlyph>
    <TTGlyph name="N" xMin="43" yMin="0" xMax="396" yMax="688">
      <contour>
        <pt x="162" y="388" on="1"/>
        <pt x="158" y="388" on="1"/>
        <pt x="158" y="0" on="1"/>
        <pt x="43" y="0" on="1"/>
        <pt x="43" y="688" on="1"/>
        <pt x="157" y="688" on="1"/>
        <pt x="276" y="327" on="1"/>
        <pt x="282" y="327" on="1"/>
        <pt x="282" y="688" on="1"/>
        <pt x="396" y="688" on="1"/>
        <pt x="396" y="0" on="1"/>
        <pt x="289" y="0" on="1"/>
      </contour>
    </TTGlyph>
    <TTGlyph name="Nacute" xMin="43" yMin="0" xMax="396" yMax="888">
      <component glyphName="N" x="0" y="0" flags="0x0"/>
      <component glyphName="acutecomb.case" x="324" y="0" flags="0x0"/>
    </TTGlyph>
    <TTGlyph name="Nacute.loclPLK" xMin="43" yMin="0" xMax="396" yMax="888">
      <component glyphName="N" x="0" y="0" flags="0x0"/>
      <component glyphName="acute.case.loclPLK" x="177" y="0" flags="0x0"/>
    </TTGlyph>
    <TTGlyph name="Ncaron" xMin="43" yMin="0" xMax="396" yMax="888">
      <component glyphName="N" x="0" y="0" flags="0x0"/>
      <component glyphName="uni030C.case" x="345" y="0" flags="0x0"/>
    </TTGlyph>
    <TTGlyph name="Ncommaaccent" xMin="43" yMin="-272" xMax="396" yMax="688">
      <component glyphName="N" x="0" y="0" flags="0x0"/>
      <component glyphName="uni0326" x="326" y="0" flags="0x0"/>
    </TTGlyph>
    <TTGlyph name="Ntilde" xMin="43" yMin="0" xMax="396" yMax="885">
      <component glyphName="N" x="0" y="0" flags="0x0"/>
      <component glyphName="tilde" x="83" y="142" flags="0x4"/>
    </TTGlyph>
    <TTGlyph name="O" xMin="32" yMin="-8" xMax="391" yMax="696">
      <contour>
        <pt x="124" y="-8" on="0"/>
        <pt x="51" y="52" on="0"/>
        <pt x="32" y="187" on="0"/>
        <pt x="32" y="344" on="1"/>
        <pt x="32" y="501" on="0"/>
        <pt x="51" y="636" on="0"/>
        <pt x="124" y="696" on="0"/>
        <pt x="211" y="696" on="1"/>
        <pt x="298" y="696" on="0"/>
        <pt x="372" y="636" on="0"/>
        <pt x="391" y="501" on="0"/>
        <pt x="391" y="344" on="1"/>
        <pt x="391" y="187" on="0"/>
        <pt x="372" y="52" on="0"/>
        <pt x="298" y="-8" on="0"/>
        <pt x="211" y="-8" on="1"/>
      </contour>
      <contour>
        <pt x="241" y="101" on="0"/>
        <pt x="263" y="125" on="0"/>
        <pt x="270" y="219" on="0"/>
        <pt x="270" y="344" on="1"/>
        <pt x="270" y="469" on="0"/>
        <pt x="263" y="563" on="0"/>
        <pt x="241" y="587" on="0"/>
        <pt x="211" y="587" on="1"/>
        <pt x="181" y="587" on="0"/>
        <pt x="160" y="563" on="0"/>
        <pt x="152" y="468" on="0"/>
        <pt x="152" y="344" on="1"/>
        <pt x="152" y="220" on="0"/>
        <pt x="160" y="125" on="0"/>
        <pt x="181" y="101" on="0"/>
        <pt x="211" y="101" on="1"/>
      </contour>
    </TTGlyph>
    <TTGlyph name="OE" xMin="32" yMin="0" xMax="566" yMax="688">
      <contour>
        <pt x="124" y="0" on="0"/>
        <pt x="51" y="59" on="0"/>
        <pt x="32" y="191" on="0"/>
        <pt x="32" y="344" on="1"/>
        <pt x="32" y="497" on="0"/>
        <pt x="51" y="629" on="0"/>
        <pt x="124" y="688" on="0"/>
        <pt x="211" y="688" on="1"/>
        <pt x="566" y="688" on="1"/>
        <pt x="566" y="579" on="1"/>
        <pt x="418" y="579" on="1"/>
        <pt x="391" y="579" on="0"/>
        <pt x="367" y="583" on="1"/>
        <pt x="379" y="557" on="0"/>
        <pt x="389" y="471" on="0"/>
        <pt x="390" y="402" on="1"/>
        <pt x="547" y="402" on="1"/>
        <pt x="547" y="293" on="1"/>
        <pt x="391" y="293" on="1"/>
        <pt x="390" y="220" on="0"/>
        <pt x="380" y="132" on="0"/>
        <pt x="366" y="105" on="1"/>
        <pt x="388" y="109" on="0"/>
        <pt x="418" y="109" on="1"/>
        <pt x="566" y="109" on="1"/>
        <pt x="566" y="0" on="1"/>
        <pt x="211" y="0" on="1"/>
      </contour>
      <contour>
        <pt x="241" y="109" on="0"/>
        <pt x="263" y="133" on="0"/>
        <pt x="270" y="223" on="0"/>
        <pt x="270" y="344" on="1"/>
        <pt x="270" y="465" on="0"/>
        <pt x="263" y="555" on="0"/>
        <pt x="241" y="579" on="0"/>
        <pt x="211" y="579" on="1"/>
        <pt x="182" y="579" on="0"/>
        <pt x="160" y="555" on="0"/>
        <pt x="152" y="464" on="0"/>
        <pt x="152" y="344" on="1"/>
        <pt x="152" y="224" on="0"/>
        <pt x="160" y="133" on="0"/>
        <pt x="182" y="109" on="0"/>
        <pt x="211" y="109" on="1"/>
      </contour>
    </TTGlyph>
    <TTGlyph name="Oacute" xMin="32" yMin="-8" xMax="391" yMax="895">
      <component glyphName="O" x="0" y="0" flags="0x0"/>
      <component glyphName="acute" x="160" y="152" flags="0x4"/>
    </TTGlyph>
    <TTGlyph name="Oacute.loclPLK" xMin="32" yMin="-8" xMax="391" yMax="888">
      <component glyphName="O" x="0" y="0" flags="0x0"/>
      <component glyphName="acute.case.loclPLK" x="168" y="0" flags="0x0"/>
    </TTGlyph>
    <TTGlyph name="Obreve" xMin="32" yMin="-8" xMax="391" yMax="888">
      <component glyphName="O" x="0" y="0" flags="0x0"/>
      <component glyphName="uni0306.case" x="329" y="0" flags="0x0"/>
    </TTGlyph>
    <TTGlyph name="Ocircumflex" xMin="32" yMin="-8" xMax="391" yMax="877">
      <component glyphName="O" x="0" y="0" flags="0x0"/>
      <component glyphName="circumflex" x="86" y="134" flags="0x4"/>
    </TTGlyph>
    <TTGlyph name="Odieresis" xMin="32" yMin="-8" xMax="391" yMax="872">
      <component glyphName="O" x="0" y="0" flags="0x0"/>
      <component glyphName="dieresis" x="72" y="142" flags="0x4"/>
    </TTGlyph>
    <TTGlyph name="Ograve" xMin="32" yMin="-8" xMax="391" yMax="895">
      <component glyphName="O" x="0" y="0" flags="0x0"/>
      <component glyphName="grave" x="112" y="152" flags="0x4"/>
    </TTGlyph>
    <TTGlyph name="Ohorn" xMin="32" yMin="-8" xMax="431" yMax="779">
      <contour>
        <pt x="431" y="779" on="1"/>
        <pt x="431" y="758" on="1"/>
        <pt x="431" y="716" on="0"/>
        <pt x="421" y="669" on="0"/>
        <pt x="391" y="642" on="0"/>
        <pt x="360" y="637" on="1"/>
        <pt x="381" y="602" on="0"/>
        <pt x="391" y="476" on="0"/>
        <pt x="391" y="344" on="1"/>
        <pt x="391" y="187" on="0"/>
        <pt x="372" y="52" on="0"/>
        <pt x="298" y="-8" on="0"/>
        <pt x="211" y="-8" on="1"/>
        <pt x="124" y="-8" on="0"/>
        <pt x="51" y="52" on="0"/>
        <pt x="32" y="187" on="0"/>
        <pt x="32" y="344" on="1"/>
        <pt x="32" y="501" on="0"/>
        <pt x="51" y="636" on="0"/>
        <pt x="124" y="696" on="0"/>
        <pt x="211" y="696" on="1"/>
        <pt x="261" y="696" on="0"/>
        <pt x="289" y="688" on="1"/>
        <pt x="307" y="688" on="1"/>
        <pt x="337" y="688" on="0"/>
        <pt x="357" y="712" on="0"/>
        <pt x="357" y="743" on="1"/>
        <pt x="357" y="779" on="1"/>
      </contour>
      <contour>
        <pt x="241" y="101" on="0"/>
        <pt x="263" y="125" on="0"/>
        <pt x="270" y="219" on="0"/>
        <pt x="270" y="344" on="1"/>
        <pt x="270" y="469" on="0"/>
        <pt x="263" y="563" on="0"/>
        <pt x="241" y="587" on="0"/>
        <pt x="211" y="587" on="1"/>
        <pt x="181" y="587" on="0"/>
        <pt x="160" y="563" on="0"/>
        <pt x="152" y="468" on="0"/>
        <pt x="152" y="344" on="1"/>
        <pt x="152" y="220" on="0"/>
        <pt x="160" y="125" on="0"/>
        <pt x="181" y="101" on="0"/>
        <pt x="211" y="101" on="1"/>
      </contour>
    </TTGlyph>
    <TTGlyph name="Ohungarumlaut" xMin="32" yMin="-8" xMax="391" yMax="874">
      <component glyphName="O" x="0" y="0" flags="0x0"/>
      <component glyphName="uni030B.case" x="367" y="0" flags="0x0"/>
    </TTGlyph>
    <TTGlyph name="Omacron" xMin="32" yMin="-8" xMax="391" yMax="888">
      <component glyphName="O" x="0" y="0" flags="0x0"/>
      <component glyphName="uni0304.case" x="346" y="0" flags="0x0"/>
    </TTGlyph>
    <TTGlyph name="Oslash" xMin="32" yMin="-55" xMax="391" yMax="743">
      <contour>
        <pt x="357" y="641" on="1"/>
        <pt x="379" y="606" on="0"/>
        <pt x="391" y="477" on="0"/>
        <pt x="391" y="344" on="1"/>
        <pt x="391" y="187" on="0"/>
        <pt x="372" y="52" on="0"/>
        <pt x="298" y="-8" on="0"/>
        <pt x="211" y="-8" on="1"/>
        <pt x="172" y="-8" on="0"/>
        <pt x="149" y="-3" on="1"/>
        <pt x="133" y="-55" on="1"/>
        <pt x="32" y="-55" on="1"/>
        <pt x="65" y="48" on="1"/>
        <pt x="44" y="84" on="0"/>
        <pt x="32" y="212" on="0"/>
        <pt x="32" y="344" on="1"/>
        <pt x="32" y="501" on="0"/>
        <pt x="51" y="636" on="0"/>
        <pt x="124" y="696" on="0"/>
        <pt x="211" y="696" on="1"/>
        <pt x="249" y="696" on="0"/>
        <pt x="272" y="692" on="1"/>
        <pt x="289" y="743" on="1"/>
        <pt x="391" y="743" on="1"/>
      </contour>
      <contour>
        <pt x="241" y="101" on="0"/>
        <pt x="263" y="125" on="0"/>
        <pt x="270" y="219" on="0"/>
        <pt x="270" y="344" on="1"/>
        <pt x="270" y="469" on="0"/>
        <pt x="263" y="563" on="0"/>
        <pt x="241" y="587" on="0"/>
        <pt x="211" y="587" on="1"/>
        <pt x="181" y="587" on="0"/>
        <pt x="160" y="563" on="0"/>
        <pt x="152" y="468" on="0"/>
        <pt x="152" y="344" on="1"/>
        <pt x="152" y="220" on="0"/>
        <pt x="160" y="125" on="0"/>
        <pt x="181" y="101" on="0"/>
        <pt x="211" y="101" on="1"/>
      </contour>
    </TTGlyph>
    <TTGlyph name="Oslash.bold" xMin="32" yMin="-55" xMax="391" yMax="743">
      <contour>
        <pt x="358" y="640" on="1"/>
        <pt x="379" y="605" on="0"/>
        <pt x="391" y="476" on="0"/>
        <pt x="391" y="344" on="1"/>
        <pt x="391" y="187" on="0"/>
        <pt x="372" y="52" on="0"/>
        <pt x="298" y="-8" on="0"/>
        <pt x="211" y="-8" on="1"/>
        <pt x="171" y="-8" on="0"/>
        <pt x="150" y="-3" on="1"/>
        <pt x="133" y="-55" on="1"/>
        <pt x="32" y="-55" on="1"/>
        <pt x="65" y="48" on="1"/>
        <pt x="44" y="83" on="0"/>
        <pt x="32" y="212" on="0"/>
        <pt x="32" y="344" on="1"/>
        <pt x="32" y="501" on="0"/>
        <pt x="51" y="636" on="0"/>
        <pt x="124" y="696" on="0"/>
        <pt x="211" y="696" on="1"/>
        <pt x="249" y="696" on="0"/>
        <pt x="272" y="692" on="1"/>
        <pt x="289" y="743" on="1"/>
        <pt x="391" y="743" on="1"/>
      </contour>
      <contour>
        <pt x="152" y="318" on="1"/>
        <pt x="238" y="585" on="1"/>
        <pt x="231" y="587" on="0"/>
        <pt x="211" y="587" on="1"/>
        <pt x="181" y="587" on="0"/>
        <pt x="160" y="563" on="0"/>
        <pt x="152" y="468" on="0"/>
        <pt x="152" y="344" on="1"/>
      </contour>
      <contour>
        <pt x="270" y="369" on="1"/>
        <pt x="184" y="103" on="1"/>
        <pt x="191" y="101" on="0"/>
        <pt x="211" y="101" on="1"/>
        <pt x="241" y="101" on="0"/>
        <pt x="263" y="125" on="0"/>
        <pt x="270" y="219" on="0"/>
        <pt x="270" y="344" on="1"/>
      </contour>
    </TTGlyph>
    <TTGlyph name="Oslashacute" xMin="32" yMin="-55" xMax="391" yMax="888">
      <component glyphName="Oslash" x="0" y="0" flags="0x0"/>
      <component glyphName="acutecomb.case" x="288" y="0" flags="0x0"/>
    </TTGlyph>
    <TTGlyph name="Otilde" xMin="32" yMin="-8" xMax="391" yMax="885">
      <component glyphName="O" x="0" y="0" flags="0x0"/>
      <component glyphName="tilde" x="76" y="142" flags="0x4"/>
    </TTGlyph>
    <TTGlyph name="P" xMin="43" yMin="0" xMax="385" yMax="688">
      <contour>
        <pt x="43" y="688" on="1"/>
        <pt x="228" y="688" on="1"/>
        <pt x="295" y="688" on="0"/>
        <pt x="363" y="636" on="0"/>
        <pt x="385" y="539" on="0"/>
        <pt x="385" y="457" on="1"/>
        <pt x="385" y="378" on="0"/>
        <pt x="364" y="281" on="0"/>
        <pt x="296" y="225" on="0"/>
        <pt x="228" y="225" on="1"/>
        <pt x="164" y="225" on="1"/>
        <pt x="164" y="0" on="1"/>
        <pt x="43" y="0" on="1"/>
      </contour>
      <contour>
        <pt x="208" y="334" on="1"/>
        <pt x="234" y="334" on="0"/>
        <pt x="257" y="353" on="0"/>
        <pt x="264" y="401" on="0"/>
        <pt x="264" y="457" on="1"/>
        <pt x="264" y="513" on="0"/>
        <pt x="257" y="561" on="0"/>
        <pt x="234" y="579" on="0"/>
        <pt x="208" y="579" on="1"/>
        <pt x="164" y="579" on="1"/>
        <pt x="164" y="334" on="1"/>
      </contour>
    </TTGlyph>
    <TTGlyph name="Q" xMin="32" yMin="-115" xMax="426" yMax="696">
      <contour>
        <pt x="245" y="-5" on="1"/>
        <pt x="230" y="-8" on="0"/>
        <pt x="211" y="-8" on="1"/>
        <pt x="124" y="-8" on="0"/>
        <pt x="51" y="52" on="0"/>
        <pt x="32" y="187" on="0"/>
        <pt x="32" y="344" on="1"/>
        <pt x="32" y="501" on="0"/>
        <pt x="51" y="636" on="0"/>
        <pt x="124" y="696" on="0"/>
        <pt x="211" y="696" on="1"/>
        <pt x="298" y="696" on="0"/>
        <pt x="372" y="636" on="0"/>
        <pt x="391" y="501" on="0"/>
        <pt x="391" y="344" on="1"/>
        <pt x="391" y="200" on="0"/>
        <pt x="375" y="68" on="0"/>
        <pt x="345" y="34" on="1"/>
        <pt x="426" y="-110" on="1"/>
        <pt x="426" y="-115" on="1"/>
        <pt x="302" y="-115" on="1"/>
      </contour>
      <contour>
        <pt x="241" y="101" on="0"/>
        <pt x="263" y="125" on="0"/>
        <pt x="270" y="219" on="0"/>
        <pt x="270" y="344" on="1"/>
        <pt x="270" y="469" on="0"/>
        <pt x="263" y="563" on="0"/>
        <pt x="241" y="587" on="0"/>
        <pt x="211" y="587" on="1"/>
        <pt x="181" y="587" on="0"/>
        <pt x="160" y="563" on="0"/>
        <pt x="152" y="468" on="0"/>
        <pt x="152" y="344" on="1"/>
        <pt x="152" y="220" on="0"/>
        <pt x="160" y="125" on="0"/>
        <pt x="181" y="101" on="0"/>
        <pt x="211" y="101" on="1"/>
      </contour>
    </TTGlyph>
    <TTGlyph name="Q.bold" xMin="32" yMin="-115" xMax="426" yMax="696">
      <contour>
        <pt x="426" y="-110" on="1"/>
        <pt x="426" y="-115" on="1"/>
        <pt x="302" y="-115" on="1"/>
        <pt x="245" y="-7" on="1"/>
        <pt x="235" y="-8" on="0"/>
        <pt x="211" y="-8" on="1"/>
        <pt x="124" y="-8" on="0"/>
        <pt x="51" y="52" on="0"/>
        <pt x="32" y="187" on="0"/>
        <pt x="32" y="344" on="1"/>
        <pt x="32" y="501" on="0"/>
        <pt x="51" y="636" on="0"/>
        <pt x="124" y="696" on="0"/>
        <pt x="211" y="696" on="1"/>
        <pt x="298" y="696" on="0"/>
        <pt x="372" y="636" on="0"/>
        <pt x="391" y="501" on="0"/>
        <pt x="391" y="344" on="1"/>
        <pt x="391" y="202" on="0"/>
        <pt x="375" y="68" on="0"/>
        <pt x="346" y="34" on="1"/>
      </contour>
      <contour>
        <pt x="181" y="587" on="0"/>
        <pt x="160" y="563" on="0"/>
        <pt x="152" y="468" on="0"/>
        <pt x="152" y="344" on="1"/>
        <pt x="152" y="250" on="0"/>
        <pt x="153" y="218" on="1"/>
        <pt x="244" y="218" on="1"/>
        <pt x="267" y="177" on="1"/>
        <pt x="270" y="231" on="0"/>
        <pt x="270" y="344" on="1"/>
        <pt x="270" y="469" on="0"/>
        <pt x="263" y="563" on="0"/>
        <pt x="241" y="587" on="0"/>
        <pt x="211" y="587" on="1"/>
      </contour>
      <contour>
        <pt x="161" y="131" on="0"/>
        <pt x="175" y="106" on="0"/>
        <pt x="188" y="103" on="1"/>
        <pt x="157" y="161" on="1"/>
      </contour>
    </TTGlyph>
    <TTGlyph name="R" xMin="43" yMin="0" xMax="403" yMax="688">
      <contour>
        <pt x="279" y="0" on="1"/>
        <pt x="221" y="245" on="1"/>
        <pt x="219" y="245" on="1"/>
        <pt x="164" y="245" on="1"/>
        <pt x="164" y="0" on="1"/>
        <pt x="43" y="0" on="1"/>
        <pt x="43" y="688" on="1"/>
        <pt x="232" y="688" on="1"/>
        <pt x="299" y="688" on="0"/>
        <pt x="366" y="638" on="0"/>
        <pt x="388" y="546" on="0"/>
        <pt x="388" y="467" on="1"/>
        <pt x="388" y="389" on="0"/>
        <pt x="366" y="296" on="0"/>
        <pt x="330" y="272" on="1"/>
        <pt x="403" y="0" on="1"/>
      </contour>
      <contour>
        <pt x="238" y="351" on="0"/>
        <pt x="261" y="368" on="0"/>
        <pt x="268" y="414" on="0"/>
        <pt x="268" y="465" on="1"/>
        <pt x="268" y="516" on="0"/>
        <pt x="261" y="562" on="0"/>
        <pt x="238" y="579" on="0"/>
        <pt x="212" y="579" on="1"/>
        <pt x="164" y="579" on="1"/>
        <pt x="164" y="351" on="1"/>
        <pt x="212" y="351" on="1"/>
      </contour>
    </TTGlyph>
    <TTGlyph name="R.ss01" xMin="43" yMin="0" xMax="391" yMax="688">
      <contour>
        <pt x="391" y="0" on="1"/>
        <pt x="273" y="0" on="1"/>
        <pt x="261" y="156" on="1"/>
        <pt x="258" y="198" on="0"/>
        <pt x="250" y="233" on="0"/>
        <pt x="226" y="250" on="0"/>
        <pt x="198" y="250" on="1"/>
        <pt x="164" y="250" on="1"/>
        <pt x="164" y="0" on="1"/>
        <pt x="43" y="0" on="1"/>
        <pt x="43" y="688" on="1"/>
        <pt x="234" y="688" on="1"/>
        <pt x="318" y="688" on="0"/>
        <pt x="388" y="597" on="0"/>
        <pt x="388" y="501" on="1"/>
        <pt x="388" y="414" on="0"/>
        <pt x="350" y="336" on="0"/>
        <pt x="308" y="319" on="1"/>
        <pt x="308" y="315" on="1"/>
        <pt x="333" y="306" on="0"/>
        <pt x="361" y="280" on="0"/>
        <pt x="378" y="225" on="0"/>
        <pt x="380" y="174" on="1"/>
      </contour>
      <contour>
        <pt x="237" y="355" on="0"/>
        <pt x="260" y="373" on="0"/>
        <pt x="268" y="419" on="0"/>
        <pt x="268" y="467" on="1"/>
        <pt x="268" y="517" on="0"/>
        <pt x="261" y="562" on="0"/>
        <pt x="238" y="579" on="0"/>
        <pt x="212" y="579" on="1"/>
        <pt x="164" y="579" on="1"/>
        <pt x="164" y="355" on="1"/>
        <pt x="212" y="355" on="1"/>
      </contour>
    </TTGlyph>
    <TTGlyph name="Racute" xMin="43" yMin="0" xMax="403" yMax="888">
      <component glyphName="R" x="0" y="0" flags="0x0"/>
      <component glyphName="acutecomb.case" x="313" y="0" flags="0x0"/>
    </TTGlyph>
    <TTGlyph name="Racute.ss01" xMin="43" yMin="0" xMax="391" yMax="888">
      <component glyphName="R.ss01" x="0" y="0" flags="0x0"/>
      <component glyphName="acutecomb.case" x="314" y="0" flags="0x0"/>
    </TTGlyph>
    <TTGlyph name="Rcaron" xMin="43" yMin="0" xMax="403" yMax="888">
      <component glyphName="R" x="0" y="0" flags="0x0"/>
      <component glyphName="uni030C.case" x="334" y="0" flags="0x0"/>
    </TTGlyph>
    <TTGlyph name="Rcaron.ss01" xMin="43" yMin="0" xMax="391" yMax="888">
      <component glyphName="R.ss01" x="0" y="0" flags="0x0"/>
      <component glyphName="uni030C.case" x="335" y="0" flags="0x0"/>
    </TTGlyph>
    <TTGlyph name="Rcommaaccent" xMin="43" yMin="-272" xMax="403" yMax="688">
      <component glyphName="R" x="0" y="0" flags="0x0"/>
      <component glyphName="uni0326" x="315" y="0" flags="0x0"/>
    </TTGlyph>
    <TTGlyph name="Rcommaaccent.ss01" xMin="43" yMin="-272" xMax="391" yMax="688">
      <component glyphName="R.ss01" x="0" y="0" flags="0x0"/>
      <component glyphName="uni0326" x="316" y="0" flags="0x0"/>
    </TTGlyph>
    <TTGlyph name="S" xMin="23" yMin="-8" xMax="347" yMax="696">
      <contour>
        <pt x="144" y="-8" on="0"/>
        <pt x="62" y="1" on="0"/>
        <pt x="33" y="9" on="1"/>
        <pt x="33" y="108" on="1"/>
        <pt x="106" y="101" on="0"/>
        <pt x="146" y="101" on="1"/>
        <pt x="174" y="101" on="0"/>
        <pt x="204" y="108" on="0"/>
        <pt x="213" y="118" on="1"/>
        <pt x="227" y="135" on="0"/>
        <pt x="227" y="192" on="1"/>
        <pt x="227" y="236" on="0"/>
        <pt x="220" y="272" on="0"/>
        <pt x="198" y="289" on="0"/>
        <pt x="169" y="295" on="1"/>
        <pt x="89" y="312" on="1"/>
        <pt x="51" y="320" on="0"/>
        <pt x="23" y="408" on="0"/>
        <pt x="23" y="492" on="1"/>
        <pt x="23" y="573" on="0"/>
        <pt x="63" y="662" on="0"/>
        <pt x="138" y="696" on="0"/>
        <pt x="197" y="696" on="1"/>
        <pt x="242" y="696" on="0"/>
        <pt x="315" y="684" on="0"/>
        <pt x="325" y="680" on="1"/>
        <pt x="325" y="580" on="1"/>
        <pt x="315" y="582" on="0"/>
        <pt x="262" y="587" on="0"/>
        <pt x="232" y="587" on="1"/>
        <pt x="200" y="587" on="0"/>
        <pt x="165" y="578" on="0"/>
        <pt x="157" y="568" on="1"/>
        <pt x="149" y="558" on="0"/>
        <pt x="144" y="526" on="0"/>
        <pt x="144" y="496" on="1"/>
        <pt x="144" y="461" on="0"/>
        <pt x="149" y="430" on="0"/>
        <pt x="165" y="416" on="0"/>
        <pt x="183" y="412" on="1"/>
        <pt x="252" y="396" on="1"/>
        <pt x="283" y="390" on="0"/>
        <pt x="324" y="360" on="0"/>
        <pt x="336" y="323" on="1"/>
        <pt x="347" y="287" on="0"/>
        <pt x="347" y="213" on="1"/>
        <pt x="347" y="122" on="0"/>
        <pt x="310" y="26" on="0"/>
        <pt x="239" y="-8" on="0"/>
        <pt x="179" y="-8" on="1"/>
      </contour>
    </TTGlyph>
    <TTGlyph name="Sacute" xMin="23" yMin="-8" xMax="347" yMax="888">
      <component glyphName="S" x="0" y="0" flags="0x0"/>
      <component glyphName="acutecomb.case" x="288" y="0" flags="0x0"/>
    </TTGlyph>
    <TTGlyph name="Sacute.loclPLK" xMin="23" yMin="-8" xMax="347" yMax="888">
      <component glyphName="S" x="0" y="0" flags="0x0"/>
      <component glyphName="acute.case.loclPLK" x="141" y="0" flags="0x0"/>
    </TTGlyph>
    <TTGlyph name="Scaron" xMin="23" yMin="-8" xMax="347" yMax="877">
      <component glyphName="S" x="0" y="0" flags="0x0"/>
      <component glyphName="caron" x="62" y="134" flags="0x4"/>
    </TTGlyph>
    <TTGlyph name="Scedilla" xMin="23" yMin="-189" xMax="347" yMax="696">
      <contour>
        <pt x="347" y="133" on="0"/>
        <pt x="319" y="41" on="0"/>
        <pt x="264" y="-1" on="0"/>
        <pt x="220" y="-6" on="1"/>
        <pt x="186" y="-189" on="1"/>
        <pt x="89" y="-189" on="1"/>
        <pt x="89" y="-184" on="1"/>
        <pt x="145" y="-7" on="1"/>
        <pt x="81" y="-4" on="0"/>
        <pt x="33" y="9" on="1"/>
        <pt x="33" y="108" on="1"/>
        <pt x="106" y="101" on="0"/>
        <pt x="146" y="101" on="1"/>
        <pt x="174" y="101" on="0"/>
        <pt x="204" y="108" on="0"/>
        <pt x="213" y="118" on="1"/>
        <pt x="227" y="135" on="0"/>
        <pt x="227" y="192" on="1"/>
        <pt x="227" y="236" on="0"/>
        <pt x="220" y="272" on="0"/>
        <pt x="198" y="289" on="0"/>
        <pt x="169" y="295" on="1"/>
        <pt x="89" y="312" on="1"/>
        <pt x="51" y="320" on="0"/>
        <pt x="23" y="408" on="0"/>
        <pt x="23" y="492" on="1"/>
        <pt x="23" y="573" on="0"/>
        <pt x="63" y="662" on="0"/>
        <pt x="138" y="696" on="0"/>
        <pt x="197" y="696" on="1"/>
        <pt x="242" y="696" on="0"/>
        <pt x="315" y="684" on="0"/>
        <pt x="325" y="680" on="1"/>
        <pt x="325" y="580" on="1"/>
        <pt x="315" y="582" on="0"/>
        <pt x="262" y="587" on="0"/>
        <pt x="232" y="587" on="1"/>
        <pt x="200" y="587" on="0"/>
        <pt x="165" y="578" on="0"/>
        <pt x="157" y="568" on="1"/>
        <pt x="149" y="558" on="0"/>
        <pt x="144" y="526" on="0"/>
        <pt x="144" y="496" on="1"/>
        <pt x="144" y="461" on="0"/>
        <pt x="149" y="430" on="0"/>
        <pt x="165" y="416" on="0"/>
        <pt x="183" y="412" on="1"/>
        <pt x="252" y="396" on="1"/>
        <pt x="283" y="390" on="0"/>
        <pt x="324" y="360" on="0"/>
        <pt x="336" y="323" on="1"/>
        <pt x="347" y="287" on="0"/>
        <pt x="347" y="213" on="1"/>
      </contour>
    </TTGlyph>
    <TTGlyph name="Scircumflex" xMin="23" yMin="-8" xMax="347" yMax="888">
      <component glyphName="S" x="0" y="0" flags="0x0"/>
      <component glyphName="uni0302.case" x="309" y="0" flags="0x0"/>
    </TTGlyph>
    <TTGlyph name="Scommaaccent" xMin="23" yMin="-272" xMax="347" yMax="696">
      <component glyphName="S" x="0" y="0" flags="0x0"/>
      <component glyphName="uni0326" x="290" y="0" flags="0x0"/>
    </TTGlyph>
    <TTGlyph name="T" xMin="7" yMin="0" xMax="342" yMax="688">
      <contour>
        <pt x="114" y="577" on="1"/>
        <pt x="7" y="577" on="1"/>
        <pt x="7" y="688" on="1"/>
        <pt x="342" y="688" on="1"/>
        <pt x="342" y="577" on="1"/>
        <pt x="235" y="577" on="1"/>
        <pt x="235" y="0" on="1"/>
        <pt x="114" y="0" on="1"/>
      </contour>
    </TTGlyph>
    <TTGlyph name="Tbar" xMin="7" yMin="0" xMax="342" yMax="688">
      <contour>
        <pt x="235" y="577" on="1"/>
        <pt x="235" y="402" on="1"/>
        <pt x="315" y="402" on="1"/>
        <pt x="315" y="305" on="1"/>
        <pt x="235" y="305" on="1"/>
        <pt x="235" y="0" on="1"/>
        <pt x="114" y="0" on="1"/>
        <pt x="114" y="305" on="1"/>
        <pt x="34" y="305" on="1"/>
        <pt x="34" y="402" on="1"/>
        <pt x="114" y="402" on="1"/>
        <pt x="114" y="577" on="1"/>
        <pt x="7" y="577" on="1"/>
        <pt x="7" y="688" on="1"/>
        <pt x="342" y="688" on="1"/>
        <pt x="342" y="577" on="1"/>
      </contour>
    </TTGlyph>
    <TTGlyph name="Tcaron" xMin="7" yMin="0" xMax="342" yMax="888">
      <component glyphName="T" x="0" y="0" flags="0x0"/>
      <component glyphName="uni030C.case" x="299" y="0" flags="0x0"/>
    </TTGlyph>
    <TTGlyph name="Thorn" xMin="43" yMin="0" xMax="385" yMax="688">
      <contour>
        <pt x="43" y="688" on="1"/>
        <pt x="164" y="688" on="1"/>
        <pt x="164" y="583" on="1"/>
        <pt x="228" y="583" on="1"/>
        <pt x="295" y="583" on="0"/>
        <pt x="363" y="531" on="0"/>
        <pt x="385" y="434" on="0"/>
        <pt x="385" y="352" on="1"/>
        <pt x="385" y="273" on="0"/>
        <pt x="364" y="176" on="0"/>
        <pt x="296" y="120" on="0"/>
        <pt x="228" y="120" on="1"/>
        <pt x="164" y="120" on="1"/>
        <pt x="164" y="0" on="1"/>
        <pt x="43" y="0" on="1"/>
      </contour>
      <contour>
        <pt x="208" y="229" on="1"/>
        <pt x="234" y="229" on="0"/>
        <pt x="257" y="248" on="0"/>
        <pt x="264" y="296" on="0"/>
        <pt x="264" y="352" on="1"/>
        <pt x="264" y="408" on="0"/>
        <pt x="257" y="456" on="0"/>
        <pt x="234" y="474" on="0"/>
        <pt x="208" y="474" on="1"/>
        <pt x="164" y="474" on="1"/>
        <pt x="164" y="229" on="1"/>
      </contour>
    </TTGlyph>
    <TTGlyph name="U" xMin="39" yMin="-8" xMax="387" yMax="688">
      <contour>
        <pt x="387" y="688" on="1"/>
        <pt x="387" y="303" on="1"/>
        <pt x="387" y="166" on="0"/>
        <pt x="369" y="47" on="0"/>
        <pt x="297" y="-8" on="0"/>
        <pt x="213" y="-8" on="1"/>
        <pt x="129" y="-8" on="0"/>
        <pt x="57" y="47" on="0"/>
        <pt x="39" y="166" on="0"/>
        <pt x="39" y="303" on="1"/>
        <pt x="39" y="688" on="1"/>
        <pt x="159" y="688" on="1"/>
        <pt x="159" y="256" on="1"/>
        <pt x="159" y="179" on="0"/>
        <pt x="165" y="120" on="0"/>
        <pt x="186" y="101" on="0"/>
        <pt x="213" y="101" on="1"/>
        <pt x="240" y="101" on="0"/>
        <pt x="261" y="120" on="0"/>
        <pt x="267" y="178" on="0"/>
        <pt x="267" y="256" on="1"/>
        <pt x="267" y="688" on="1"/>
      </contour>
    </TTGlyph>
    <TTGlyph name="Uacute" xMin="39" yMin="-8" xMax="387" yMax="895">
      <component glyphName="U" x="0" y="0" flags="0x0"/>
      <component glyphName="acute" x="165" y="152" flags="0x4"/>
    </TTGlyph>
    <TTGlyph name="Ubreve" xMin="39" yMin="-8" xMax="387" yMax="888">
      <component glyphName="U" x="0" y="0" flags="0x0"/>
      <component glyphName="uni0306.case" x="331" y="0" flags="0x0"/>
    </TTGlyph>
    <TTGlyph name="Ucircumflex" xMin="39" yMin="-8" xMax="387" yMax="877">
      <component glyphName="U" x="0" y="0" flags="0x0"/>
      <component glyphName="circumflex" x="88" y="134" flags="0x4"/>
    </TTGlyph>
    <TTGlyph name="Udieresis" xMin="39" yMin="-8" xMax="387" yMax="872">
      <component glyphName="U" x="0" y="0" flags="0x0"/>
      <component glyphName="dieresis" x="74" y="142" flags="0x4"/>
    </TTGlyph>
    <TTGlyph name="Ugrave" xMin="39" yMin="-8" xMax="387" yMax="895">
      <component glyphName="U" x="0" y="0" flags="0x0"/>
      <component glyphName="grave" x="117" y="152" flags="0x4"/>
    </TTGlyph>
    <TTGlyph name="Uhorn" xMin="39" yMin="-8" xMax="447" yMax="779">
      <contour>
        <pt x="447" y="779" on="1"/>
        <pt x="447" y="758" on="1"/>
        <pt x="447" y="699" on="0"/>
        <pt x="424" y="648" on="0"/>
        <pt x="387" y="639" on="1"/>
        <pt x="387" y="303" on="1"/>
        <pt x="387" y="166" on="0"/>
        <pt x="369" y="47" on="0"/>
        <pt x="297" y="-8" on="0"/>
        <pt x="213" y="-8" on="1"/>
        <pt x="129" y="-8" on="0"/>
        <pt x="57" y="47" on="0"/>
        <pt x="39" y="166" on="0"/>
        <pt x="39" y="303" on="1"/>
        <pt x="39" y="688" on="1"/>
        <pt x="159" y="688" on="1"/>
        <pt x="159" y="256" on="1"/>
        <pt x="159" y="179" on="0"/>
        <pt x="165" y="120" on="0"/>
        <pt x="186" y="101" on="0"/>
        <pt x="213" y="101" on="1"/>
        <pt x="240" y="101" on="0"/>
        <pt x="261" y="120" on="0"/>
        <pt x="267" y="178" on="0"/>
        <pt x="267" y="256" on="1"/>
        <pt x="267" y="688" on="1"/>
        <pt x="323" y="688" on="1"/>
        <pt x="353" y="688" on="0"/>
        <pt x="373" y="712" on="0"/>
        <pt x="373" y="743" on="1"/>
        <pt x="373" y="779" on="1"/>
      </contour>
    </TTGlyph>
    <TTGlyph name="Uhungarumlaut" xMin="39" yMin="-8" xMax="387" yMax="874">
      <component glyphName="U" x="0" y="0" flags="0x0"/>
      <component glyphName="uni030B.case" x="369" y="0" flags="0x0"/>
    </TTGlyph>
    <TTGlyph name="Umacron" xMin="39" yMin="-8" xMax="387" yMax="888">
      <component glyphName="U" x="0" y="0" flags="0x0"/>
      <component glyphName="uni0304.case" x="348" y="0" flags="0x0"/>
    </TTGlyph>
    <TTGlyph name="Uogonek" xMin="39" yMin="-196" xMax="387" yMax="688">
      <contour>
        <pt x="387" y="688" on="1"/>
        <pt x="387" y="303" on="1"/>
        <pt x="387" y="211" on="0"/>
        <pt x="381" y="109" on="0"/>
        <pt x="358" y="39" on="0"/>
        <pt x="333" y="20" on="1"/>
        <pt x="306" y="0" on="0"/>
        <pt x="271" y="-57" on="0"/>
        <pt x="271" y="-91" on="1"/>
        <pt x="271" y="-131" on="0"/>
        <pt x="309" y="-131" on="1"/>
        <pt x="321" y="-130" on="1"/>
        <pt x="321" y="-192" on="1"/>
        <pt x="305" y="-196" on="0"/>
        <pt x="276" y="-196" on="1"/>
        <pt x="228" y="-196" on="0"/>
        <pt x="184" y="-148" on="0"/>
        <pt x="184" y="-110" on="1"/>
        <pt x="184" y="-86" on="0"/>
        <pt x="207" y="-33" on="0"/>
        <pt x="227" y="-8" on="1"/>
        <pt x="213" y="-8" on="1"/>
        <pt x="129" y="-8" on="0"/>
        <pt x="57" y="47" on="0"/>
        <pt x="39" y="166" on="0"/>
        <pt x="39" y="303" on="1"/>
        <pt x="39" y="688" on="1"/>
        <pt x="159" y="688" on="1"/>
        <pt x="159" y="256" on="1"/>
        <pt x="159" y="179" on="0"/>
        <pt x="165" y="120" on="0"/>
        <pt x="186" y="101" on="0"/>
        <pt x="213" y="101" on="1"/>
        <pt x="240" y="101" on="0"/>
        <pt x="261" y="120" on="0"/>
        <pt x="267" y="178" on="0"/>
        <pt x="267" y="256" on="1"/>
        <pt x="267" y="688" on="1"/>
      </contour>
    </TTGlyph>
    <TTGlyph name="Uring" xMin="39" yMin="-8" xMax="387" yMax="936">
      <component glyphName="U" x="0" y="0" flags="0x0"/>
      <component glyphName="uni030A.case" x="327" y="0" flags="0x0"/>
    </TTGlyph>
    <TTGlyph name="Utilde" xMin="39" yMin="-8" xMax="387" yMax="888">
      <component glyphName="U" x="0" y="0" flags="0x0"/>
      <component glyphName="tildecomb.case" x="349" y="0" flags="0x0"/>
    </TTGlyph>
    <TTGlyph name="V" xMin="8" yMin="0" xMax="396" yMax="688">
      <contour>
        <pt x="8" y="688" on="1"/>
        <pt x="130" y="688" on="1"/>
        <pt x="200" y="130" on="1"/>
        <pt x="209" y="130" on="1"/>
        <pt x="277" y="688" on="1"/>
        <pt x="396" y="688" on="1"/>
        <pt x="291" y="0" on="1"/>
        <pt x="113" y="0" on="1"/>
      </contour>
    </TTGlyph>
    <TTGlyph name="W" xMin="13" yMin="0" xMax="630" yMax="688">
      <contour>
        <pt x="324" y="502" on="1"/>
        <pt x="318" y="502" on="1"/>
        <pt x="259" y="0" on="1"/>
        <pt x="91" y="0" on="1"/>
        <pt x="13" y="688" on="1"/>
        <pt x="135" y="688" on="1"/>
        <pt x="179" y="131" on="1"/>
        <pt x="186" y="131" on="1"/>
        <pt x="250" y="688" on="1"/>
        <pt x="397" y="688" on="1"/>
        <pt x="463" y="131" on="1"/>
        <pt x="470" y="131" on="1"/>
        <pt x="512" y="688" on="1"/>
        <pt x="630" y="688" on="1"/>
        <pt x="552" y="0" on="1"/>
        <pt x="384" y="0" on="1"/>
      </contour>
    </TTGlyph>
    <TTGlyph name="Wacute" xMin="13" yMin="0" xMax="630" yMax="888">
      <component glyphName="W" x="0" y="0" flags="0x0"/>
      <component glyphName="acutecomb.case" x="426" y="0" flags="0x0"/>
    </TTGlyph>
    <TTGlyph name="Wcircumflex" xMin="13" yMin="0" xMax="630" yMax="888">
      <component glyphName="W" x="0" y="0" flags="0x0"/>
      <component glyphName="uni0302.case" x="447" y="0" flags="0x0"/>
    </TTGlyph>
    <TTGlyph name="Wdieresis" xMin="13" yMin="0" xMax="630" yMax="875">
      <component glyphName="W" x="0" y="0" flags="0x0"/>
      <component glyphName="uni0308.case" x="462" y="0" flags="0x0"/>
    </TTGlyph>
    <TTGlyph name="Wgrave" xMin="13" yMin="0" xMax="630" yMax="888">
      <component glyphName="W" x="0" y="0" flags="0x0"/>
      <component glyphName="gravecomb.case" x="369" y="0" flags="0x0"/>
    </TTGlyph>
    <TTGlyph name="X" xMin="9" yMin="0" xMax="412" yMax="688">
      <contour>
        <pt x="213" y="261" on="1"/>
        <pt x="205" y="261" on="1"/>
        <pt x="132" y="0" on="1"/>
        <pt x="9" y="0" on="1"/>
        <pt x="123" y="346" on="1"/>
        <pt x="11" y="688" on="1"/>
        <pt x="137" y="688" on="1"/>
        <pt x="208" y="437" on="1"/>
        <pt x="215" y="437" on="1"/>
        <pt x="287" y="688" on="1"/>
        <pt x="410" y="688" on="1"/>
        <pt x="298" y="350" on="1"/>
        <pt x="412" y="0" on="1"/>
        <pt x="285" y="0" on="1"/>
      </contour>
    </TTGlyph>
    <TTGlyph name="Y" xMin="-1" yMin="0" xMax="388" yMax="688">
      <contour>
        <pt x="133" y="246" on="1"/>
        <pt x="-1" y="688" on="1"/>
        <pt x="120" y="688" on="1"/>
        <pt x="192" y="381" on="1"/>
        <pt x="202" y="381" on="1"/>
        <pt x="271" y="688" on="1"/>
        <pt x="388" y="688" on="1"/>
        <pt x="254" y="246" on="1"/>
        <pt x="254" y="0" on="1"/>
        <pt x="133" y="0" on="1"/>
      </contour>
    </TTGlyph>
    <TTGlyph name="Y.loclGUA" xMin="21" yMin="0" xMax="369" yMax="688">
      <contour>
        <pt x="369" y="688" on="1"/>
        <pt x="369" y="505" on="1"/>
        <pt x="369" y="386" on="0"/>
        <pt x="357" y="271" on="0"/>
        <pt x="308" y="208" on="0"/>
        <pt x="254" y="199" on="1"/>
        <pt x="254" y="0" on="1"/>
        <pt x="133" y="0" on="1"/>
        <pt x="133" y="200" on="1"/>
        <pt x="80" y="209" on="0"/>
        <pt x="33" y="273" on="0"/>
        <pt x="21" y="387" on="0"/>
        <pt x="21" y="505" on="1"/>
        <pt x="21" y="688" on="1"/>
        <pt x="141" y="688" on="1"/>
        <pt x="141" y="459" on="1"/>
        <pt x="141" y="382" on="0"/>
        <pt x="147" y="323" on="0"/>
        <pt x="168" y="304" on="0"/>
        <pt x="195" y="304" on="1"/>
        <pt x="222" y="304" on="0"/>
        <pt x="243" y="323" on="0"/>
        <pt x="249" y="382" on="0"/>
        <pt x="249" y="459" on="1"/>
        <pt x="249" y="688" on="1"/>
      </contour>
    </TTGlyph>
    <TTGlyph name="Yacute" xMin="-1" yMin="0" xMax="388" yMax="895">
      <component glyphName="Y" x="0" y="0" flags="0x0"/>
      <component glyphName="acute" x="149" y="152" flags="0x4"/>
    </TTGlyph>
    <TTGlyph name="Yacute.loclGUA" xMin="21" yMin="0" xMax="369" yMax="888">
      <component glyphName="Y.loclGUA" x="0" y="0" flags="0x0"/>
      <component glyphName="acutecomb.case" x="299" y="0" flags="0x0"/>
    </TTGlyph>
    <TTGlyph name="Ycircumflex" xMin="-1" yMin="0" xMax="388" yMax="888">
      <component glyphName="Y" x="0" y="0" flags="0x0"/>
      <component glyphName="uni0302.case" x="319" y="0" flags="0x0"/>
    </TTGlyph>
    <TTGlyph name="Ycircumflex.loclGUA" xMin="21" yMin="0" xMax="369" yMax="888">
      <component glyphName="Y.loclGUA" x="0" y="0" flags="0x0"/>
      <component glyphName="uni0302.case" x="320" y="0" flags="0x0"/>
    </TTGlyph>
    <TTGlyph name="Ydieresis" xMin="-1" yMin="0" xMax="388" yMax="872">
      <component glyphName="Y" x="0" y="0" flags="0x0"/>
      <component glyphName="dieresis" x="57" y="142" flags="0x4"/>
    </TTGlyph>
    <TTGlyph name="Ydieresis.loclGUA" xMin="21" yMin="0" xMax="369" yMax="875">
      <component glyphName="Y.loclGUA" x="0" y="0" flags="0x0"/>
      <component glyphName="uni0308.case" x="335" y="0" flags="0x0"/>
    </TTGlyph>
    <TTGlyph name="Ygrave" xMin="-1" yMin="0" xMax="388" yMax="888">
      <component glyphName="Y" x="0" y="0" flags="0x0"/>
      <component glyphName="gravecomb.case" x="241" y="0" flags="0x0"/>
    </TTGlyph>
    <TTGlyph name="Ygrave.loclGUA" xMin="21" yMin="0" xMax="369" yMax="888">
      <component glyphName="Y.loclGUA" x="0" y="0" flags="0x0"/>
      <component glyphName="gravecomb.case" x="242" y="0" flags="0x0"/>
    </TTGlyph>
    <TTGlyph name="Z" xMin="24" yMin="0" xMax="337" yMax="688">
      <contour>
        <pt x="24" y="102" on="1"/>
        <pt x="207" y="579" on="1"/>
        <pt x="29" y="579" on="1"/>
        <pt x="29" y="688" on="1"/>
        <pt x="336" y="688" on="1"/>
        <pt x="336" y="587" on="1"/>
        <pt x="152" y="109" on="1"/>
        <pt x="337" y="109" on="1"/>
        <pt x="337" y="0" on="1"/>
        <pt x="24" y="0" on="1"/>
      </contour>
    </TTGlyph>
    <TTGlyph name="Zacute" xMin="24" yMin="0" xMax="337" yMax="888">
      <component glyphName="Z" x="0" y="0" flags="0x0"/>
      <component glyphName="acutecomb.case" x="285" y="0" flags="0x0"/>
    </TTGlyph>
    <TTGlyph name="Zacute.loclPLK" xMin="24" yMin="0" xMax="337" yMax="888">
      <component glyphName="Z" x="0" y="0" flags="0x0"/>
      <component glyphName="acute.case.loclPLK" x="138" y="0" flags="0x0"/>
    </TTGlyph>
    <TTGlyph name="Zcaron" xMin="24" yMin="0" xMax="337" yMax="878">
      <component glyphName="Z" x="0" y="0" flags="0x0"/>
      <component glyphName="caron" x="62" y="135" flags="0x4"/>
    </TTGlyph>
    <TTGlyph name="Zdotaccent" xMin="24" yMin="0" xMax="337" yMax="875">
      <component glyphName="Z" x="0" y="0" flags="0x0"/>
      <component glyphName="uni0307.case" x="233" y="0" flags="0x0"/>
    </TTGlyph>
    <TTGlyph name="a" xMin="20" yMin="-8" xMax="333" yMax="518">
      <contour>
        <pt x="66" y="-8" on="0"/>
        <pt x="20" y="65" on="0"/>
        <pt x="20" y="147" on="1"/>
        <pt x="20" y="205" on="0"/>
        <pt x="42" y="271" on="0"/>
        <pt x="93" y="301" on="0"/>
        <pt x="139" y="301" on="1"/>
        <pt x="176" y="301" on="0"/>
        <pt x="220" y="297" on="1"/>
        <pt x="220" y="325" on="1"/>
        <pt x="220" y="372" on="0"/>
        <pt x="210" y="410" on="0"/>
        <pt x="178" y="422" on="0"/>
        <pt x="139" y="422" on="1"/>
        <pt x="95" y="422" on="0"/>
        <pt x="41" y="415" on="1"/>
        <pt x="41" y="505" on="1"/>
        <pt x="102" y="518" on="0"/>
        <pt x="174" y="518" on="1"/>
        <pt x="238" y="518" on="0"/>
        <pt x="306" y="481" on="0"/>
        <pt x="333" y="395" on="0"/>
        <pt x="333" y="316" on="1"/>
        <pt x="333" y="0" on="1"/>
        <pt x="226" y="0" on="1"/>
        <pt x="222" y="62" on="1"/>
        <pt x="215" y="62" on="1"/>
        <pt x="207" y="26" on="0"/>
        <pt x="158" y="-8" on="0"/>
        <pt x="126" y="-8" on="1"/>
      </contour>
      <contour>
        <pt x="187" y="94" on="0"/>
        <pt x="209" y="104" on="0"/>
        <pt x="214" y="120" on="1"/>
        <pt x="220" y="146" on="0"/>
        <pt x="220" y="192" on="1"/>
        <pt x="220" y="223" on="1"/>
        <pt x="170" y="223" on="1"/>
        <pt x="145" y="223" on="0"/>
        <pt x="128" y="197" on="0"/>
        <pt x="128" y="156" on="1"/>
        <pt x="128" y="120" on="0"/>
        <pt x="143" y="94" on="0"/>
        <pt x="169" y="94" on="1"/>
      </contour>
    </TTGlyph>
    <TTGlyph name="aacute" xMin="20" yMin="-8" xMax="333" yMax="743">
      <component glyphName="a" x="0" y="0" flags="0x0"/>
      <component glyphName="acute" x="138" y="0" flags="0x0"/>
    </TTGlyph>
    <TTGlyph name="abreve" xMin="20" yMin="-8" xMax="333" yMax="743">
      <component glyphName="a" x="0" y="0" flags="0x0"/>
      <component glyphName="uni0306" x="303" y="0" flags="0x0"/>
    </TTGlyph>
    <TTGlyph name="acircumflex" xMin="20" yMin="-8" xMax="333" yMax="743">
      <component glyphName="a" x="0" y="0" flags="0x0"/>
      <component glyphName="circumflex" x="62" y="0" flags="0x0"/>
    </TTGlyph>
    <TTGlyph name="acute" xMin="0" yMin="598" xMax="147" yMax="743">
      <contour>
        <pt x="0" y="603" on="1"/>
        <pt x="36" y="743" on="1"/>
        <pt x="147" y="743" on="1"/>
        <pt x="147" y="738" on="1"/>
        <pt x="92" y="598" on="1"/>
        <pt x="0" y="598" on="1"/>
      </contour>
    </TTGlyph>
    <TTGlyph name="acute.case.loclPLK" xMin="0" yMin="743" xMax="127" yMax="888">
      <contour>
        <pt x="0" y="748" on="1"/>
        <pt x="16" y="888" on="1"/>
        <pt x="127" y="888" on="1"/>
        <pt x="127" y="883" on="1"/>
        <pt x="92" y="743" on="1"/>
        <pt x="0" y="743" on="1"/>
      </contour>
    </TTGlyph>
    <TTGlyph name="acute.loclPLK" xMin="0" yMin="598" xMax="127" yMax="743">
      <contour>
        <pt x="0" y="603" on="1"/>
        <pt x="16" y="743" on="1"/>
        <pt x="127" y="743" on="1"/>
        <pt x="127" y="738" on="1"/>
        <pt x="92" y="598" on="1"/>
        <pt x="0" y="598" on="1"/>
      </contour>
    </TTGlyph>
    <TTGlyph name="acutecomb" xMin="-147" yMin="598" xMax="0" yMax="743">
      <contour>
        <pt x="-147" y="603" on="1"/>
        <pt x="-111" y="743" on="1"/>
        <pt x="0" y="743" on="1"/>
        <pt x="0" y="738" on="1"/>
        <pt x="-55" y="598" on="1"/>
        <pt x="-147" y="598" on="1"/>
      </contour>
    </TTGlyph>
    <TTGlyph name="acutecomb.case" xMin="-147" yMin="743" xMax="0" yMax="888">
      <contour>
        <pt x="-147" y="748" on="1"/>
        <pt x="-111" y="888" on="1"/>
        <pt x="0" y="888" on="1"/>
        <pt x="0" y="883" on="1"/>
        <pt x="-55" y="743" on="1"/>
        <pt x="-147" y="743" on="1"/>
      </contour>
    </TTGlyph>
    <TTGlyph name="adieresis" xMin="20" yMin="-8" xMax="333" yMax="730">
      <component glyphName="a" x="0" y="0" flags="0x0"/>
      <component glyphName="dieresis" x="48" y="0" flags="0x0"/>
    </TTGlyph>
    <TTGlyph name="ae" xMin="20" yMin="-8" xMax="532" yMax="518">
      <contour>
        <pt x="532" y="222" on="1"/>
        <pt x="333" y="222" on="1"/>
        <pt x="333" y="157" on="0"/>
        <pt x="342" y="106" on="0"/>
        <pt x="373" y="88" on="0"/>
        <pt x="413" y="88" on="1"/>
        <pt x="453" y="88" on="0"/>
        <pt x="523" y="95" on="1"/>
        <pt x="523" y="6" on="1"/>
        <pt x="498" y="0" on="0"/>
        <pt x="422" y="-8" on="0"/>
        <pt x="387" y="-8" on="1"/>
        <pt x="343" y="-8" on="0"/>
        <pt x="287" y="14" on="0"/>
        <pt x="270" y="40" on="1"/>
        <pt x="233" y="-8" on="0"/>
        <pt x="148" y="-8" on="1"/>
        <pt x="75" y="-8" on="0"/>
        <pt x="20" y="64" on="0"/>
        <pt x="20" y="146" on="1"/>
        <pt x="20" y="204" on="0"/>
        <pt x="42" y="270" on="0"/>
        <pt x="93" y="300" on="0"/>
        <pt x="139" y="300" on="1"/>
        <pt x="151" y="300" on="0"/>
        <pt x="220" y="297" on="1"/>
        <pt x="220" y="325" on="1"/>
        <pt x="220" y="372" on="0"/>
        <pt x="210" y="410" on="0"/>
        <pt x="178" y="422" on="0"/>
        <pt x="139" y="422" on="1"/>
        <pt x="97" y="422" on="0"/>
        <pt x="41" y="415" on="1"/>
        <pt x="41" y="505" on="1"/>
        <pt x="104" y="518" on="0"/>
        <pt x="174" y="518" on="1"/>
        <pt x="211" y="518" on="0"/>
        <pt x="261" y="500" on="0"/>
        <pt x="278" y="479" on="1"/>
        <pt x="310" y="518" on="0"/>
        <pt x="382" y="518" on="1"/>
        <pt x="454" y="518" on="0"/>
        <pt x="517" y="468" on="0"/>
        <pt x="532" y="369" on="0"/>
        <pt x="532" y="256" on="1"/>
      </contour>
      <contour>
        <pt x="359" y="422" on="0"/>
        <pt x="340" y="407" on="0"/>
        <pt x="333" y="358" on="0"/>
        <pt x="333" y="300" on="1"/>
        <pt x="427" y="300" on="1"/>
        <pt x="427" y="304" on="1"/>
        <pt x="427" y="360" on="0"/>
        <pt x="420" y="408" on="0"/>
        <pt x="402" y="422" on="0"/>
        <pt x="381" y="422" on="1"/>
      </contour>
      <contour>
        <pt x="220" y="222" on="1"/>
        <pt x="169" y="222" on="1"/>
        <pt x="145" y="222" on="0"/>
        <pt x="128" y="197" on="0"/>
        <pt x="128" y="156" on="1"/>
        <pt x="128" y="116" on="0"/>
        <pt x="143" y="88" on="0"/>
        <pt x="169" y="88" on="1"/>
        <pt x="188" y="88" on="0"/>
        <pt x="210" y="102" on="0"/>
        <pt x="215" y="121" on="1"/>
        <pt x="220" y="144" on="0"/>
        <pt x="220" y="189" on="1"/>
      </contour>
    </TTGlyph>
    <TTGlyph name="aeacute" xMin="20" yMin="-8" xMax="532" yMax="743">
      <component glyphName="ae" x="0" y="0" flags="0x0"/>
      <component glyphName="acutecomb" x="379" y="0" flags="0x0"/>
    </TTGlyph>
    <TTGlyph name="agrave" xMin="20" yMin="-8" xMax="333" yMax="743">
      <component glyphName="a" x="0" y="0" flags="0x0"/>
      <component glyphName="grave" x="91" y="0" flags="0x0"/>
    </TTGlyph>
    <TTGlyph name="amacron" xMin="20" yMin="-8" xMax="333" yMax="743">
      <component glyphName="a" x="0" y="0" flags="0x0"/>
      <component glyphName="uni0304" x="320" y="0" flags="0x0"/>
    </TTGlyph>
    <TTGlyph name="ampersand" xMin="35" yMin="-8" xMax="448" yMax="696">
      <contour>
        <pt x="448" y="397" on="1"/>
        <pt x="448" y="298" on="1"/>
        <pt x="384" y="298" on="1"/>
        <pt x="384" y="9" on="1"/>
        <pt x="349" y="2" on="0"/>
        <pt x="258" y="-8" on="0"/>
        <pt x="223" y="-8" on="1"/>
        <pt x="153" y="-8" on="0"/>
        <pt x="72" y="29" on="0"/>
        <pt x="35" y="111" on="0"/>
        <pt x="35" y="181" on="1"/>
        <pt x="35" y="263" on="0"/>
        <pt x="76" y="336" on="0"/>
        <pt x="121" y="349" on="1"/>
        <pt x="121" y="353" on="1"/>
        <pt x="80" y="366" on="0"/>
        <pt x="40" y="444" on="0"/>
        <pt x="40" y="519" on="1"/>
        <pt x="40" y="618" on="0"/>
        <pt x="131" y="696" on="0"/>
        <pt x="231" y="696" on="1"/>
        <pt x="264" y="696" on="0"/>
        <pt x="349" y="686" on="0"/>
        <pt x="384" y="679" on="1"/>
        <pt x="384" y="590" on="1"/>
        <pt x="328" y="597" on="0"/>
        <pt x="268" y="597" on="1"/>
        <pt x="215" y="597" on="0"/>
        <pt x="170" y="583" on="0"/>
        <pt x="155" y="543" on="0"/>
        <pt x="155" y="497" on="1"/>
        <pt x="155" y="440" on="0"/>
        <pt x="176" y="397" on="0"/>
        <pt x="212" y="397" on="1"/>
        <pt x="232" y="397" on="1"/>
        <pt x="232" y="298" on="1"/>
        <pt x="212" y="298" on="1"/>
        <pt x="186" y="298" on="0"/>
        <pt x="159" y="281" on="0"/>
        <pt x="148" y="237" on="0"/>
        <pt x="148" y="193" on="1"/>
        <pt x="148" y="146" on="0"/>
        <pt x="164" y="104" on="0"/>
        <pt x="203" y="91" on="0"/>
        <pt x="246" y="91" on="1"/>
        <pt x="262" y="91" on="0"/>
        <pt x="271" y="92" on="1"/>
        <pt x="271" y="397" on="1"/>
      </contour>
    </TTGlyph>
    <TTGlyph name="aogonek" xMin="20" yMin="-196" xMax="334" yMax="518">
      <contour>
        <pt x="334" y="-130" on="1"/>
        <pt x="334" y="-192" on="1"/>
        <pt x="318" y="-196" on="0"/>
        <pt x="291" y="-196" on="1"/>
        <pt x="242" y="-196" on="0"/>
        <pt x="198" y="-149" on="0"/>
        <pt x="198" y="-114" on="1"/>
        <pt x="198" y="-83" on="0"/>
        <pt x="228" y="-25" on="0"/>
        <pt x="253" y="0" on="1"/>
        <pt x="226" y="0" on="1"/>
        <pt x="222" y="62" on="1"/>
        <pt x="215" y="62" on="1"/>
        <pt x="207" y="26" on="0"/>
        <pt x="158" y="-8" on="0"/>
        <pt x="126" y="-8" on="1"/>
        <pt x="66" y="-8" on="0"/>
        <pt x="20" y="65" on="0"/>
        <pt x="20" y="147" on="1"/>
        <pt x="20" y="205" on="0"/>
        <pt x="42" y="271" on="0"/>
        <pt x="93" y="301" on="0"/>
        <pt x="139" y="301" on="1"/>
        <pt x="176" y="301" on="0"/>
        <pt x="220" y="297" on="1"/>
        <pt x="220" y="325" on="1"/>
        <pt x="220" y="372" on="0"/>
        <pt x="210" y="410" on="0"/>
        <pt x="178" y="422" on="0"/>
        <pt x="139" y="422" on="1"/>
        <pt x="112" y="422" on="0"/>
        <pt x="55" y="417" on="0"/>
        <pt x="41" y="415" on="1"/>
        <pt x="41" y="505" on="1"/>
        <pt x="102" y="518" on="0"/>
        <pt x="174" y="518" on="1"/>
        <pt x="238" y="518" on="0"/>
        <pt x="306" y="481" on="0"/>
        <pt x="333" y="395" on="0"/>
        <pt x="333" y="316" on="1"/>
        <pt x="333" y="0" on="1"/>
        <pt x="316" y="-17" on="0"/>
        <pt x="285" y="-69" on="0"/>
        <pt x="285" y="-94" on="1"/>
        <pt x="285" y="-131" on="0"/>
        <pt x="322" y="-131" on="1"/>
      </contour>
      <contour>
        <pt x="220" y="223" on="1"/>
        <pt x="170" y="223" on="1"/>
        <pt x="145" y="223" on="0"/>
        <pt x="128" y="197" on="0"/>
        <pt x="128" y="156" on="1"/>
        <pt x="128" y="120" on="0"/>
        <pt x="143" y="94" on="0"/>
        <pt x="169" y="94" on="1"/>
        <pt x="187" y="94" on="0"/>
        <pt x="209" y="104" on="0"/>
        <pt x="214" y="120" on="1"/>
        <pt x="220" y="146" on="0"/>
        <pt x="220" y="192" on="1"/>
      </contour>
    </TTGlyph>
    <TTGlyph name="approxequal" xMin="52" yMin="104" xMax="386" yMax="401">
      <contour>
        <pt x="52" y="314" on="0"/>
        <pt x="61" y="364" on="0"/>
        <pt x="96" y="391" on="0"/>
        <pt x="133" y="391" on="1"/>
        <pt x="167" y="391" on="0"/>
        <pt x="233" y="374" on="1"/>
        <pt x="255" y="369" on="1"/>
        <pt x="281" y="362" on="0"/>
        <pt x="294" y="362" on="1"/>
        <pt x="309" y="362" on="0"/>
        <pt x="317" y="378" on="0"/>
        <pt x="317" y="401" on="1"/>
        <pt x="386" y="401" on="1"/>
        <pt x="386" y="353" on="0"/>
        <pt x="378" y="305" on="0"/>
        <pt x="343" y="278" on="0"/>
        <pt x="306" y="278" on="1"/>
        <pt x="268" y="278" on="0"/>
        <pt x="206" y="294" on="1"/>
        <pt x="202" y="295" on="0"/>
        <pt x="158" y="306" on="0"/>
        <pt x="144" y="306" on="1"/>
        <pt x="130" y="306" on="0"/>
        <pt x="122" y="290" on="0"/>
        <pt x="122" y="267" on="1"/>
        <pt x="52" y="267" on="1"/>
      </contour>
      <contour>
        <pt x="52" y="152" on="0"/>
        <pt x="61" y="201" on="0"/>
        <pt x="96" y="229" on="0"/>
        <pt x="133" y="229" on="1"/>
        <pt x="161" y="229" on="0"/>
        <pt x="225" y="214" on="0"/>
        <pt x="233" y="212" on="1"/>
        <pt x="238" y="211" on="0"/>
        <pt x="280" y="200" on="0"/>
        <pt x="294" y="200" on="1"/>
        <pt x="309" y="200" on="0"/>
        <pt x="317" y="216" on="0"/>
        <pt x="317" y="239" on="1"/>
        <pt x="386" y="239" on="1"/>
        <pt x="386" y="191" on="0"/>
        <pt x="378" y="142" on="0"/>
        <pt x="343" y="115" on="0"/>
        <pt x="306" y="115" on="1"/>
        <pt x="272" y="115" on="0"/>
        <pt x="206" y="132" on="1"/>
        <pt x="202" y="133" on="0"/>
        <pt x="158" y="144" on="0"/>
        <pt x="144" y="144" on="1"/>
        <pt x="130" y="144" on="0"/>
        <pt x="122" y="127" on="0"/>
        <pt x="122" y="104" on="1"/>
        <pt x="52" y="104" on="1"/>
      </contour>
    </TTGlyph>
    <TTGlyph name="aring" xMin="20" yMin="-8" xMax="333" yMax="802">
      <component glyphName="a" x="0" y="0" flags="0x0"/>
      <component glyphName="ring" x="70" y="-19" flags="0x4"/>
    </TTGlyph>
    <TTGlyph name="aringacute" xMin="20" yMin="-8" xMax="333" yMax="994">
      <component glyphName="a" x="0" y="0" flags="0x0"/>
      <component glyphName="uni030A" x="299" y="0" flags="0x0"/>
      <component glyphName="acutecomb" x="285" y="251" flags="0x4"/>
    </TTGlyph>
    <TTGlyph name="arrowboth" xMin="55" yMin="170" xMax="828" yMax="439">
      <contour>
        <pt x="55" y="304" on="1"/>
        <pt x="332" y="439" on="1"/>
        <pt x="300" y="354" on="1"/>
        <pt x="582" y="354" on="1"/>
        <pt x="551" y="439" on="1"/>
        <pt x="828" y="304" on="1"/>
        <pt x="551" y="170" on="1"/>
        <pt x="582" y="256" on="1"/>
        <pt x="300" y="256" on="1"/>
        <pt x="332" y="170" on="1"/>
      </contour>
    </TTGlyph>
    <TTGlyph name="arrowdown" xMin="63" yMin="-85" xMax="332" yMax="688">
      <contour>
        <pt x="63" y="192" on="1"/>
        <pt x="150" y="160" on="1"/>
        <pt x="150" y="688" on="1"/>
        <pt x="247" y="688" on="1"/>
        <pt x="247" y="160" on="1"/>
        <pt x="332" y="192" on="1"/>
        <pt x="198" y="-85" on="1"/>
      </contour>
    </TTGlyph>
    <TTGlyph name="arrowdown.ss01" xMin="30" yMin="171" xMax="315" yMax="456">
      <contour>
        <pt x="30" y="456" on="1"/>
        <pt x="315" y="456" on="1"/>
        <pt x="173" y="171" on="1"/>
      </contour>
    </TTGlyph>
    <TTGlyph name="arrowleft" xMin="55" yMin="170" xMax="828" yMax="439">
      <contour>
        <pt x="329" y="170" on="1"/>
        <pt x="55" y="304" on="1"/>
        <pt x="329" y="439" on="1"/>
        <pt x="298" y="354" on="1"/>
        <pt x="828" y="354" on="1"/>
        <pt x="828" y="256" on="1"/>
        <pt x="297" y="256" on="1"/>
      </contour>
    </TTGlyph>
    <TTGlyph name="arrowleft.ss01" xMin="30" yMin="201" xMax="315" yMax="486">
      <contour>
        <pt x="30" y="343" on="1"/>
        <pt x="315" y="486" on="1"/>
        <pt x="315" y="201" on="1"/>
      </contour>
    </TTGlyph>
    <TTGlyph name="arrowright" xMin="55" yMin="170" xMax="828" yMax="439">
      <contour>
        <pt x="582" y="256" on="1"/>
        <pt x="55" y="256" on="1"/>
        <pt x="55" y="354" on="1"/>
        <pt x="582" y="354" on="1"/>
        <pt x="551" y="439" on="1"/>
        <pt x="828" y="304" on="1"/>
        <pt x="551" y="170" on="1"/>
      </contour>
    </TTGlyph>
    <TTGlyph name="arrowright.ss01" xMin="48" yMin="201" xMax="333" yMax="486">
      <contour>
        <pt x="48" y="486" on="1"/>
        <pt x="333" y="343" on="1"/>
        <pt x="48" y="201" on="1"/>
      </contour>
    </TTGlyph>
    <TTGlyph name="arrowup" xMin="63" yMin="-82" xMax="332" yMax="691">
      <contour>
        <pt x="150" y="445" on="1"/>
        <pt x="63" y="414" on="1"/>
        <pt x="198" y="691" on="1"/>
        <pt x="332" y="414" on="1"/>
        <pt x="247" y="445" on="1"/>
        <pt x="247" y="-82" on="1"/>
        <pt x="150" y="-82" on="1"/>
      </contour>
    </TTGlyph>
    <TTGlyph name="arrowup.ss01" xMin="30" yMin="231" xMax="315" yMax="516">
      <contour>
        <pt x="173" y="516" on="1"/>
        <pt x="315" y="231" on="1"/>
        <pt x="30" y="231" on="1"/>
      </contour>
    </TTGlyph>
    <TTGlyph name="arrowupdn" xMin="63" yMin="-85" xMax="332" yMax="696">
      <contour>
        <pt x="63" y="192" on="1"/>
        <pt x="150" y="160" on="1"/>
        <pt x="150" y="450" on="1"/>
        <pt x="63" y="419" on="1"/>
        <pt x="198" y="696" on="1"/>
        <pt x="332" y="419" on="1"/>
        <pt x="247" y="450" on="1"/>
        <pt x="247" y="160" on="1"/>
        <pt x="332" y="192" on="1"/>
        <pt x="198" y="-85" on="1"/>
      </contour>
    </TTGlyph>
    <TTGlyph name="arrowupdnbse" xMin="55" yMin="-203" xMax="340" yMax="696">
      <contour>
        <pt x="63" y="192" on="1"/>
        <pt x="150" y="160" on="1"/>
        <pt x="150" y="450" on="1"/>
        <pt x="63" y="419" on="1"/>
        <pt x="198" y="696" on="1"/>
        <pt x="332" y="419" on="1"/>
        <pt x="247" y="450" on="1"/>
        <pt x="247" y="160" on="1"/>
        <pt x="332" y="192" on="1"/>
        <pt x="198" y="-85" on="1"/>
      </contour>
      <contour>
        <pt x="55" y="-122" on="1"/>
        <pt x="340" y="-122" on="1"/>
        <pt x="340" y="-203" on="1"/>
        <pt x="55" y="-203" on="1"/>
      </contour>
    </TTGlyph>
    <TTGlyph name="asciicircum" xMin="15" yMin="489" xMax="358" yMax="750">
      <contour>
        <pt x="187" y="660" on="1"/>
        <pt x="116" y="489" on="1"/>
        <pt x="15" y="489" on="1"/>
        <pt x="136" y="750" on="1"/>
        <pt x="237" y="750" on="1"/>
        <pt x="358" y="489" on="1"/>
        <pt x="257" y="489" on="1"/>
      </contour>
    </TTGlyph>
    <TTGlyph name="asciitilde" xMin="52" yMin="236" xMax="386" yMax="371">
      <contour>
        <pt x="386" y="323" on="0"/>
        <pt x="378" y="274" on="0"/>
        <pt x="343" y="247" on="0"/>
        <pt x="306" y="247" on="1"/>
        <pt x="276" y="247" on="0"/>
        <pt x="211" y="262" on="0"/>
        <pt x="206" y="263" on="1"/>
        <pt x="198" y="265" on="0"/>
        <pt x="156" y="276" on="0"/>
        <pt x="144" y="276" on="1"/>
        <pt x="130" y="276" on="0"/>
        <pt x="122" y="259" on="0"/>
        <pt x="122" y="236" on="1"/>
        <pt x="52" y="236" on="1"/>
        <pt x="52" y="283" on="0"/>
        <pt x="61" y="333" on="0"/>
        <pt x="96" y="360" on="0"/>
        <pt x="133" y="360" on="1"/>
        <pt x="155" y="360" on="0"/>
        <pt x="209" y="350" on="0"/>
        <pt x="233" y="344" on="1"/>
        <pt x="238" y="343" on="0"/>
        <pt x="280" y="332" on="0"/>
        <pt x="294" y="332" on="1"/>
        <pt x="309" y="332" on="0"/>
        <pt x="317" y="348" on="0"/>
        <pt x="317" y="371" on="1"/>
        <pt x="386" y="371" on="1"/>
      </contour>
    </TTGlyph>
    <TTGlyph name="asterisk" xMin="42" yMin="379" xMax="349" yMax="688">
      <contour>
        <pt x="231" y="379" on="1"/>
        <pt x="160" y="379" on="1"/>
        <pt x="169" y="488" on="1"/>
        <pt x="77" y="424" on="1"/>
        <pt x="42" y="486" on="1"/>
        <pt x="141" y="533" on="1"/>
        <pt x="42" y="580" on="1"/>
        <pt x="77" y="642" on="1"/>
        <pt x="169" y="579" on="1"/>
        <pt x="160" y="688" on="1"/>
        <pt x="231" y="688" on="1"/>
        <pt x="221" y="579" on="1"/>
        <pt x="313" y="643" on="1"/>
        <pt x="348" y="580" on="1"/>
        <pt x="248" y="533" on="1"/>
        <pt x="349" y="486" on="1"/>
        <pt x="313" y="424" on="1"/>
        <pt x="221" y="488" on="1"/>
      </contour>
    </TTGlyph>
    <TTGlyph name="asterisk.ss02" xMin="35" yMin="-14" xMax="782" yMax="705">
      <contour>
        <pt x="269" y="262" on="1"/>
        <pt x="35" y="436" on="1"/>
        <pt x="322" y="436" on="1"/>
        <pt x="409" y="705" on="1"/>
        <pt x="494" y="436" on="1"/>
        <pt x="782" y="436" on="1"/>
        <pt x="550" y="262" on="1"/>
        <pt x="640" y="-14" on="1"/>
        <pt x="409" y="156" on="1"/>
        <pt x="178" y="-14" on="1"/>
      </contour>
    </TTGlyph>
    <TTGlyph name="at" xMin="47" yMin="-108" xMax="559" yMax="696">
      <contour>
        <pt x="173" y="-108" on="0"/>
        <pt x="73" y="-55" on="0"/>
        <pt x="47" y="95" on="0"/>
        <pt x="47" y="294" on="1"/>
        <pt x="47" y="493" on="0"/>
        <pt x="73" y="643" on="0"/>
        <pt x="173" y="696" on="0"/>
        <pt x="303" y="696" on="1"/>
        <pt x="433" y="696" on="0"/>
        <pt x="533" y="643" on="0"/>
        <pt x="559" y="493" on="0"/>
        <pt x="559" y="294" on="1"/>
        <pt x="559" y="188" on="0"/>
        <pt x="540" y="97" on="0"/>
        <pt x="502" y="75" on="0"/>
        <pt x="459" y="75" on="1"/>
        <pt x="340" y="75" on="1"/>
        <pt x="336" y="127" on="1"/>
        <pt x="330" y="127" on="1"/>
        <pt x="324" y="97" on="0"/>
        <pt x="285" y="68" on="0"/>
        <pt x="260" y="68" on="1"/>
        <pt x="213" y="68" on="0"/>
        <pt x="175" y="130" on="0"/>
        <pt x="175" y="200" on="1"/>
        <pt x="175" y="274" on="0"/>
        <pt x="217" y="333" on="0"/>
        <pt x="271" y="333" on="1"/>
        <pt x="311" y="331" on="1"/>
        <pt x="334" y="329" on="1"/>
        <pt x="334" y="353" on="1"/>
        <pt x="334" y="393" on="0"/>
        <pt x="327" y="424" on="0"/>
        <pt x="302" y="434" on="0"/>
        <pt x="272" y="434" on="1"/>
        <pt x="238" y="434" on="0"/>
        <pt x="193" y="428" on="1"/>
        <pt x="193" y="507" on="1"/>
        <pt x="250" y="518" on="0"/>
        <pt x="301" y="518" on="1"/>
        <pt x="353" y="518" on="0"/>
        <pt x="407" y="485" on="0"/>
        <pt x="429" y="412" on="0"/>
        <pt x="429" y="345" on="1"/>
        <pt x="429" y="129" on="1"/>
        <pt x="463" y="129" on="1"/>
        <pt x="482" y="129" on="0"/>
        <pt x="497" y="145" on="0"/>
        <pt x="503" y="212" on="0"/>
        <pt x="503" y="294" on="1"/>
        <pt x="503" y="448" on="0"/>
        <pt x="493" y="573" on="0"/>
        <pt x="453" y="631" on="0"/>
        <pt x="404" y="638" on="1"/>
        <pt x="379" y="642" on="0"/>
        <pt x="303" y="642" on="1"/>
        <pt x="242" y="642" on="0"/>
        <pt x="214" y="640" on="1"/>
        <pt x="159" y="635" on="0"/>
        <pt x="114" y="582" on="0"/>
        <pt x="104" y="456" on="0"/>
        <pt x="104" y="294" on="1"/>
        <pt x="104" y="129" on="0"/>
        <pt x="116" y="3" on="0"/>
        <pt x="167" y="-49" on="0"/>
        <pt x="232" y="-53" on="1"/>
        <pt x="249" y="-54" on="0"/>
        <pt x="303" y="-54" on="1"/>
        <pt x="402" y="-54" on="0"/>
        <pt x="429" y="-51" on="1"/>
        <pt x="429" y="-106" on="1"/>
        <pt x="407" y="-108" on="0"/>
        <pt x="303" y="-108" on="1"/>
      </contour>
      <contour>
        <pt x="312" y="156" on="0"/>
        <pt x="328" y="170" on="0"/>
        <pt x="334" y="204" on="0"/>
        <pt x="334" y="239" on="1"/>
        <pt x="334" y="265" on="1"/>
        <pt x="296" y="265" on="1"/>
        <pt x="278" y="265" on="0"/>
        <pt x="266" y="244" on="0"/>
        <pt x="266" y="208" on="1"/>
        <pt x="266" y="178" on="0"/>
        <pt x="277" y="156" on="0"/>
        <pt x="296" y="156" on="1"/>
      </contour>
    </TTGlyph>
    <TTGlyph name="atilde" xMin="20" yMin="-8" xMax="333" yMax="743">
      <component glyphName="a" x="0" y="0" flags="0x0"/>
      <component glyphName="tilde" x="49" y="0" flags="0x0"/>
    </TTGlyph>
    <TTGlyph name="b" xMin="39" yMin="-8" xMax="361" yMax="743">
      <contour>
        <pt x="214" y="-8" on="0"/>
        <pt x="166" y="23" on="0"/>
        <pt x="158" y="61" on="1"/>
        <pt x="150" y="61" on="1"/>
        <pt x="146" y="0" on="1"/>
        <pt x="39" y="0" on="1"/>
        <pt x="39" y="743" on="1"/>
        <pt x="152" y="743" on="1"/>
        <pt x="152" y="454" on="1"/>
        <pt x="160" y="454" on="1"/>
        <pt x="176" y="518" on="0"/>
        <pt x="248" y="518" on="1"/>
        <pt x="295" y="518" on="0"/>
        <pt x="343" y="471" on="0"/>
        <pt x="361" y="360" on="0"/>
        <pt x="361" y="255" on="1"/>
        <pt x="361" y="147" on="0"/>
        <pt x="341" y="36" on="0"/>
        <pt x="292" y="-8" on="0"/>
        <pt x="246" y="-8" on="1"/>
      </contour>
      <contour>
        <pt x="224" y="94" on="0"/>
        <pt x="242" y="112" on="0"/>
        <pt x="248" y="174" on="0"/>
        <pt x="248" y="255" on="1"/>
        <pt x="248" y="336" on="0"/>
        <pt x="242" y="398" on="0"/>
        <pt x="224" y="416" on="0"/>
        <pt x="200" y="416" on="1"/>
        <pt x="182" y="416" on="0"/>
        <pt x="162" y="400" on="0"/>
        <pt x="158" y="380" on="1"/>
        <pt x="152" y="352" on="0"/>
        <pt x="152" y="255" on="1"/>
        <pt x="152" y="215" on="0"/>
        <pt x="154" y="151" on="0"/>
        <pt x="157" y="133" on="1"/>
        <pt x="161" y="111" on="0"/>
        <pt x="181" y="94" on="0"/>
        <pt x="200" y="94" on="1"/>
      </contour>
    </TTGlyph>
    <TTGlyph name="backslash" xMin="21" yMin="-55" xMax="269" yMax="743">
      <contour>
        <pt x="21" y="743" on="1"/>
        <pt x="123" y="743" on="1"/>
        <pt x="269" y="-55" on="1"/>
        <pt x="168" y="-55" on="1"/>
      </contour>
    </TTGlyph>
    <TTGlyph name="bar" xMin="52" yMin="-161" xMax="159" yMax="743">
      <contour>
        <pt x="52" y="743" on="1"/>
        <pt x="159" y="743" on="1"/>
        <pt x="159" y="-161" on="1"/>
        <pt x="52" y="-161" on="1"/>
      </contour>
    </TTGlyph>
    <TTGlyph name="bar.ss02" xMin="-1" yMin="0" xMax="499" yMax="696">
      <contour>
        <pt x="-1" y="696" on="1"/>
        <pt x="499" y="696" on="1"/>
        <pt x="499" y="0" on="1"/>
        <pt x="-1" y="0" on="1"/>
      </contour>
    </TTGlyph>
    <TTGlyph name="braceleft" xMin="20" yMin="-150" xMax="264" yMax="743">
      <contour>
        <pt x="147" y="-126" on="0"/>
        <pt x="90" y="-27" on="0"/>
        <pt x="90" y="26" on="1"/>
        <pt x="90" y="153" on="1"/>
        <pt x="90" y="203" on="0"/>
        <pt x="60" y="264" on="0"/>
        <pt x="20" y="270" on="1"/>
        <pt x="20" y="322" on="1"/>
        <pt x="60" y="328" on="0"/>
        <pt x="90" y="390" on="0"/>
        <pt x="90" y="440" on="1"/>
        <pt x="90" y="567" on="1"/>
        <pt x="90" y="620" on="0"/>
        <pt x="147" y="719" on="0"/>
        <pt x="191" y="743" on="1"/>
        <pt x="264" y="743" on="1"/>
        <pt x="228" y="700" on="0"/>
        <pt x="202" y="623" on="0"/>
        <pt x="202" y="555" on="1"/>
        <pt x="202" y="446" on="1"/>
        <pt x="202" y="323" on="0"/>
        <pt x="112" y="300" on="1"/>
        <pt x="112" y="293" on="1"/>
        <pt x="202" y="271" on="0"/>
        <pt x="202" y="147" on="1"/>
        <pt x="202" y="38" on="1"/>
        <pt x="202" y="-30" on="0"/>
        <pt x="228" y="-106" on="0"/>
        <pt x="264" y="-150" on="1"/>
        <pt x="191" y="-150" on="1"/>
      </contour>
    </TTGlyph>
    <TTGlyph name="braceright" xMin="22" yMin="-150" xMax="266" yMax="743">
      <contour>
        <pt x="58" y="-107" on="0"/>
        <pt x="84" y="-30" on="0"/>
        <pt x="84" y="38" on="1"/>
        <pt x="84" y="147" on="1"/>
        <pt x="84" y="271" on="0"/>
        <pt x="175" y="293" on="1"/>
        <pt x="175" y="300" on="1"/>
        <pt x="84" y="322" on="0"/>
        <pt x="84" y="446" on="1"/>
        <pt x="84" y="555" on="1"/>
        <pt x="84" y="623" on="0"/>
        <pt x="58" y="699" on="0"/>
        <pt x="22" y="743" on="1"/>
        <pt x="95" y="743" on="1"/>
        <pt x="139" y="719" on="0"/>
        <pt x="196" y="620" on="0"/>
        <pt x="196" y="567" on="1"/>
        <pt x="196" y="440" on="1"/>
        <pt x="196" y="390" on="0"/>
        <pt x="226" y="328" on="0"/>
        <pt x="266" y="322" on="1"/>
        <pt x="266" y="270" on="1"/>
        <pt x="226" y="264" on="0"/>
        <pt x="196" y="203" on="0"/>
        <pt x="196" y="153" on="1"/>
        <pt x="196" y="26" on="1"/>
        <pt x="196" y="-27" on="0"/>
        <pt x="139" y="-126" on="0"/>
        <pt x="95" y="-150" on="1"/>
        <pt x="22" y="-150" on="1"/>
      </contour>
    </TTGlyph>
    <TTGlyph name="bracketleft" xMin="45" yMin="-150" xMax="233" yMax="743">
      <contour>
        <pt x="45" y="743" on="1"/>
        <pt x="233" y="743" on="1"/>
        <pt x="233" y="669" on="1"/>
        <pt x="157" y="665" on="1"/>
        <pt x="157" y="-71" on="1"/>
        <pt x="233" y="-75" on="1"/>
        <pt x="233" y="-150" on="1"/>
        <pt x="45" y="-150" on="1"/>
      </contour>
    </TTGlyph>
    <TTGlyph name="bracketleft.ss02" xMin="45" yMin="0" xMax="397" yMax="696">
      <contour>
        <pt x="45" y="0" on="1"/>
        <pt x="45" y="348" on="1"/>
        <pt x="45" y="449" on="0"/>
        <pt x="135" y="608" on="0"/>
        <pt x="295" y="696" on="0"/>
        <pt x="397" y="696" on="1"/>
        <pt x="397" y="0" on="1"/>
      </contour>
    </TTGlyph>
    <TTGlyph name="bracketright" xMin="28" yMin="-150" xMax="217" yMax="743">
      <contour>
        <pt x="28" y="-75" on="1"/>
        <pt x="104" y="-71" on="1"/>
        <pt x="104" y="665" on="1"/>
        <pt x="28" y="669" on="1"/>
        <pt x="28" y="743" on="1"/>
        <pt x="217" y="743" on="1"/>
        <pt x="217" y="-150" on="1"/>
        <pt x="28" y="-150" on="1"/>
      </contour>
    </TTGlyph>
    <TTGlyph name="bracketright.ss02" xMin="0" yMin="0" xMax="352" yMax="696">
      <contour>
        <pt x="0" y="696" on="1"/>
        <pt x="102" y="696" on="0"/>
        <pt x="262" y="608" on="0"/>
        <pt x="352" y="449" on="0"/>
        <pt x="352" y="348" on="1"/>
        <pt x="352" y="0" on="1"/>
        <pt x="0" y="0" on="1"/>
      </contour>
    </TTGlyph>
    <TTGlyph name="breve" xMin="0" yMin="610" xMax="237" yMax="743">
      <contour>
        <pt x="237" y="699" on="0"/>
        <pt x="220" y="643" on="0"/>
        <pt x="168" y="610" on="0"/>
        <pt x="118" y="610" on="1"/>
        <pt x="68" y="610" on="0"/>
        <pt x="17" y="643" on="0"/>
        <pt x="0" y="699" on="0"/>
        <pt x="0" y="743" on="1"/>
        <pt x="73" y="743" on="1"/>
        <pt x="73" y="718" on="0"/>
        <pt x="77" y="693" on="0"/>
        <pt x="97" y="678" on="0"/>
        <pt x="118" y="678" on="1"/>
        <pt x="149" y="678" on="0"/>
        <pt x="164" y="708" on="0"/>
        <pt x="164" y="743" on="1"/>
        <pt x="237" y="743" on="1"/>
      </contour>
    </TTGlyph>
    <TTGlyph name="brokenbar" xMin="52" yMin="-161" xMax="159" yMax="743">
      <contour>
        <pt x="52" y="743" on="1"/>
        <pt x="159" y="743" on="1"/>
        <pt x="159" y="390" on="1"/>
        <pt x="52" y="390" on="1"/>
      </contour>
      <contour>
        <pt x="52" y="192" on="1"/>
        <pt x="159" y="192" on="1"/>
        <pt x="159" y="-161" on="1"/>
        <pt x="52" y="-161" on="1"/>
      </contour>
    </TTGlyph>
    <TTGlyph name="bullet" xMin="35" yMin="253" xMax="218" yMax="435">
      <contour>
        <pt x="218" y="299" on="0"/>
        <pt x="208" y="265" on="0"/>
        <pt x="171" y="253" on="0"/>
        <pt x="125" y="253" on="1"/>
        <pt x="81" y="253" on="0"/>
        <pt x="45" y="265" on="0"/>
        <pt x="35" y="299" on="0"/>
        <pt x="35" y="342" on="1"/>
        <pt x="35" y="387" on="0"/>
        <pt x="45" y="422" on="0"/>
        <pt x="80" y="435" on="0"/>
        <pt x="125" y="435" on="1"/>
        <pt x="171" y="435" on="0"/>
        <pt x="208" y="422" on="0"/>
        <pt x="218" y="387" on="0"/>
        <pt x="218" y="342" on="1"/>
      </contour>
    </TTGlyph>
    <TTGlyph name="bullet.ss02" xMin="40" yMin="-8" xMax="743" yMax="696">
      <contour>
        <pt x="343" y="421" on="0"/>
        <pt x="279" y="480" on="0"/>
        <pt x="279" y="533" on="1"/>
        <pt x="279" y="575" on="0"/>
        <pt x="318" y="650" on="0"/>
        <pt x="373" y="696" on="0"/>
        <pt x="392" y="696" on="1"/>
        <pt x="411" y="696" on="0"/>
        <pt x="465" y="650" on="0"/>
        <pt x="504" y="575" on="0"/>
        <pt x="504" y="533" on="1"/>
        <pt x="504" y="480" on="0"/>
        <pt x="441" y="421" on="0"/>
        <pt x="392" y="421" on="1"/>
      </contour>
      <contour>
        <pt x="415" y="481" on="0"/>
        <pt x="444" y="508" on="0"/>
        <pt x="444" y="533" on="1"/>
        <pt x="444" y="560" on="0"/>
        <pt x="426" y="607" on="0"/>
        <pt x="401" y="636" on="0"/>
        <pt x="392" y="636" on="1"/>
        <pt x="383" y="636" on="0"/>
        <pt x="358" y="607" on="0"/>
        <pt x="339" y="560" on="0"/>
        <pt x="339" y="533" on="1"/>
        <pt x="339" y="508" on="0"/>
        <pt x="369" y="481" on="0"/>
        <pt x="392" y="481" on="1"/>
      </contour>
      <contour>
        <pt x="161" y="231" on="0"/>
        <pt x="86" y="270" on="0"/>
        <pt x="40" y="325" on="0"/>
        <pt x="40" y="344" on="1"/>
        <pt x="40" y="363" on="0"/>
        <pt x="86" y="417" on="0"/>
        <pt x="161" y="456" on="0"/>
        <pt x="203" y="456" on="1"/>
        <pt x="256" y="456" on="0"/>
        <pt x="315" y="393" on="0"/>
        <pt x="315" y="344" on="1"/>
        <pt x="315" y="295" on="0"/>
        <pt x="256" y="231" on="0"/>
        <pt x="203" y="231" on="1"/>
      </contour>
      <contour>
        <pt x="527" y="231" on="0"/>
        <pt x="468" y="295" on="0"/>
        <pt x="468" y="344" on="1"/>
        <pt x="468" y="393" on="0"/>
        <pt x="527" y="456" on="0"/>
        <pt x="581" y="456" on="1"/>
        <pt x="622" y="456" on="0"/>
        <pt x="697" y="417" on="0"/>
        <pt x="743" y="363" on="0"/>
        <pt x="743" y="344" on="1"/>
        <pt x="743" y="325" on="0"/>
        <pt x="697" y="270" on="0"/>
        <pt x="623" y="231" on="0"/>
        <pt x="581" y="231" on="1"/>
      </contour>
      <contour>
        <pt x="228" y="291" on="0"/>
        <pt x="255" y="321" on="0"/>
        <pt x="255" y="344" on="1"/>
        <pt x="255" y="367" on="0"/>
        <pt x="228" y="396" on="0"/>
        <pt x="203" y="396" on="1"/>
        <pt x="176" y="396" on="0"/>
        <pt x="129" y="378" on="0"/>
        <pt x="100" y="353" on="0"/>
        <pt x="100" y="344" on="1"/>
        <pt x="100" y="335" on="0"/>
        <pt x="129" y="310" on="0"/>
        <pt x="176" y="291" on="0"/>
        <pt x="203" y="291" on="1"/>
      </contour>
      <contour>
        <pt x="607" y="291" on="0"/>
        <pt x="654" y="310" on="0"/>
        <pt x="683" y="335" on="0"/>
        <pt x="683" y="344" on="1"/>
        <pt x="683" y="353" on="0"/>
        <pt x="654" y="378" on="0"/>
        <pt x="607" y="396" on="0"/>
        <pt x="581" y="396" on="1"/>
        <pt x="556" y="396" on="0"/>
        <pt x="528" y="367" on="0"/>
        <pt x="528" y="344" on="1"/>
        <pt x="528" y="321" on="0"/>
        <pt x="556" y="291" on="0"/>
        <pt x="581" y="291" on="1"/>
      </contour>
      <contour>
        <pt x="373" y="-8" on="0"/>
        <pt x="318" y="38" on="0"/>
        <pt x="279" y="113" on="0"/>
        <pt x="279" y="155" on="1"/>
        <pt x="279" y="208" on="0"/>
        <pt x="343" y="267" on="0"/>
        <pt x="392" y="267" on="1"/>
        <pt x="441" y="267" on="0"/>
        <pt x="504" y="208" on="0"/>
        <pt x="504" y="155" on="1"/>
        <pt x="504" y="113" on="0"/>
        <pt x="465" y="38" on="0"/>
        <pt x="411" y="-8" on="0"/>
        <pt x="392" y="-8" on="1"/>
      </contour>
      <contour>
        <pt x="401" y="52" on="0"/>
        <pt x="426" y="81" on="0"/>
        <pt x="444" y="128" on="0"/>
        <pt x="444" y="155" on="1"/>
        <pt x="444" y="180" on="0"/>
        <pt x="415" y="207" on="0"/>
        <pt x="392" y="207" on="1"/>
        <pt x="369" y="207" on="0"/>
        <pt x="339" y="180" on="0"/>
        <pt x="339" y="155" on="1"/>
        <pt x="339" y="128" on="0"/>
        <pt x="358" y="81" on="0"/>
        <pt x="383" y="52" on="0"/>
        <pt x="392" y="52" on="1"/>
      </contour>
    </TTGlyph>
    <TTGlyph name="c" xMin="29" yMin="-8" xMax="274" yMax="518">
      <contour>
        <pt x="228" y="-8" on="0"/>
        <pt x="178" y="-8" on="1"/>
        <pt x="114" y="-8" on="0"/>
        <pt x="50" y="47" on="0"/>
        <pt x="29" y="156" on="0"/>
        <pt x="29" y="255" on="1"/>
        <pt x="29" y="357" on="0"/>
        <pt x="53" y="468" on="0"/>
        <pt x="116" y="518" on="0"/>
        <pt x="177" y="518" on="1"/>
        <pt x="234" y="518" on="0"/>
        <pt x="271" y="506" on="1"/>
        <pt x="271" y="416" on="1"/>
        <pt x="233" y="422" on="0"/>
        <pt x="210" y="422" on="1"/>
        <pt x="178" y="422" on="0"/>
        <pt x="152" y="401" on="0"/>
        <pt x="142" y="334" on="0"/>
        <pt x="142" y="255" on="1"/>
        <pt x="142" y="175" on="0"/>
        <pt x="152" y="108" on="0"/>
        <pt x="179" y="88" on="0"/>
        <pt x="211" y="88" on="1"/>
        <pt x="234" y="88" on="0"/>
        <pt x="274" y="94" on="1"/>
        <pt x="274" y="5" on="1"/>
      </contour>
    </TTGlyph>
    <TTGlyph name="cacute" xMin="29" yMin="-8" xMax="274" yMax="743">
      <component glyphName="c" x="0" y="0" flags="0x0"/>
      <component glyphName="acutecomb" x="245" y="0" flags="0x0"/>
    </TTGlyph>
    <TTGlyph name="cacute.loclPLK" xMin="29" yMin="-8" xMax="274" yMax="743">
      <component glyphName="c" x="0" y="0" flags="0x0"/>
      <component glyphName="acute.loclPLK" x="98" y="0" flags="0x0"/>
    </TTGlyph>
    <TTGlyph name="caron" xMin="0" yMin="616" xMax="250" yMax="743">
      <contour>
        <pt x="0" y="735" on="1"/>
        <pt x="0" y="743" on="1"/>
        <pt x="79" y="743" on="1"/>
        <pt x="124" y="672" on="1"/>
        <pt x="171" y="743" on="1"/>
        <pt x="250" y="743" on="1"/>
        <pt x="250" y="735" on="1"/>
        <pt x="182" y="616" on="1"/>
        <pt x="67" y="616" on="1"/>
      </contour>
    </TTGlyph>
    <TTGlyph name="caron.loclCSY" xMin="25" yMin="430" xMax="148" yMax="688">
      <contour>
        <pt x="40" y="632" on="1"/>
        <pt x="40" y="688" on="1"/>
        <pt x="148" y="688" on="1"/>
        <pt x="148" y="632" on="1"/>
        <pt x="108" y="430" on="1"/>
        <pt x="25" y="430" on="1"/>
      </contour>
    </TTGlyph>
    <TTGlyph name="ccaron" xMin="22" yMin="-8" xMax="274" yMax="743">
      <component glyphName="c" x="0" y="0" flags="0x0"/>
      <component glyphName="uni030C" x="272" y="0" flags="0x0"/>
    </TTGlyph>
    <TTGlyph name="ccedilla" xMin="29" yMin="-189" xMax="274" yMax="518">
      <contour>
        <pt x="274" y="5" on="1"/>
        <pt x="231" y="-8" on="0"/>
        <pt x="183" y="-8" on="1"/>
        <pt x="149" y="-189" on="1"/>
        <pt x="52" y="-189" on="1"/>
        <pt x="52" y="-184" on="1"/>
        <pt x="111" y="2" on="1"/>
        <pt x="61" y="22" on="0"/>
        <pt x="29" y="137" on="0"/>
        <pt x="29" y="255" on="1"/>
        <pt x="29" y="357" on="0"/>
        <pt x="53" y="468" on="0"/>
        <pt x="116" y="518" on="0"/>
        <pt x="177" y="518" on="1"/>
        <pt x="234" y="518" on="0"/>
        <pt x="271" y="506" on="1"/>
        <pt x="271" y="416" on="1"/>
        <pt x="233" y="422" on="0"/>
        <pt x="210" y="422" on="1"/>
        <pt x="178" y="422" on="0"/>
        <pt x="152" y="401" on="0"/>
        <pt x="142" y="334" on="0"/>
        <pt x="142" y="255" on="1"/>
        <pt x="142" y="175" on="0"/>
        <pt x="152" y="108" on="0"/>
        <pt x="179" y="88" on="0"/>
        <pt x="211" y="88" on="1"/>
        <pt x="234" y="88" on="0"/>
        <pt x="274" y="94" on="1"/>
      </contour>
    </TTGlyph>
    <TTGlyph name="ccircumflex" xMin="22" yMin="-8" xMax="274" yMax="743">
      <component glyphName="c" x="0" y="0" flags="0x0"/>
      <component glyphName="uni0302" x="272" y="0" flags="0x0"/>
    </TTGlyph>
    <TTGlyph name="cdotaccent" xMin="29" yMin="-8" xMax="274" yMax="730">
      <component glyphName="c" x="0" y="0" flags="0x0"/>
      <component glyphName="uni0307" x="199" y="0" flags="0x0"/>
    </TTGlyph>
    <TTGlyph name="cedilla" xMin="4" yMin="-189" xMax="137" yMax="8">
      <contour>
        <pt x="4" y="-184" on="1"/>
        <pt x="65" y="8" on="1"/>
        <pt x="137" y="8" on="1"/>
        <pt x="137" y="3" on="1"/>
        <pt x="101" y="-189" on="1"/>
        <pt x="4" y="-189" on="1"/>
      </contour>
    </TTGlyph>
    <TTGlyph name="cent" xMin="33" yMin="-8" xMax="283" yMax="696">
      <contour>
        <pt x="142" y="72" on="1"/>
        <pt x="96" y="81" on="0"/>
        <pt x="49" y="144" on="0"/>
        <pt x="33" y="251" on="0"/>
        <pt x="33" y="342" on="1"/>
        <pt x="33" y="435" on="0"/>
        <pt x="51" y="544" on="0"/>
        <pt x="98" y="604" on="0"/>
        <pt x="142" y="612" on="1"/>
        <pt x="142" y="696" on="1"/>
        <pt x="226" y="696" on="1"/>
        <pt x="226" y="615" on="1"/>
        <pt x="266" y="609" on="0"/>
        <pt x="280" y="604" on="1"/>
        <pt x="280" y="511" on="1"/>
        <pt x="232" y="516" on="0"/>
        <pt x="218" y="516" on="1"/>
        <pt x="185" y="516" on="0"/>
        <pt x="157" y="494" on="0"/>
        <pt x="147" y="424" on="0"/>
        <pt x="147" y="343" on="1"/>
        <pt x="147" y="260" on="0"/>
        <pt x="157" y="190" on="0"/>
        <pt x="185" y="168" on="0"/>
        <pt x="218" y="168" on="1"/>
        <pt x="235" y="168" on="0"/>
        <pt x="283" y="174" on="1"/>
        <pt x="283" y="82" on="1"/>
        <pt x="262" y="75" on="0"/>
        <pt x="226" y="70" on="1"/>
        <pt x="226" y="-8" on="1"/>
        <pt x="142" y="-8" on="1"/>
      </contour>
    </TTGlyph>
    <TTGlyph name="cent.bold" xMin="33" yMin="-8" xMax="283" yMax="696">
      <contour>
        <pt x="283" y="82" on="1"/>
        <pt x="247" y="72" on="0"/>
        <pt x="226" y="70" on="1"/>
        <pt x="226" y="-8" on="1"/>
        <pt x="142" y="-8" on="1"/>
        <pt x="142" y="71" on="1"/>
        <pt x="96" y="79" on="0"/>
        <pt x="49" y="145" on="0"/>
        <pt x="33" y="253" on="0"/>
        <pt x="33" y="342" on="1"/>
        <pt x="33" y="433" on="0"/>
        <pt x="49" y="541" on="0"/>
        <pt x="96" y="604" on="0"/>
        <pt x="142" y="613" on="1"/>
        <pt x="142" y="696" on="1"/>
        <pt x="226" y="696" on="1"/>
        <pt x="226" y="615" on="1"/>
        <pt x="249" y="613" on="0"/>
        <pt x="280" y="604" on="1"/>
        <pt x="280" y="511" on="1"/>
        <pt x="260" y="513" on="0"/>
        <pt x="226" y="516" on="1"/>
        <pt x="226" y="168" on="1"/>
        <pt x="246" y="169" on="0"/>
        <pt x="283" y="174" on="1"/>
      </contour>
    </TTGlyph>
    <TTGlyph name="circumflex" xMin="0" yMin="616" xMax="250" yMax="743">
      <contour>
        <pt x="0" y="623" on="1"/>
        <pt x="67" y="743" on="1"/>
        <pt x="182" y="743" on="1"/>
        <pt x="250" y="623" on="1"/>
        <pt x="250" y="616" on="1"/>
        <pt x="171" y="616" on="1"/>
        <pt x="124" y="687" on="1"/>
        <pt x="79" y="616" on="1"/>
        <pt x="0" y="616" on="1"/>
      </contour>
    </TTGlyph>
    <TTGlyph name="colon" xMin="47" yMin="0" xMax="171" yMax="510">
      <contour>
        <pt x="47" y="510" on="1"/>
        <pt x="171" y="510" on="1"/>
        <pt x="171" y="389" on="1"/>
        <pt x="47" y="389" on="1"/>
      </contour>
      <contour>
        <pt x="47" y="121" on="1"/>
        <pt x="171" y="121" on="1"/>
        <pt x="171" y="0" on="1"/>
        <pt x="47" y="0" on="1"/>
      </contour>
    </TTGlyph>
    <TTGlyph name="comma" xMin="42" yMin="-147" xMax="171" yMax="121">
      <contour>
        <pt x="63" y="-91" on="0"/>
        <pt x="83" y="-77" on="0"/>
        <pt x="89" y="-47" on="0"/>
        <pt x="89" y="-15" on="1"/>
        <pt x="89" y="0" on="1"/>
        <pt x="46" y="0" on="1"/>
        <pt x="46" y="121" on="1"/>
        <pt x="171" y="121" on="1"/>
        <pt x="171" y="32" on="1"/>
        <pt x="171" y="-42" on="0"/>
        <pt x="153" y="-115" on="0"/>
        <pt x="99" y="-147" on="0"/>
        <pt x="42" y="-147" on="1"/>
        <pt x="42" y="-91" on="1"/>
      </contour>
    </TTGlyph>
    <TTGlyph name="copyright" xMin="50" yMin="-8" xMax="461" yMax="696">
      <contour>
        <pt x="152" y="-8" on="0"/>
        <pt x="71" y="38" on="0"/>
        <pt x="50" y="171" on="0"/>
        <pt x="50" y="344" on="1"/>
        <pt x="50" y="517" on="0"/>
        <pt x="71" y="650" on="0"/>
        <pt x="152" y="696" on="0"/>
        <pt x="256" y="696" on="1"/>
        <pt x="359" y="696" on="0"/>
        <pt x="440" y="650" on="0"/>
        <pt x="461" y="517" on="0"/>
        <pt x="461" y="344" on="1"/>
        <pt x="461" y="171" on="0"/>
        <pt x="440" y="38" on="0"/>
        <pt x="359" y="-8" on="0"/>
        <pt x="256" y="-8" on="1"/>
      </contour>
      <contour>
        <pt x="341" y="36" on="0"/>
        <pt x="400" y="67" on="0"/>
        <pt x="416" y="181" on="0"/>
        <pt x="416" y="344" on="1"/>
        <pt x="416" y="507" on="0"/>
        <pt x="400" y="621" on="0"/>
        <pt x="341" y="652" on="0"/>
        <pt x="256" y="652" on="1"/>
        <pt x="171" y="652" on="0"/>
        <pt x="112" y="621" on="0"/>
        <pt x="96" y="507" on="0"/>
        <pt x="96" y="344" on="1"/>
        <pt x="96" y="181" on="0"/>
        <pt x="112" y="67" on="0"/>
        <pt x="171" y="36" on="0"/>
        <pt x="256" y="36" on="1"/>
      </contour>
      <contour>
        <pt x="229" y="156" on="0"/>
        <pt x="190" y="189" on="0"/>
        <pt x="177" y="266" on="0"/>
        <pt x="177" y="344" on="1"/>
        <pt x="177" y="422" on="0"/>
        <pt x="190" y="499" on="0"/>
        <pt x="229" y="532" on="0"/>
        <pt x="270" y="532" on="1"/>
        <pt x="305" y="532" on="0"/>
        <pt x="319" y="524" on="1"/>
        <pt x="319" y="468" on="1"/>
        <pt x="289" y="471" on="0"/>
        <pt x="282" y="471" on="1"/>
        <pt x="262" y="471" on="0"/>
        <pt x="247" y="456" on="0"/>
        <pt x="243" y="408" on="0"/>
        <pt x="243" y="344" on="1"/>
        <pt x="243" y="280" on="0"/>
        <pt x="247" y="232" on="0"/>
        <pt x="262" y="217" on="0"/>
        <pt x="282" y="217" on="1"/>
        <pt x="293" y="217" on="0"/>
        <pt x="320" y="220" on="1"/>
        <pt x="320" y="165" on="1"/>
        <pt x="297" y="156" on="0"/>
        <pt x="270" y="156" on="1"/>
      </contour>
    </TTGlyph>
    <TTGlyph name="currency" xMin="29" yMin="7" xMax="471" yMax="683">
      <contour>
        <pt x="29" y="77" on="1"/>
        <pt x="105" y="154" on="1"/>
        <pt x="95" y="181" on="0"/>
        <pt x="88" y="268" on="0"/>
        <pt x="88" y="346" on="1"/>
        <pt x="88" y="422" on="0"/>
        <pt x="94" y="508" on="0"/>
        <pt x="104" y="537" on="1"/>
        <pt x="29" y="612" on="1"/>
        <pt x="100" y="683" on="1"/>
        <pt x="177" y="605" on="1"/>
        <pt x="201" y="614" on="0"/>
        <pt x="249" y="614" on="1"/>
        <pt x="295" y="614" on="0"/>
        <pt x="323" y="605" on="1"/>
        <pt x="401" y="683" on="1"/>
        <pt x="471" y="612" on="1"/>
        <pt x="394" y="535" on="1"/>
        <pt x="404" y="507" on="0"/>
        <pt x="411" y="418" on="0"/>
        <pt x="411" y="346" on="1"/>
        <pt x="411" y="273" on="0"/>
        <pt x="404" y="183" on="0"/>
        <pt x="395" y="155" on="1"/>
        <pt x="471" y="78" on="1"/>
        <pt x="401" y="7" on="1"/>
        <pt x="324" y="84" on="1"/>
        <pt x="294" y="75" on="0"/>
        <pt x="249" y="75" on="1"/>
        <pt x="204" y="75" on="0"/>
        <pt x="176" y="84" on="1"/>
        <pt x="100" y="7" on="1"/>
      </contour>
      <contour>
        <pt x="274" y="172" on="0"/>
        <pt x="292" y="193" on="0"/>
        <pt x="298" y="259" on="0"/>
        <pt x="298" y="346" on="1"/>
        <pt x="298" y="431" on="0"/>
        <pt x="292" y="497" on="0"/>
        <pt x="274" y="517" on="0"/>
        <pt x="249" y="517" on="1"/>
        <pt x="225" y="517" on="0"/>
        <pt x="206" y="497" on="0"/>
        <pt x="201" y="432" on="0"/>
        <pt x="201" y="346" on="1"/>
        <pt x="201" y="258" on="0"/>
        <pt x="206" y="192" on="0"/>
        <pt x="225" y="172" on="0"/>
        <pt x="249" y="172" on="1"/>
      </contour>
    </TTGlyph>
    <TTGlyph name="d" xMin="29" yMin="-8" xMax="351" yMax="743">
      <contour>
        <pt x="98" y="-8" on="0"/>
        <pt x="49" y="36" on="0"/>
        <pt x="29" y="147" on="0"/>
        <pt x="29" y="255" on="1"/>
        <pt x="29" y="360" on="0"/>
        <pt x="48" y="471" on="0"/>
        <pt x="95" y="518" on="0"/>
        <pt x="142" y="518" on="1"/>
        <pt x="179" y="518" on="0"/>
        <pt x="222" y="486" on="0"/>
        <pt x="231" y="454" on="1"/>
        <pt x="238" y="454" on="1"/>
        <pt x="238" y="743" on="1"/>
        <pt x="351" y="743" on="1"/>
        <pt x="351" y="0" on="1"/>
        <pt x="244" y="0" on="1"/>
        <pt x="240" y="61" on="1"/>
        <pt x="233" y="61" on="1"/>
        <pt x="224" y="23" on="0"/>
        <pt x="176" y="-8" on="0"/>
        <pt x="144" y="-8" on="1"/>
      </contour>
      <contour>
        <pt x="210" y="94" on="0"/>
        <pt x="230" y="112" on="0"/>
        <pt x="234" y="136" on="1"/>
        <pt x="238" y="167" on="0"/>
        <pt x="238" y="259" on="1"/>
        <pt x="238" y="344" on="0"/>
        <pt x="234" y="368" on="1"/>
        <pt x="230" y="397" on="0"/>
        <pt x="210" y="416" on="0"/>
        <pt x="189" y="416" on="1"/>
        <pt x="166" y="416" on="0"/>
        <pt x="148" y="398" on="0"/>
        <pt x="142" y="335" on="0"/>
        <pt x="142" y="255" on="1"/>
        <pt x="142" y="175" on="0"/>
        <pt x="148" y="112" on="0"/>
        <pt x="166" y="94" on="0"/>
        <pt x="190" y="94" on="1"/>
      </contour>
    </TTGlyph>
    <TTGlyph name="dagger" xMin="32" yMin="0" xMax="299" yMax="688">
      <contour>
        <pt x="114" y="426" on="1"/>
        <pt x="32" y="436" on="1"/>
        <pt x="32" y="517" on="1"/>
        <pt x="114" y="527" on="1"/>
        <pt x="123" y="688" on="1"/>
        <pt x="207" y="688" on="1"/>
        <pt x="215" y="527" on="1"/>
        <pt x="299" y="517" on="1"/>
        <pt x="299" y="436" on="1"/>
        <pt x="215" y="426" on="1"/>
        <pt x="207" y="0" on="1"/>
        <pt x="123" y="0" on="1"/>
      </contour>
    </TTGlyph>
    <TTGlyph name="daggerdbl" xMin="32" yMin="0" xMax="299" yMax="688">
      <contour>
        <pt x="114" y="162" on="1"/>
        <pt x="32" y="171" on="1"/>
        <pt x="32" y="253" on="1"/>
        <pt x="114" y="263" on="1"/>
        <pt x="114" y="426" on="1"/>
        <pt x="32" y="436" on="1"/>
        <pt x="32" y="517" on="1"/>
        <pt x="114" y="527" on="1"/>
        <pt x="123" y="688" on="1"/>
        <pt x="207" y="688" on="1"/>
        <pt x="215" y="527" on="1"/>
        <pt x="299" y="517" on="1"/>
        <pt x="299" y="436" on="1"/>
        <pt x="215" y="426" on="1"/>
        <pt x="215" y="263" on="1"/>
        <pt x="299" y="253" on="1"/>
        <pt x="299" y="171" on="1"/>
        <pt x="215" y="162" on="1"/>
        <pt x="207" y="0" on="1"/>
        <pt x="123" y="0" on="1"/>
      </contour>
    </TTGlyph>
    <TTGlyph name="dcaron" xMin="29" yMin="-8" xMax="504" yMax="743">
      <component glyphName="d" x="0" y="0" flags="0x0"/>
      <component glyphName="caron.loclCSY" x="356" y="0" flags="0x0"/>
    </TTGlyph>
    <TTGlyph name="dcroat" xMin="29" yMin="-8" xMax="389" yMax="743">
      <contour>
        <pt x="389" y="592" on="1"/>
        <pt x="351" y="592" on="1"/>
        <pt x="351" y="0" on="1"/>
        <pt x="244" y="0" on="1"/>
        <pt x="240" y="61" on="1"/>
        <pt x="233" y="61" on="1"/>
        <pt x="224" y="23" on="0"/>
        <pt x="176" y="-8" on="0"/>
        <pt x="144" y="-8" on="1"/>
        <pt x="98" y="-8" on="0"/>
        <pt x="49" y="36" on="0"/>
        <pt x="29" y="147" on="0"/>
        <pt x="29" y="255" on="1"/>
        <pt x="29" y="360" on="0"/>
        <pt x="48" y="471" on="0"/>
        <pt x="95" y="518" on="0"/>
        <pt x="142" y="518" on="1"/>
        <pt x="179" y="518" on="0"/>
        <pt x="222" y="486" on="0"/>
        <pt x="231" y="454" on="1"/>
        <pt x="238" y="454" on="1"/>
        <pt x="238" y="592" on="1"/>
        <pt x="151" y="592" on="1"/>
        <pt x="151" y="688" on="1"/>
        <pt x="238" y="688" on="1"/>
        <pt x="238" y="743" on="1"/>
        <pt x="351" y="743" on="1"/>
        <pt x="351" y="688" on="1"/>
        <pt x="389" y="688" on="1"/>
      </contour>
      <contour>
        <pt x="238" y="167" on="0"/>
        <pt x="238" y="259" on="1"/>
        <pt x="238" y="344" on="0"/>
        <pt x="234" y="368" on="1"/>
        <pt x="230" y="397" on="0"/>
        <pt x="210" y="416" on="0"/>
        <pt x="189" y="416" on="1"/>
        <pt x="166" y="416" on="0"/>
        <pt x="148" y="398" on="0"/>
        <pt x="142" y="335" on="0"/>
        <pt x="142" y="255" on="1"/>
        <pt x="142" y="175" on="0"/>
        <pt x="148" y="112" on="0"/>
        <pt x="166" y="94" on="0"/>
        <pt x="190" y="94" on="1"/>
        <pt x="210" y="94" on="0"/>
        <pt x="230" y="112" on="0"/>
        <pt x="234" y="136" on="1"/>
      </contour>
    </TTGlyph>
    <TTGlyph name="degree" xMin="32" yMin="397" xMax="256" yMax="696">
      <contour>
        <pt x="90" y="397" on="0"/>
        <pt x="43" y="426" on="0"/>
        <pt x="32" y="483" on="0"/>
        <pt x="32" y="547" on="1"/>
        <pt x="32" y="610" on="0"/>
        <pt x="43" y="668" on="0"/>
        <pt x="90" y="696" on="0"/>
        <pt x="144" y="696" on="1"/>
        <pt x="198" y="696" on="0"/>
        <pt x="245" y="668" on="0"/>
        <pt x="256" y="610" on="0"/>
        <pt x="256" y="547" on="1"/>
        <pt x="256" y="483" on="0"/>
        <pt x="245" y="426" on="0"/>
        <pt x="198" y="397" on="0"/>
        <pt x="144" y="397" on="1"/>
      </contour>
      <contour>
        <pt x="162" y="459" on="0"/>
        <pt x="177" y="472" on="0"/>
        <pt x="180" y="504" on="0"/>
        <pt x="180" y="547" on="1"/>
        <pt x="180" y="590" on="0"/>
        <pt x="177" y="621" on="0"/>
        <pt x="162" y="634" on="0"/>
        <pt x="144" y="634" on="1"/>
        <pt x="126" y="634" on="0"/>
        <pt x="111" y="621" on="0"/>
        <pt x="108" y="590" on="0"/>
        <pt x="108" y="547" on="1"/>
        <pt x="108" y="504" on="0"/>
        <pt x="111" y="472" on="0"/>
        <pt x="126" y="459" on="0"/>
        <pt x="144" y="459" on="1"/>
      </contour>
    </TTGlyph>
    <TTGlyph name="dialog" xMin="59" yMin="-212" xMax="746" yMax="688">
      <contour>
        <pt x="306" y="-127" on="1"/>
        <pt x="494" y="60" on="1"/>
        <pt x="686" y="60" on="1"/>
        <pt x="686" y="628" on="1"/>
        <pt x="119" y="628" on="1"/>
        <pt x="119" y="60" on="1"/>
        <pt x="306" y="60" on="1"/>
        <pt x="306" y="0" on="1"/>
        <pt x="59" y="0" on="1"/>
        <pt x="59" y="688" on="1"/>
        <pt x="746" y="688" on="1"/>
        <pt x="746" y="0" on="1"/>
        <pt x="519" y="0" on="1"/>
        <pt x="306" y="-212" on="1"/>
      </contour>
    </TTGlyph>
    <TTGlyph name="dieresis" xMin="7" yMin="633" xMax="271" yMax="730">
      <contour>
        <pt x="7" y="730" on="1"/>
        <pt x="106" y="730" on="1"/>
        <pt x="106" y="633" on="1"/>
        <pt x="7" y="633" on="1"/>
      </contour>
      <contour>
        <pt x="172" y="730" on="1"/>
        <pt x="271" y="730" on="1"/>
        <pt x="271" y="633" on="1"/>
        <pt x="172" y="633" on="1"/>
      </contour>
    </TTGlyph>
    <TTGlyph name="divide" xMin="52" yMin="52" xMax="394" yMax="454">
      <contour>
        <pt x="172" y="454" on="1"/>
        <pt x="274" y="454" on="1"/>
        <pt x="274" y="368" on="1"/>
        <pt x="172" y="368" on="1"/>
      </contour>
      <contour>
        <pt x="52" y="303" on="1"/>
        <pt x="394" y="303" on="1"/>
        <pt x="394" y="203" on="1"/>
        <pt x="52" y="203" on="1"/>
      </contour>
      <contour>
        <pt x="172" y="139" on="1"/>
        <pt x="274" y="139" on="1"/>
        <pt x="274" y="52" on="1"/>
        <pt x="172" y="52" on="1"/>
      </contour>
    </TTGlyph>
    <TTGlyph name="dollar" xMin="34" yMin="-8" xMax="321" yMax="696">
      <contour>
        <pt x="140" y="72" on="1"/>
        <pt x="82" y="76" on="0"/>
        <pt x="44" y="87" on="1"/>
        <pt x="44" y="179" on="1"/>
        <pt x="62" y="175" on="0"/>
        <pt x="118" y="171" on="0"/>
        <pt x="140" y="171" on="1"/>
        <pt x="178" y="171" on="0"/>
        <pt x="209" y="194" on="0"/>
        <pt x="209" y="231" on="1"/>
        <pt x="209" y="259" on="0"/>
        <pt x="203" y="283" on="0"/>
        <pt x="190" y="291" on="0"/>
        <pt x="175" y="294" on="1"/>
        <pt x="119" y="306" on="1"/>
        <pt x="85" y="314" on="0"/>
        <pt x="49" y="346" on="0"/>
        <pt x="34" y="407" on="0"/>
        <pt x="34" y="459" on="1"/>
        <pt x="34" y="531" on="0"/>
        <pt x="87" y="606" on="0"/>
        <pt x="140" y="615" on="1"/>
        <pt x="140" y="696" on="1"/>
        <pt x="225" y="696" on="1"/>
        <pt x="225" y="617" on="1"/>
        <pt x="246" y="616" on="0"/>
        <pt x="288" y="608" on="0"/>
        <pt x="299" y="603" on="1"/>
        <pt x="299" y="511" on="1"/>
        <pt x="247" y="520" on="0"/>
        <pt x="208" y="520" on="1"/>
        <pt x="173" y="519" on="0"/>
        <pt x="148" y="496" on="0"/>
        <pt x="148" y="464" on="1"/>
        <pt x="148" y="438" on="0"/>
        <pt x="153" y="415" on="0"/>
        <pt x="165" y="407" on="0"/>
        <pt x="179" y="404" on="1"/>
        <pt x="236" y="393" on="1"/>
        <pt x="264" y="387" on="0"/>
        <pt x="300" y="363" on="0"/>
        <pt x="321" y="300" on="0"/>
        <pt x="321" y="241" on="1"/>
        <pt x="321" y="164" on="0"/>
        <pt x="274" y="87" on="0"/>
        <pt x="225" y="76" on="1"/>
        <pt x="225" y="-8" on="1"/>
        <pt x="140" y="-8" on="1"/>
      </contour>
    </TTGlyph>
    <TTGlyph name="dollar.bold" xMin="34" yMin="-8" xMax="321" yMax="696">
      <contour>
        <pt x="321" y="168" on="0"/>
        <pt x="275" y="86" on="0"/>
        <pt x="225" y="75" on="1"/>
        <pt x="225" y="-8" on="1"/>
        <pt x="140" y="-8" on="1"/>
        <pt x="140" y="72" on="1"/>
        <pt x="88" y="75" on="0"/>
        <pt x="44" y="87" on="1"/>
        <pt x="44" y="179" on="1"/>
        <pt x="82" y="171" on="0"/>
        <pt x="140" y="171" on="1"/>
        <pt x="140" y="301" on="1"/>
        <pt x="118" y="306" on="1"/>
        <pt x="85" y="314" on="0"/>
        <pt x="49" y="346" on="0"/>
        <pt x="34" y="407" on="0"/>
        <pt x="34" y="459" on="1"/>
        <pt x="34" y="528" on="0"/>
        <pt x="85" y="605" on="0"/>
        <pt x="140" y="615" on="1"/>
        <pt x="140" y="696" on="1"/>
        <pt x="225" y="696" on="1"/>
        <pt x="225" y="617" on="1"/>
        <pt x="274" y="613" on="0"/>
        <pt x="299" y="603" on="1"/>
        <pt x="299" y="511" on="1"/>
        <pt x="285" y="514" on="0"/>
        <pt x="225" y="519" on="1"/>
        <pt x="225" y="395" on="1"/>
        <pt x="236" y="393" on="1"/>
        <pt x="264" y="387" on="0"/>
        <pt x="300" y="363" on="0"/>
        <pt x="321" y="300" on="0"/>
        <pt x="321" y="241" on="1"/>
      </contour>
    </TTGlyph>
    <TTGlyph name="dotaccent" xMin="4" yMin="633" xMax="103" yMax="730">
      <contour>
        <pt x="4" y="730" on="1"/>
        <pt x="103" y="730" on="1"/>
        <pt x="103" y="633" on="1"/>
        <pt x="4" y="633" on="1"/>
      </contour>
    </TTGlyph>
    <TTGlyph name="dotbelowcomb" xMin="-171" yMin="-183" xMax="-47" yMax="-62">
      <contour>
        <pt x="-171" y="-62" on="1"/>
        <pt x="-47" y="-62" on="1"/>
        <pt x="-47" y="-183" on="1"/>
        <pt x="-171" y="-183" on="1"/>
      </contour>
    </TTGlyph>
    <TTGlyph name="dotlessi" xMin="39" yMin="0" xMax="152" yMax="510">
      <contour>
        <pt x="39" y="510" on="1"/>
        <pt x="152" y="510" on="1"/>
        <pt x="152" y="0" on="1"/>
        <pt x="39" y="0" on="1"/>
      </contour>
    </TTGlyph>
    <TTGlyph name="e" xMin="29" yMin="-8" xMax="341" yMax="518">
      <contour>
        <pt x="341" y="221" on="1"/>
        <pt x="142" y="221" on="1"/>
        <pt x="142" y="157" on="0"/>
        <pt x="151" y="106" on="0"/>
        <pt x="182" y="88" on="0"/>
        <pt x="221" y="88" on="1"/>
        <pt x="256" y="88" on="0"/>
        <pt x="331" y="95" on="1"/>
        <pt x="331" y="6" on="1"/>
        <pt x="308" y="0" on="0"/>
        <pt x="232" y="-8" on="0"/>
        <pt x="196" y="-8" on="1"/>
        <pt x="119" y="-8" on="0"/>
        <pt x="48" y="44" on="0"/>
        <pt x="29" y="149" on="0"/>
        <pt x="29" y="254" on="1"/>
        <pt x="29" y="359" on="0"/>
        <pt x="48" y="464" on="0"/>
        <pt x="117" y="518" on="0"/>
        <pt x="191" y="518" on="1"/>
        <pt x="263" y="518" on="0"/>
        <pt x="326" y="468" on="0"/>
        <pt x="341" y="367" on="0"/>
        <pt x="341" y="255" on="1"/>
      </contour>
      <contour>
        <pt x="168" y="422" on="0"/>
        <pt x="149" y="407" on="0"/>
        <pt x="142" y="357" on="0"/>
        <pt x="142" y="299" on="1"/>
        <pt x="235" y="299" on="1"/>
        <pt x="235" y="304" on="1"/>
        <pt x="235" y="360" on="0"/>
        <pt x="229" y="407" on="0"/>
        <pt x="211" y="422" on="0"/>
        <pt x="190" y="422" on="1"/>
      </contour>
    </TTGlyph>
    <TTGlyph name="eacute" xMin="29" yMin="-8" xMax="341" yMax="743">
      <component glyphName="e" x="0" y="0" flags="0x0"/>
      <component glyphName="acute" x="146" y="0" flags="0x0"/>
    </TTGlyph>
    <TTGlyph name="ebreve" xMin="29" yMin="-8" xMax="341" yMax="743">
      <component glyphName="e" x="0" y="0" flags="0x0"/>
      <component glyphName="uni0306" x="303" y="0" flags="0x0"/>
    </TTGlyph>
    <TTGlyph name="ecaron" xMin="29" yMin="-8" xMax="341" yMax="743">
      <component glyphName="e" x="0" y="0" flags="0x0"/>
      <component glyphName="uni030C" x="310" y="0" flags="0x0"/>
    </TTGlyph>
    <TTGlyph name="ecircumflex" xMin="29" yMin="-8" xMax="341" yMax="743">
      <component glyphName="e" x="0" y="0" flags="0x0"/>
      <component glyphName="circumflex" x="68" y="0" flags="0x0"/>
    </TTGlyph>
    <TTGlyph name="edieresis" xMin="29" yMin="-8" xMax="341" yMax="730">
      <component glyphName="e" x="0" y="0" flags="0x0"/>
      <component glyphName="dieresis" x="52" y="0" flags="0x0"/>
    </TTGlyph>
    <TTGlyph name="edotaccent" xMin="29" yMin="-8" xMax="341" yMax="730">
      <component glyphName="e" x="0" y="0" flags="0x0"/>
      <component glyphName="uni0307" x="237" y="0" flags="0x0"/>
    </TTGlyph>
    <TTGlyph name="egrave" xMin="29" yMin="-8" xMax="341" yMax="743">
      <component glyphName="e" x="0" y="0" flags="0x0"/>
      <component glyphName="grave" x="95" y="0" flags="0x0"/>
    </TTGlyph>
    <TTGlyph name="eight" xMin="28" yMin="-8" xMax="377" yMax="696">
      <contour>
        <pt x="137" y="-8" on="0"/>
        <pt x="62" y="28" on="0"/>
        <pt x="28" y="110" on="0"/>
        <pt x="28" y="181" on="1"/>
        <pt x="28" y="264" on="0"/>
        <pt x="68" y="336" on="0"/>
        <pt x="112" y="349" on="1"/>
        <pt x="112" y="353" on="1"/>
        <pt x="72" y="365" on="0"/>
        <pt x="34" y="443" on="0"/>
        <pt x="34" y="519" on="1"/>
        <pt x="34" y="588" on="0"/>
        <pt x="70" y="665" on="0"/>
        <pt x="142" y="696" on="0"/>
        <pt x="202" y="696" on="1"/>
        <pt x="262" y="696" on="0"/>
        <pt x="334" y="665" on="0"/>
        <pt x="370" y="588" on="0"/>
        <pt x="370" y="519" on="1"/>
        <pt x="370" y="443" on="0"/>
        <pt x="332" y="365" on="0"/>
        <pt x="292" y="353" on="1"/>
        <pt x="292" y="349" on="1"/>
        <pt x="337" y="336" on="0"/>
        <pt x="377" y="264" on="0"/>
        <pt x="377" y="181" on="1"/>
        <pt x="377" y="110" on="0"/>
        <pt x="342" y="28" on="0"/>
        <pt x="267" y="-8" on="0"/>
        <pt x="202" y="-8" on="1"/>
      </contour>
      <contour>
        <pt x="226" y="398" on="0"/>
        <pt x="246" y="411" on="0"/>
        <pt x="253" y="449" on="0"/>
        <pt x="253" y="494" on="1"/>
        <pt x="253" y="540" on="0"/>
        <pt x="246" y="579" on="0"/>
        <pt x="226" y="592" on="0"/>
        <pt x="202" y="592" on="1"/>
        <pt x="178" y="592" on="0"/>
        <pt x="158" y="579" on="0"/>
        <pt x="151" y="540" on="0"/>
        <pt x="151" y="494" on="1"/>
        <pt x="151" y="449" on="0"/>
        <pt x="158" y="411" on="0"/>
        <pt x="178" y="398" on="0"/>
        <pt x="202" y="398" on="1"/>
      </contour>
      <contour>
        <pt x="225" y="96" on="0"/>
        <pt x="247" y="110" on="0"/>
        <pt x="255" y="151" on="0"/>
        <pt x="255" y="196" on="1"/>
        <pt x="255" y="243" on="0"/>
        <pt x="248" y="285" on="0"/>
        <pt x="226" y="298" on="0"/>
        <pt x="202" y="298" on="1"/>
        <pt x="178" y="298" on="0"/>
        <pt x="156" y="285" on="0"/>
        <pt x="149" y="243" on="0"/>
        <pt x="149" y="196" on="1"/>
        <pt x="149" y="151" on="0"/>
        <pt x="157" y="110" on="0"/>
        <pt x="179" y="96" on="0"/>
        <pt x="202" y="96" on="1"/>
      </contour>
    </TTGlyph>
    <TTGlyph name="eight.dnom" xMin="12" yMin="-4" xMax="229" yMax="384">
      <contour>
        <pt x="61" y="-4" on="0"/>
        <pt x="12" y="43" on="0"/>
        <pt x="12" y="100" on="1"/>
        <pt x="12" y="146" on="0"/>
        <pt x="37" y="186" on="0"/>
        <pt x="64" y="193" on="1"/>
        <pt x="64" y="195" on="1"/>
        <pt x="39" y="202" on="0"/>
        <pt x="15" y="245" on="0"/>
        <pt x="15" y="286" on="1"/>
        <pt x="15" y="341" on="0"/>
        <pt x="64" y="384" on="0"/>
        <pt x="120" y="384" on="1"/>
        <pt x="175" y="384" on="0"/>
        <pt x="225" y="341" on="0"/>
        <pt x="225" y="286" on="1"/>
        <pt x="225" y="245" on="0"/>
        <pt x="201" y="202" on="0"/>
        <pt x="176" y="195" on="1"/>
        <pt x="176" y="193" on="1"/>
        <pt x="203" y="186" on="0"/>
        <pt x="229" y="146" on="0"/>
        <pt x="229" y="100" on="1"/>
        <pt x="229" y="43" on="0"/>
        <pt x="180" y="-4" on="0"/>
        <pt x="120" y="-4" on="1"/>
      </contour>
      <contour>
        <pt x="135" y="220" on="0"/>
        <pt x="148" y="227" on="0"/>
        <pt x="153" y="248" on="0"/>
        <pt x="153" y="272" on="1"/>
        <pt x="153" y="296" on="0"/>
        <pt x="148" y="318" on="0"/>
        <pt x="135" y="326" on="0"/>
        <pt x="120" y="326" on="1"/>
        <pt x="99" y="326" on="0"/>
        <pt x="87" y="306" on="0"/>
        <pt x="87" y="272" on="1"/>
        <pt x="87" y="248" on="0"/>
        <pt x="92" y="227" on="0"/>
        <pt x="105" y="220" on="0"/>
        <pt x="120" y="220" on="1"/>
      </contour>
      <contour>
        <pt x="142" y="54" on="0"/>
        <pt x="155" y="74" on="0"/>
        <pt x="155" y="109" on="1"/>
        <pt x="155" y="134" on="0"/>
        <pt x="150" y="157" on="0"/>
        <pt x="135" y="165" on="0"/>
        <pt x="120" y="165" on="1"/>
        <pt x="105" y="165" on="0"/>
        <pt x="91" y="157" on="0"/>
        <pt x="86" y="134" on="0"/>
        <pt x="86" y="109" on="1"/>
        <pt x="86" y="84" on="0"/>
        <pt x="91" y="62" on="0"/>
        <pt x="105" y="54" on="0"/>
        <pt x="120" y="54" on="1"/>
      </contour>
    </TTGlyph>
    <TTGlyph name="eight.numr" xMin="12" yMin="304" xMax="229" yMax="692">
      <component glyphName="eight.dnom" x="0" y="308" flags="0x4"/>
    </TTGlyph>
    <TTGlyph name="eight.tnum" xMin="27" yMin="-8" xMax="376" yMax="696">
      <contour>
        <pt x="137" y="-8" on="0"/>
        <pt x="62" y="28" on="0"/>
        <pt x="27" y="110" on="0"/>
        <pt x="27" y="181" on="1"/>
        <pt x="27" y="264" on="0"/>
        <pt x="67" y="336" on="0"/>
        <pt x="111" y="349" on="1"/>
        <pt x="111" y="353" on="1"/>
        <pt x="71" y="365" on="0"/>
        <pt x="33" y="443" on="0"/>
        <pt x="33" y="519" on="1"/>
        <pt x="33" y="587" on="0"/>
        <pt x="69" y="665" on="0"/>
        <pt x="142" y="696" on="0"/>
        <pt x="201" y="696" on="1"/>
        <pt x="261" y="696" on="0"/>
        <pt x="334" y="665" on="0"/>
        <pt x="370" y="587" on="0"/>
        <pt x="370" y="519" on="1"/>
        <pt x="370" y="443" on="0"/>
        <pt x="332" y="365" on="0"/>
        <pt x="292" y="353" on="1"/>
        <pt x="292" y="349" on="1"/>
        <pt x="336" y="336" on="0"/>
        <pt x="376" y="264" on="0"/>
        <pt x="376" y="181" on="1"/>
        <pt x="376" y="110" on="0"/>
        <pt x="341" y="28" on="0"/>
        <pt x="266" y="-8" on="0"/>
        <pt x="201" y="-8" on="1"/>
      </contour>
      <contour>
        <pt x="225" y="398" on="0"/>
        <pt x="246" y="411" on="0"/>
        <pt x="253" y="450" on="0"/>
        <pt x="253" y="494" on="1"/>
        <pt x="253" y="539" on="0"/>
        <pt x="246" y="579" on="0"/>
        <pt x="225" y="592" on="0"/>
        <pt x="201" y="592" on="1"/>
        <pt x="177" y="592" on="0"/>
        <pt x="157" y="579" on="0"/>
        <pt x="150" y="539" on="0"/>
        <pt x="150" y="494" on="1"/>
        <pt x="150" y="450" on="0"/>
        <pt x="157" y="411" on="0"/>
        <pt x="178" y="398" on="0"/>
        <pt x="201" y="398" on="1"/>
      </contour>
      <contour>
        <pt x="225" y="96" on="0"/>
        <pt x="246" y="110" on="0"/>
        <pt x="254" y="150" on="0"/>
        <pt x="254" y="196" on="1"/>
        <pt x="254" y="243" on="0"/>
        <pt x="247" y="285" on="0"/>
        <pt x="225" y="298" on="0"/>
        <pt x="201" y="298" on="1"/>
        <pt x="177" y="298" on="0"/>
        <pt x="156" y="285" on="0"/>
        <pt x="149" y="244" on="0"/>
        <pt x="149" y="196" on="1"/>
        <pt x="149" y="150" on="0"/>
        <pt x="157" y="110" on="0"/>
        <pt x="178" y="96" on="0"/>
        <pt x="201" y="96" on="1"/>
      </contour>
    </TTGlyph>
    <TTGlyph name="ellipsis" xMin="47" yMin="0" xMax="606" yMax="121">
      <contour>
        <pt x="47" y="121" on="1"/>
        <pt x="171" y="121" on="1"/>
        <pt x="171" y="0" on="1"/>
        <pt x="47" y="0" on="1"/>
      </contour>
      <contour>
        <pt x="265" y="121" on="1"/>
        <pt x="388" y="121" on="1"/>
        <pt x="388" y="0" on="1"/>
        <pt x="265" y="0" on="1"/>
      </contour>
      <contour>
        <pt x="482" y="121" on="1"/>
        <pt x="606" y="121" on="1"/>
        <pt x="606" y="0" on="1"/>
        <pt x="482" y="0" on="1"/>
      </contour>
    </TTGlyph>
    <TTGlyph name="emacron" xMin="29" yMin="-8" xMax="341" yMax="743">
      <component glyphName="e" x="0" y="0" flags="0x0"/>
      <component glyphName="uni0304" x="320" y="0" flags="0x0"/>
    </TTGlyph>
    <TTGlyph name="emdash" xMin="44" yMin="256" xMax="750" yMax="354">
      <contour>
        <pt x="44" y="354" on="1"/>
        <pt x="750" y="354" on="1"/>
        <pt x="750" y="256" on="1"/>
        <pt x="44" y="256" on="1"/>
      </contour>
    </TTGlyph>
    <TTGlyph name="endash" xMin="44" yMin="256" xMax="386" yMax="354">
      <contour>
        <pt x="44" y="354" on="1"/>
        <pt x="386" y="354" on="1"/>
        <pt x="386" y="256" on="1"/>
        <pt x="44" y="256" on="1"/>
      </contour>
    </TTGlyph>
    <TTGlyph name="eng" xMin="39" yMin="-196" xMax="356" yMax="518">
      <contour>
        <pt x="299" y="518" on="0"/>
        <pt x="341" y="483" on="0"/>
        <pt x="356" y="408" on="0"/>
        <pt x="356" y="339" on="1"/>
        <pt x="356" y="-2" on="1"/>
        <pt x="356" y="-92" on="0"/>
        <pt x="328" y="-172" on="0"/>
        <pt x="263" y="-196" on="0"/>
        <pt x="192" y="-196" on="1"/>
        <pt x="192" y="-109" on="1"/>
        <pt x="216" y="-109" on="0"/>
        <pt x="238" y="-99" on="0"/>
        <pt x="243" y="-79" on="0"/>
        <pt x="243" y="-57" on="1"/>
        <pt x="243" y="285" on="1"/>
        <pt x="243" y="350" on="0"/>
        <pt x="238" y="401" on="0"/>
        <pt x="221" y="416" on="0"/>
        <pt x="199" y="416" on="1"/>
        <pt x="175" y="416" on="0"/>
        <pt x="156" y="390" on="0"/>
        <pt x="152" y="331" on="0"/>
        <pt x="152" y="256" on="1"/>
        <pt x="152" y="0" on="1"/>
        <pt x="39" y="0" on="1"/>
        <pt x="39" y="510" on="1"/>
        <pt x="146" y="510" on="1"/>
        <pt x="150" y="448" on="1"/>
        <pt x="158" y="448" on="1"/>
        <pt x="178" y="518" on="0"/>
        <pt x="256" y="518" on="1"/>
      </contour>
    </TTGlyph>
    <TTGlyph name="eogonek" xMin="29" yMin="-196" xMax="341" yMax="518">
      <contour>
        <pt x="341" y="221" on="1"/>
        <pt x="142" y="221" on="1"/>
        <pt x="142" y="157" on="0"/>
        <pt x="151" y="106" on="0"/>
        <pt x="182" y="88" on="0"/>
        <pt x="221" y="88" on="1"/>
        <pt x="256" y="88" on="0"/>
        <pt x="331" y="95" on="1"/>
        <pt x="331" y="6" on="1"/>
        <pt x="310" y="-12" on="0"/>
        <pt x="275" y="-66" on="0"/>
        <pt x="275" y="-94" on="1"/>
        <pt x="275" y="-131" on="0"/>
        <pt x="312" y="-131" on="1"/>
        <pt x="324" y="-130" on="1"/>
        <pt x="324" y="-192" on="1"/>
        <pt x="308" y="-196" on="0"/>
        <pt x="280" y="-196" on="1"/>
        <pt x="232" y="-196" on="0"/>
        <pt x="188" y="-149" on="0"/>
        <pt x="188" y="-113" on="1"/>
        <pt x="188" y="-60" on="0"/>
        <pt x="238" y="-6" on="1"/>
        <pt x="223" y="-8" on="0"/>
        <pt x="196" y="-8" on="1"/>
        <pt x="119" y="-8" on="0"/>
        <pt x="48" y="44" on="0"/>
        <pt x="29" y="149" on="0"/>
        <pt x="29" y="254" on="1"/>
        <pt x="29" y="359" on="0"/>
        <pt x="48" y="464" on="0"/>
        <pt x="117" y="518" on="0"/>
        <pt x="191" y="518" on="1"/>
        <pt x="263" y="518" on="0"/>
        <pt x="326" y="468" on="0"/>
        <pt x="341" y="367" on="0"/>
        <pt x="341" y="255" on="1"/>
      </contour>
      <contour>
        <pt x="168" y="422" on="0"/>
        <pt x="149" y="407" on="0"/>
        <pt x="142" y="357" on="0"/>
        <pt x="142" y="299" on="1"/>
        <pt x="235" y="299" on="1"/>
        <pt x="235" y="304" on="1"/>
        <pt x="235" y="360" on="0"/>
        <pt x="229" y="407" on="0"/>
        <pt x="211" y="422" on="0"/>
        <pt x="190" y="422" on="1"/>
      </contour>
    </TTGlyph>
    <TTGlyph name="equal" xMin="52" yMin="117" xMax="394" yMax="389">
      <contour>
        <pt x="52" y="389" on="1"/>
        <pt x="394" y="389" on="1"/>
        <pt x="394" y="289" on="1"/>
        <pt x="52" y="289" on="1"/>
      </contour>
      <contour>
        <pt x="52" y="217" on="1"/>
        <pt x="394" y="217" on="1"/>
        <pt x="394" y="117" on="1"/>
        <pt x="52" y="117" on="1"/>
      </contour>
    </TTGlyph>
    <TTGlyph name="estimated" xMin="32" yMin="-8" xMax="391" yMax="696">
      <contour>
        <pt x="152" y="171" on="0"/>
        <pt x="162" y="55" on="0"/>
        <pt x="192" y="26" on="0"/>
        <pt x="232" y="26" on="1"/>
        <pt x="273" y="26" on="0"/>
        <pt x="317" y="45" on="0"/>
        <pt x="345" y="119" on="0"/>
        <pt x="349" y="200" on="1"/>
        <pt x="385" y="200" on="1"/>
        <pt x="381" y="117" on="0"/>
        <pt x="351" y="30" on="0"/>
        <pt x="280" y="-8" on="0"/>
        <pt x="211" y="-8" on="1"/>
        <pt x="124" y="-8" on="0"/>
        <pt x="51" y="52" on="0"/>
        <pt x="32" y="187" on="0"/>
        <pt x="32" y="344" on="1"/>
        <pt x="32" y="501" on="0"/>
        <pt x="51" y="636" on="0"/>
        <pt x="124" y="696" on="0"/>
        <pt x="211" y="696" on="1"/>
        <pt x="298" y="696" on="0"/>
        <pt x="372" y="636" on="0"/>
        <pt x="391" y="501" on="0"/>
        <pt x="391" y="344" on="1"/>
        <pt x="391" y="323" on="1"/>
        <pt x="152" y="323" on="1"/>
      </contour>
      <contour>
        <pt x="182" y="662" on="0"/>
        <pt x="160" y="632" on="0"/>
        <pt x="152" y="512" on="0"/>
        <pt x="152" y="357" on="1"/>
        <pt x="270" y="357" on="1"/>
        <pt x="270" y="513" on="0"/>
        <pt x="262" y="632" on="0"/>
        <pt x="241" y="662" on="0"/>
        <pt x="211" y="662" on="1"/>
      </contour>
    </TTGlyph>
    <TTGlyph name="eth" xMin="29" yMin="-8" xMax="352" yMax="743">
      <contour>
        <pt x="115" y="-8" on="0"/>
        <pt x="48" y="37" on="0"/>
        <pt x="29" y="141" on="0"/>
        <pt x="29" y="254" on="1"/>
        <pt x="29" y="356" on="0"/>
        <pt x="45" y="463" on="0"/>
        <pt x="99" y="518" on="0"/>
        <pt x="155" y="518" on="1"/>
        <pt x="190" y="518" on="0"/>
        <pt x="215" y="504" on="1"/>
        <pt x="218" y="507" on="1"/>
        <pt x="204" y="571" on="0"/>
        <pt x="188" y="610" on="1"/>
        <pt x="107" y="597" on="1"/>
        <pt x="107" y="665" on="1"/>
        <pt x="160" y="673" on="1"/>
        <pt x="146" y="700" on="0"/>
        <pt x="120" y="739" on="1"/>
        <pt x="120" y="743" on="1"/>
        <pt x="234" y="743" on="1"/>
        <pt x="250" y="721" on="0"/>
        <pt x="268" y="689" on="1"/>
        <pt x="344" y="701" on="1"/>
        <pt x="344" y="633" on="1"/>
        <pt x="297" y="626" on="1"/>
        <pt x="327" y="549" on="0"/>
        <pt x="341" y="446" on="1"/>
        <pt x="352" y="362" on="0"/>
        <pt x="352" y="259" on="1"/>
        <pt x="352" y="143" on="0"/>
        <pt x="333" y="38" on="0"/>
        <pt x="266" y="-8" on="0"/>
        <pt x="191" y="-8" on="1"/>
      </contour>
      <contour>
        <pt x="215" y="88" on="0"/>
        <pt x="234" y="109" on="0"/>
        <pt x="239" y="171" on="0"/>
        <pt x="239" y="255" on="1"/>
        <pt x="239" y="335" on="0"/>
        <pt x="234" y="398" on="0"/>
        <pt x="215" y="422" on="0"/>
        <pt x="190" y="422" on="1"/>
        <pt x="165" y="422" on="0"/>
        <pt x="147" y="402" on="0"/>
        <pt x="142" y="340" on="0"/>
        <pt x="142" y="255" on="1"/>
        <pt x="142" y="171" on="0"/>
        <pt x="147" y="109" on="0"/>
        <pt x="165" y="88" on="0"/>
        <pt x="190" y="88" on="1"/>
      </contour>
    </TTGlyph>
    <TTGlyph name="exclam" xMin="44" yMin="0" xMax="183" yMax="688">
      <contour>
        <pt x="44" y="551" on="0"/>
        <pt x="44" y="617" on="1"/>
        <pt x="44" y="688" on="1"/>
        <pt x="183" y="688" on="1"/>
        <pt x="183" y="617" on="1"/>
        <pt x="183" y="581" on="0"/>
        <pt x="163" y="346" on="0"/>
        <pt x="149" y="209" on="1"/>
        <pt x="78" y="209" on="1"/>
      </contour>
      <contour>
        <pt x="52" y="121" on="1"/>
        <pt x="175" y="121" on="1"/>
        <pt x="175" y="0" on="1"/>
        <pt x="52" y="0" on="1"/>
      </contour>
    </TTGlyph>
    <TTGlyph name="exclam.case" xMin="44" yMin="0" xMax="183" yMax="688">
      <component glyphName="exclam" x="0" y="0" flags="0x0"/>
    </TTGlyph>
    <TTGlyph name="exclam.ss02" xMin="45" yMin="-8" xMax="749" yMax="696">
      <contour>
        <pt x="302" y="-8" on="0"/>
        <pt x="140" y="87" on="0"/>
        <pt x="45" y="249" on="0"/>
        <pt x="45" y="344" on="1"/>
        <pt x="45" y="439" on="0"/>
        <pt x="140" y="601" on="0"/>
        <pt x="302" y="696" on="0"/>
        <pt x="397" y="696" on="1"/>
        <pt x="492" y="696" on="0"/>
        <pt x="654" y="601" on="0"/>
        <pt x="749" y="439" on="0"/>
        <pt x="749" y="344" on="1"/>
        <pt x="749" y="249" on="0"/>
        <pt x="654" y="87" on="0"/>
        <pt x="492" y="-8" on="0"/>
        <pt x="397" y="-8" on="1"/>
      </contour>
      <contour>
        <pt x="480" y="37" on="0"/>
        <pt x="621" y="120" on="0"/>
        <pt x="704" y="261" on="0"/>
        <pt x="704" y="344" on="1"/>
        <pt x="704" y="427" on="0"/>
        <pt x="621" y="568" on="0"/>
        <pt x="480" y="651" on="0"/>
        <pt x="397" y="651" on="1"/>
        <pt x="314" y="651" on="0"/>
        <pt x="173" y="568" on="0"/>
        <pt x="90" y="427" on="0"/>
        <pt x="90" y="344" on="1"/>
        <pt x="90" y="261" on="0"/>
        <pt x="173" y="120" on="0"/>
        <pt x="314" y="37" on="0"/>
        <pt x="397" y="37" on="1"/>
      </contour>
      <contour>
        <pt x="371" y="310" on="0"/>
        <pt x="363" y="429" on="0"/>
        <pt x="363" y="480" on="1"/>
        <pt x="363" y="579" on="1"/>
        <pt x="431" y="579" on="1"/>
        <pt x="431" y="480" on="1"/>
        <pt x="431" y="429" on="0"/>
        <pt x="423" y="310" on="0"/>
        <pt x="417" y="268" on="1"/>
        <pt x="377" y="268" on="1"/>
      </contour>
      <contour>
        <pt x="363" y="191" on="1"/>
        <pt x="431" y="191" on="1"/>
        <pt x="431" y="109" on="1"/>
        <pt x="363" y="109" on="1"/>
      </contour>
    </TTGlyph>
    <TTGlyph name="exclamdbl" xMin="44" yMin="0" xMax="373" yMax="688">
      <component glyphName="exclam" x="190" y="0" flags="0x0"/>
      <component glyphName="exclam" x="0" y="0" flags="0x0"/>
    </TTGlyph>
    <TTGlyph name="exclamdown" xMin="44" yMin="-178" xMax="183" yMax="510">
      <contour>
        <pt x="52" y="510" on="1"/>
        <pt x="175" y="510" on="1"/>
        <pt x="175" y="389" on="1"/>
        <pt x="52" y="389" on="1"/>
      </contour>
      <contour>
        <pt x="44" y="-107" on="1"/>
        <pt x="44" y="-71" on="0"/>
        <pt x="64" y="164" on="0"/>
        <pt x="78" y="301" on="1"/>
        <pt x="149" y="301" on="1"/>
        <pt x="163" y="164" on="0"/>
        <pt x="183" y="-71" on="0"/>
        <pt x="183" y="-107" on="1"/>
        <pt x="183" y="-178" on="1"/>
        <pt x="44" y="-178" on="1"/>
      </contour>
    </TTGlyph>
    <TTGlyph name="exclamdown.case" xMin="44" yMin="0" xMax="183" yMax="688">
      <component glyphName="exclamdown" x="0" y="178" flags="0x4"/>
    </TTGlyph>
    <TTGlyph name="f" xMin="13" yMin="0" xMax="247" yMax="743">
      <contour>
        <pt x="64" y="414" on="1"/>
        <pt x="13" y="414" on="1"/>
        <pt x="13" y="510" on="1"/>
        <pt x="64" y="510" on="1"/>
        <pt x="64" y="548" on="1"/>
        <pt x="64" y="641" on="0"/>
        <pt x="92" y="720" on="0"/>
        <pt x="163" y="743" on="0"/>
        <pt x="247" y="743" on="1"/>
        <pt x="247" y="658" on="1"/>
        <pt x="214" y="658" on="0"/>
        <pt x="187" y="648" on="0"/>
        <pt x="177" y="616" on="0"/>
        <pt x="177" y="577" on="1"/>
        <pt x="177" y="510" on="1"/>
        <pt x="247" y="510" on="1"/>
        <pt x="247" y="414" on="1"/>
        <pt x="177" y="414" on="1"/>
        <pt x="177" y="0" on="1"/>
        <pt x="64" y="0" on="1"/>
      </contour>
    </TTGlyph>
    <TTGlyph name="f_f" xMin="13" yMin="0" xMax="511" yMax="743">
      <component glyphName="f" x="0" y="0" flags="0x0"/>
      <component glyphName="f" x="264" y="0" flags="0x0"/>
    </TTGlyph>
    <TTGlyph name="fi" xMin="13" yMin="0" xMax="417" yMax="743">
      <component glyphName="f" x="0" y="0" flags="0x0"/>
      <component glyphName="i" x="264" y="0" flags="0x0"/>
    </TTGlyph>
    <TTGlyph name="five" xMin="38" yMin="-8" xMax="355" yMax="688">
      <contour>
        <pt x="106" y="101" on="0"/>
        <pt x="144" y="101" on="1"/>
        <pt x="186" y="101" on="0"/>
        <pt x="222" y="116" on="0"/>
        <pt x="235" y="161" on="0"/>
        <pt x="235" y="212" on="1"/>
        <pt x="235" y="266" on="0"/>
        <pt x="223" y="309" on="0"/>
        <pt x="187" y="323" on="0"/>
        <pt x="142" y="323" on="1"/>
        <pt x="94" y="323" on="0"/>
        <pt x="41" y="315" on="1"/>
        <pt x="41" y="688" on="1"/>
        <pt x="333" y="688" on="1"/>
        <pt x="333" y="579" on="1"/>
        <pt x="153" y="579" on="1"/>
        <pt x="153" y="425" on="1"/>
        <pt x="176" y="432" on="0"/>
        <pt x="212" y="432" on="1"/>
        <pt x="269" y="432" on="0"/>
        <pt x="332" y="384" on="0"/>
        <pt x="355" y="295" on="0"/>
        <pt x="355" y="225" on="1"/>
        <pt x="355" y="135" on="0"/>
        <pt x="327" y="36" on="0"/>
        <pt x="253" y="-8" on="0"/>
        <pt x="183" y="-8" on="1"/>
        <pt x="150" y="-8" on="0"/>
        <pt x="68" y="2" on="0"/>
        <pt x="38" y="9" on="1"/>
        <pt x="38" y="108" on="1"/>
      </contour>
    </TTGlyph>
    <TTGlyph name="five.dnom" xMin="35" yMin="-4" xMax="218" yMax="379">
      <contour>
        <pt x="73" y="58" on="0"/>
        <pt x="98" y="58" on="1"/>
        <pt x="121" y="58" on="0"/>
        <pt x="138" y="66" on="0"/>
        <pt x="142" y="90" on="0"/>
        <pt x="142" y="124" on="1"/>
        <pt x="142" y="151" on="0"/>
        <pt x="138" y="170" on="0"/>
        <pt x="120" y="176" on="0"/>
        <pt x="97" y="176" on="1"/>
        <pt x="67" y="176" on="0"/>
        <pt x="38" y="172" on="1"/>
        <pt x="38" y="379" on="1"/>
        <pt x="204" y="379" on="1"/>
        <pt x="204" y="317" on="1"/>
        <pt x="105" y="317" on="1"/>
        <pt x="105" y="235" on="1"/>
        <pt x="117" y="238" on="0"/>
        <pt x="139" y="238" on="1"/>
        <pt x="185" y="238" on="0"/>
        <pt x="218" y="184" on="0"/>
        <pt x="218" y="124" on="1"/>
        <pt x="218" y="73" on="0"/>
        <pt x="201" y="19" on="0"/>
        <pt x="159" y="-4" on="0"/>
        <pt x="118" y="-4" on="1"/>
        <pt x="76" y="-4" on="0"/>
        <pt x="35" y="5" on="1"/>
        <pt x="35" y="63" on="1"/>
      </contour>
    </TTGlyph>
    <TTGlyph name="five.numr" xMin="35" yMin="304" xMax="218" yMax="687">
      <contour>
        <pt x="73" y="366" on="0"/>
        <pt x="98" y="366" on="1"/>
        <pt x="121" y="366" on="0"/>
        <pt x="138" y="374" on="0"/>
        <pt x="142" y="398" on="0"/>
        <pt x="142" y="432" on="1"/>
        <pt x="142" y="459" on="0"/>
        <pt x="138" y="478" on="0"/>
        <pt x="120" y="484" on="0"/>
        <pt x="97" y="484" on="1"/>
        <pt x="67" y="484" on="0"/>
        <pt x="38" y="480" on="1"/>
        <pt x="38" y="687" on="1"/>
        <pt x="204" y="687" on="1"/>
        <pt x="204" y="625" on="1"/>
        <pt x="105" y="625" on="1"/>
        <pt x="105" y="543" on="1"/>
        <pt x="117" y="546" on="0"/>
        <pt x="139" y="546" on="1"/>
        <pt x="185" y="546" on="0"/>
        <pt x="218" y="492" on="0"/>
        <pt x="218" y="432" on="1"/>
        <pt x="218" y="381" on="0"/>
        <pt x="201" y="327" on="0"/>
        <pt x="159" y="304" on="0"/>
        <pt x="118" y="304" on="1"/>
        <pt x="76" y="304" on="0"/>
        <pt x="35" y="313" on="1"/>
        <pt x="35" y="371" on="1"/>
      </contour>
    </TTGlyph>
    <TTGlyph name="five.tnum" xMin="45" yMin="-8" xMax="363" yMax="688">
      <contour>
        <pt x="113" y="101" on="0"/>
        <pt x="152" y="101" on="1"/>
        <pt x="194" y="101" on="0"/>
        <pt x="230" y="116" on="0"/>
        <pt x="243" y="161" on="0"/>
        <pt x="243" y="212" on="1"/>
        <pt x="243" y="266" on="0"/>
        <pt x="231" y="309" on="0"/>
        <pt x="195" y="323" on="0"/>
        <pt x="150" y="323" on="1"/>
        <pt x="102" y="323" on="0"/>
        <pt x="49" y="315" on="1"/>
        <pt x="49" y="688" on="1"/>
        <pt x="341" y="688" on="1"/>
        <pt x="341" y="579" on="1"/>
        <pt x="161" y="579" on="1"/>
        <pt x="161" y="425" on="1"/>
        <pt x="184" y="432" on="0"/>
        <pt x="220" y="432" on="1"/>
        <pt x="277" y="432" on="0"/>
        <pt x="340" y="384" on="0"/>
        <pt x="363" y="295" on="0"/>
        <pt x="363" y="225" on="1"/>
        <pt x="363" y="135" on="0"/>
        <pt x="335" y="36" on="0"/>
        <pt x="261" y="-8" on="0"/>
        <pt x="191" y="-8" on="1"/>
        <pt x="158" y="-8" on="0"/>
        <pt x="76" y="2" on="0"/>
        <pt x="45" y="9" on="1"/>
        <pt x="45" y="108" on="1"/>
      </contour>
    </TTGlyph>
    <TTGlyph name="fiveeighths" xMin="35" yMin="-4" xMax="587" yMax="688">
      <component glyphName="five.numr" x="0" y="0" flags="0x0"/>
      <component glyphName="fraction" x="236" y="0" flags="0x0"/>
      <component glyphName="eight.dnom" x="358" y="0" flags="0x0"/>
    </TTGlyph>
    <TTGlyph name="fl" xMin="13" yMin="0" xMax="416" yMax="743">
      <component glyphName="f" x="0" y="0" flags="0x0"/>
      <component glyphName="l" x="264" y="0" flags="0x0"/>
    </TTGlyph>
    <TTGlyph name="florin" xMin="-80" yMin="-196" xMax="372" yMax="743">
      <contour>
        <pt x="321" y="658" on="0"/>
        <pt x="290" y="643" on="0"/>
        <pt x="268" y="588" on="0"/>
        <pt x="254" y="520" on="1"/>
        <pt x="252" y="510" on="1"/>
        <pt x="322" y="510" on="1"/>
        <pt x="302" y="414" on="1"/>
        <pt x="232" y="414" on="1"/>
        <pt x="142" y="-7" on="1"/>
        <pt x="124" y="-96" on="0"/>
        <pt x="80" y="-173" on="0"/>
        <pt x="3" y="-196" on="0"/>
        <pt x="-80" y="-196" on="1"/>
        <pt x="-62" y="-111" on="1"/>
        <pt x="-30" y="-111" on="0"/>
        <pt x="0" y="-102" on="0"/>
        <pt x="16" y="-71" on="0"/>
        <pt x="24" y="-36" on="1"/>
        <pt x="119" y="414" on="1"/>
        <pt x="67" y="414" on="1"/>
        <pt x="88" y="510" on="1"/>
        <pt x="139" y="510" on="1"/>
        <pt x="140" y="516" on="1"/>
        <pt x="163" y="625" on="0"/>
        <pt x="211" y="717" on="0"/>
        <pt x="288" y="743" on="0"/>
        <pt x="372" y="743" on="1"/>
        <pt x="354" y="658" on="1"/>
      </contour>
    </TTGlyph>
    <TTGlyph name="four" xMin="16" yMin="0" xMax="380" yMax="688">
      <contour>
        <pt x="212" y="140" on="1"/>
        <pt x="16" y="140" on="1"/>
        <pt x="16" y="234" on="1"/>
        <pt x="118" y="688" on="1"/>
        <pt x="241" y="688" on="1"/>
        <pt x="130" y="249" on="1"/>
        <pt x="213" y="249" on="1"/>
        <pt x="243" y="439" on="1"/>
        <pt x="332" y="439" on="1"/>
        <pt x="332" y="249" on="1"/>
        <pt x="380" y="249" on="1"/>
        <pt x="380" y="140" on="1"/>
        <pt x="332" y="140" on="1"/>
        <pt x="332" y="0" on="1"/>
        <pt x="212" y="0" on="1"/>
      </contour>
    </TTGlyph>
    <TTGlyph name="four.dnom" xMin="6" yMin="0" xMax="229" yMax="379">
      <contour>
        <pt x="126" y="76" on="1"/>
        <pt x="6" y="76" on="1"/>
        <pt x="6" y="132" on="1"/>
        <pt x="71" y="379" on="1"/>
        <pt x="145" y="379" on="1"/>
        <pt x="76" y="139" on="1"/>
        <pt x="127" y="139" on="1"/>
        <pt x="145" y="242" on="1"/>
        <pt x="199" y="242" on="1"/>
        <pt x="199" y="139" on="1"/>
        <pt x="229" y="139" on="1"/>
        <pt x="229" y="76" on="1"/>
        <pt x="199" y="76" on="1"/>
        <pt x="199" y="0" on="1"/>
        <pt x="126" y="0" on="1"/>
      </contour>
    </TTGlyph>
    <TTGlyph name="four.numr" xMin="6" yMin="308" xMax="229" yMax="687">
      <component glyphName="four.dnom" x="0" y="308" flags="0x4"/>
    </TTGlyph>
    <TTGlyph name="four.ss01" xMin="16" yMin="0" xMax="379" yMax="688">
      <contour>
        <pt x="212" y="140" on="1"/>
        <pt x="16" y="140" on="1"/>
        <pt x="16" y="229" on="1"/>
        <pt x="140" y="688" on="1"/>
        <pt x="332" y="688" on="1"/>
        <pt x="332" y="249" on="1"/>
        <pt x="379" y="249" on="1"/>
        <pt x="379" y="140" on="1"/>
        <pt x="332" y="140" on="1"/>
        <pt x="332" y="0" on="1"/>
        <pt x="212" y="0" on="1"/>
      </contour>
      <contour>
        <pt x="213" y="249" on="1"/>
        <pt x="213" y="575" on="1"/>
        <pt x="207" y="575" on="1"/>
        <pt x="116" y="249" on="1"/>
      </contour>
    </TTGlyph>
    <TTGlyph name="four.tnum" xMin="17" yMin="0" xMax="386" yMax="688">
      <contour>
        <pt x="219" y="140" on="1"/>
        <pt x="17" y="140" on="1"/>
        <pt x="17" y="234" on="1"/>
        <pt x="125" y="688" on="1"/>
        <pt x="247" y="688" on="1"/>
        <pt x="131" y="249" on="1"/>
        <pt x="219" y="249" on="1"/>
        <pt x="250" y="439" on="1"/>
        <pt x="338" y="439" on="1"/>
        <pt x="338" y="249" on="1"/>
        <pt x="386" y="249" on="1"/>
        <pt x="386" y="140" on="1"/>
        <pt x="338" y="140" on="1"/>
        <pt x="338" y="0" on="1"/>
        <pt x="219" y="0" on="1"/>
      </contour>
    </TTGlyph>
    <TTGlyph name="fraction" xMin="-124" yMin="0" xMax="245" yMax="688">
      <contour>
        <pt x="175" y="688" on="1"/>
        <pt x="245" y="688" on="1"/>
        <pt x="-52" y="0" on="1"/>
        <pt x="-124" y="0" on="1"/>
      </contour>
    </TTGlyph>
    <TTGlyph name="g" xMin="29" yMin="-203" xMax="351" yMax="518">
      <contour>
        <pt x="109" y="-203" on="0"/>
        <pt x="53" y="-195" on="1"/>
        <pt x="53" y="-106" on="1"/>
        <pt x="85" y="-107" on="0"/>
        <pt x="155" y="-107" on="1"/>
        <pt x="195" y="-107" on="0"/>
        <pt x="229" y="-88" on="0"/>
        <pt x="238" y="-36" on="0"/>
        <pt x="238" y="28" on="1"/>
        <pt x="238" y="66" on="1"/>
        <pt x="231" y="66" on="1"/>
        <pt x="222" y="34" on="0"/>
        <pt x="179" y="2" on="0"/>
        <pt x="142" y="2" on="1"/>
        <pt x="95" y="2" on="0"/>
        <pt x="48" y="49" on="0"/>
        <pt x="29" y="158" on="0"/>
        <pt x="29" y="261" on="1"/>
        <pt x="29" y="366" on="0"/>
        <pt x="49" y="475" on="0"/>
        <pt x="98" y="518" on="0"/>
        <pt x="144" y="518" on="1"/>
        <pt x="176" y="518" on="0"/>
        <pt x="224" y="487" on="0"/>
        <pt x="233" y="449" on="1"/>
        <pt x="240" y="449" on="1"/>
        <pt x="244" y="510" on="1"/>
        <pt x="351" y="510" on="1"/>
        <pt x="351" y="63" on="1"/>
        <pt x="351" y="-42" on="0"/>
        <pt x="331" y="-148" on="0"/>
        <pt x="259" y="-203" on="0"/>
        <pt x="181" y="-203" on="1"/>
      </contour>
      <contour>
        <pt x="210" y="104" on="0"/>
        <pt x="229" y="121" on="0"/>
        <pt x="233" y="144" on="1"/>
        <pt x="236" y="160" on="0"/>
        <pt x="238" y="221" on="0"/>
        <pt x="238" y="261" on="1"/>
        <pt x="238" y="346" on="0"/>
        <pt x="234" y="368" on="1"/>
        <pt x="230" y="396" on="0"/>
        <pt x="210" y="416" on="0"/>
        <pt x="190" y="416" on="1"/>
        <pt x="167" y="416" on="0"/>
        <pt x="148" y="399" on="0"/>
        <pt x="142" y="338" on="0"/>
        <pt x="142" y="261" on="1"/>
        <pt x="142" y="183" on="0"/>
        <pt x="148" y="121" on="0"/>
        <pt x="166" y="104" on="0"/>
        <pt x="190" y="104" on="1"/>
      </contour>
    </TTGlyph>
    <TTGlyph name="g_tilde.loclGUA" xMin="29" yMin="-203" xMax="351" yMax="743">
      <component glyphName="g" x="0" y="0" flags="0x0"/>
      <component glyphName="tildecomb" x="331" y="0" flags="0x0"/>
    </TTGlyph>
    <TTGlyph name="gbreve" xMin="29" yMin="-203" xMax="351" yMax="743">
      <component glyphName="g" x="0" y="0" flags="0x0"/>
      <component glyphName="uni0306" x="313" y="0" flags="0x0"/>
    </TTGlyph>
    <TTGlyph name="gcaron" xMin="29" yMin="-203" xMax="351" yMax="743">
      <component glyphName="g" x="0" y="0" flags="0x0"/>
      <component glyphName="uni030C" x="320" y="0" flags="0x0"/>
    </TTGlyph>
    <TTGlyph name="gcircumflex" xMin="29" yMin="-203" xMax="351" yMax="743">
      <component glyphName="g" x="0" y="0" flags="0x0"/>
      <component glyphName="uni0302" x="320" y="0" flags="0x0"/>
    </TTGlyph>
    <TTGlyph name="gcommaaccent" xMin="29" yMin="-203" xMax="351" yMax="809">
      <component glyphName="g" x="0" y="0" flags="0x0"/>
      <component glyphName="uni0312" x="564" y="0" flags="0x0"/>
    </TTGlyph>
    <TTGlyph name="gdotaccent" xMin="29" yMin="-203" xMax="351" yMax="730">
      <component glyphName="g" x="0" y="0" flags="0x0"/>
      <component glyphName="uni0307" x="247" y="0" flags="0x0"/>
    </TTGlyph>
    <TTGlyph name="germandbls" xMin="39" yMin="0" xMax="366" yMax="750">
      <contour>
        <pt x="194" y="0" on="1"/>
        <pt x="194" y="96" on="1"/>
        <pt x="204" y="96" on="1"/>
        <pt x="228" y="96" on="0"/>
        <pt x="247" y="114" on="0"/>
        <pt x="253" y="175" on="0"/>
        <pt x="253" y="255" on="1"/>
        <pt x="253" y="320" on="0"/>
        <pt x="246" y="378" on="0"/>
        <pt x="227" y="397" on="0"/>
        <pt x="206" y="397" on="1"/>
        <pt x="198" y="397" on="1"/>
        <pt x="198" y="493" on="1"/>
        <pt x="206" y="493" on="1"/>
        <pt x="224" y="493" on="0"/>
        <pt x="242" y="506" on="0"/>
        <pt x="249" y="540" on="0"/>
        <pt x="249" y="574" on="1"/>
        <pt x="249" y="623" on="0"/>
        <pt x="228" y="654" on="0"/>
        <pt x="201" y="654" on="1"/>
        <pt x="181" y="654" on="0"/>
        <pt x="161" y="638" on="0"/>
        <pt x="152" y="593" on="0"/>
        <pt x="152" y="547" on="1"/>
        <pt x="152" y="0" on="1"/>
        <pt x="39" y="0" on="1"/>
        <pt x="39" y="545" on="1"/>
        <pt x="39" y="619" on="0"/>
        <pt x="69" y="708" on="0"/>
        <pt x="140" y="750" on="0"/>
        <pt x="201" y="750" on="1"/>
        <pt x="286" y="750" on="0"/>
        <pt x="363" y="676" on="0"/>
        <pt x="363" y="590" on="1"/>
        <pt x="363" y="528" on="0"/>
        <pt x="323" y="462" on="0"/>
        <pt x="279" y="452" on="1"/>
        <pt x="279" y="448" on="1"/>
        <pt x="326" y="437" on="0"/>
        <pt x="366" y="347" on="0"/>
        <pt x="366" y="248" on="1"/>
        <pt x="366" y="156" on="0"/>
        <pt x="344" y="52" on="0"/>
        <pt x="278" y="0" on="0"/>
        <pt x="213" y="0" on="1"/>
      </contour>
    </TTGlyph>
    <TTGlyph name="grave" xMin="0" yMin="598" xMax="147" yMax="743">
      <contour>
        <pt x="0" y="738" on="1"/>
        <pt x="0" y="743" on="1"/>
        <pt x="111" y="743" on="1"/>
        <pt x="147" y="603" on="1"/>
        <pt x="147" y="598" on="1"/>
        <pt x="55" y="598" on="1"/>
      </contour>
    </TTGlyph>
    <TTGlyph name="gravecomb" xMin="-147" yMin="598" xMax="0" yMax="743">
      <contour>
        <pt x="-147" y="738" on="1"/>
        <pt x="-147" y="743" on="1"/>
        <pt x="-36" y="743" on="1"/>
        <pt x="0" y="603" on="1"/>
        <pt x="0" y="598" on="1"/>
        <pt x="-92" y="598" on="1"/>
      </contour>
    </TTGlyph>
    <TTGlyph name="gravecomb.case" xMin="-147" yMin="743" xMax="0" yMax="888">
      <contour>
        <pt x="-147" y="883" on="1"/>
        <pt x="-147" y="888" on="1"/>
        <pt x="-36" y="888" on="1"/>
        <pt x="0" y="748" on="1"/>
        <pt x="0" y="743" on="1"/>
        <pt x="-92" y="743" on="1"/>
      </contour>
    </TTGlyph>
    <TTGlyph name="greater" xMin="52" yMin="75" xMax="395" yMax="432">
      <contour>
        <pt x="52" y="176" on="1"/>
        <pt x="273" y="253" on="1"/>
        <pt x="52" y="330" on="1"/>
        <pt x="52" y="432" on="1"/>
        <pt x="395" y="304" on="1"/>
        <pt x="395" y="202" on="1"/>
        <pt x="52" y="75" on="1"/>
      </contour>
    </TTGlyph>
    <TTGlyph name="greaterequal" xMin="59" yMin="43" xMax="402" yMax="550">
      <contour>
        <pt x="59" y="294" on="1"/>
        <pt x="280" y="371" on="1"/>
        <pt x="59" y="448" on="1"/>
        <pt x="59" y="550" on="1"/>
        <pt x="402" y="422" on="1"/>
        <pt x="402" y="320" on="1"/>
        <pt x="59" y="193" on="1"/>
      </contour>
      <contour>
        <pt x="60" y="143" on="1"/>
        <pt x="402" y="143" on="1"/>
        <pt x="402" y="43" on="1"/>
        <pt x="60" y="43" on="1"/>
      </contour>
    </TTGlyph>
    <TTGlyph name="guillemotleft" xMin="34" yMin="125" xMax="331" yMax="510">
      <contour>
        <pt x="34" y="317" on="1"/>
        <pt x="104" y="510" on="1"/>
        <pt x="186" y="510" on="1"/>
        <pt x="132" y="317" on="1"/>
        <pt x="186" y="125" on="1"/>
        <pt x="104" y="125" on="1"/>
      </contour>
      <contour>
        <pt x="178" y="317" on="1"/>
        <pt x="248" y="510" on="1"/>
        <pt x="331" y="510" on="1"/>
        <pt x="277" y="317" on="1"/>
        <pt x="331" y="125" on="1"/>
        <pt x="248" y="125" on="1"/>
      </contour>
    </TTGlyph>
    <TTGlyph name="guillemotright" xMin="38" yMin="125" xMax="335" yMax="510">
      <contour>
        <pt x="92" y="317" on="1"/>
        <pt x="38" y="510" on="1"/>
        <pt x="121" y="510" on="1"/>
        <pt x="191" y="317" on="1"/>
        <pt x="121" y="125" on="1"/>
        <pt x="38" y="125" on="1"/>
      </contour>
      <contour>
        <pt x="236" y="317" on="1"/>
        <pt x="182" y="510" on="1"/>
        <pt x="265" y="510" on="1"/>
        <pt x="335" y="317" on="1"/>
        <pt x="265" y="125" on="1"/>
        <pt x="182" y="125" on="1"/>
      </contour>
    </TTGlyph>
    <TTGlyph name="guilsinglleft" xMin="34" yMin="125" xMax="186" yMax="510">
      <contour>
        <pt x="34" y="317" on="1"/>
        <pt x="104" y="510" on="1"/>
        <pt x="186" y="510" on="1"/>
        <pt x="132" y="317" on="1"/>
        <pt x="186" y="125" on="1"/>
        <pt x="104" y="125" on="1"/>
      </contour>
    </TTGlyph>
    <TTGlyph name="guilsinglright" xMin="38" yMin="125" xMax="191" yMax="510">
      <contour>
        <pt x="92" y="317" on="1"/>
        <pt x="38" y="510" on="1"/>
        <pt x="121" y="510" on="1"/>
        <pt x="191" y="317" on="1"/>
        <pt x="121" y="125" on="1"/>
        <pt x="38" y="125" on="1"/>
      </contour>
    </TTGlyph>
    <TTGlyph name="h" xMin="39" yMin="0" xMax="356" yMax="743">
      <contour>
        <pt x="243" y="285" on="1"/>
        <pt x="243" y="350" on="0"/>
        <pt x="238" y="401" on="0"/>
        <pt x="221" y="416" on="0"/>
        <pt x="199" y="416" on="1"/>
        <pt x="175" y="416" on="0"/>
        <pt x="156" y="390" on="0"/>
        <pt x="152" y="331" on="0"/>
        <pt x="152" y="256" on="1"/>
        <pt x="152" y="0" on="1"/>
        <pt x="39" y="0" on="1"/>
        <pt x="39" y="743" on="1"/>
        <pt x="152" y="743" on="1"/>
        <pt x="152" y="452" on="1"/>
        <pt x="160" y="452" on="1"/>
        <pt x="179" y="518" on="0"/>
        <pt x="256" y="518" on="1"/>
        <pt x="299" y="518" on="0"/>
        <pt x="341" y="483" on="0"/>
        <pt x="356" y="408" on="0"/>
        <pt x="356" y="339" on="1"/>
        <pt x="356" y="0" on="1"/>
        <pt x="243" y="0" on="1"/>
      </contour>
    </TTGlyph>
    <TTGlyph name="hbar" xMin="1" yMin="0" xMax="356" yMax="743">
      <contour>
        <pt x="299" y="518" on="0"/>
        <pt x="341" y="483" on="0"/>
        <pt x="356" y="408" on="0"/>
        <pt x="356" y="339" on="1"/>
        <pt x="356" y="0" on="1"/>
        <pt x="243" y="0" on="1"/>
        <pt x="243" y="285" on="1"/>
        <pt x="243" y="350" on="0"/>
        <pt x="238" y="401" on="0"/>
        <pt x="221" y="416" on="0"/>
        <pt x="199" y="416" on="1"/>
        <pt x="175" y="416" on="0"/>
        <pt x="156" y="390" on="0"/>
        <pt x="152" y="331" on="0"/>
        <pt x="152" y="256" on="1"/>
        <pt x="152" y="0" on="1"/>
        <pt x="39" y="0" on="1"/>
        <pt x="39" y="592" on="1"/>
        <pt x="1" y="592" on="1"/>
        <pt x="1" y="688" on="1"/>
        <pt x="39" y="688" on="1"/>
        <pt x="39" y="743" on="1"/>
        <pt x="152" y="743" on="1"/>
        <pt x="152" y="688" on="1"/>
        <pt x="240" y="688" on="1"/>
        <pt x="240" y="592" on="1"/>
        <pt x="152" y="592" on="1"/>
        <pt x="152" y="452" on="1"/>
        <pt x="160" y="452" on="1"/>
        <pt x="179" y="518" on="0"/>
        <pt x="256" y="518" on="1"/>
      </contour>
    </TTGlyph>
    <TTGlyph name="hcircumflex" xMin="-29" yMin="0" xMax="356" yMax="921">
      <component glyphName="h" x="0" y="0" flags="0x0"/>
      <component glyphName="uni0302" x="221" y="178" flags="0x4"/>
    </TTGlyph>
    <TTGlyph name="hookabovecomb" xMin="-238" yMin="614" xMax="-18" yMax="816">
      <contour>
        <pt x="-192" y="637" on="1"/>
        <pt x="-192" y="657" on="0"/>
        <pt x="-177" y="679" on="0"/>
        <pt x="-158" y="685" on="1"/>
        <pt x="-148" y="688" on="1"/>
        <pt x="-120" y="697" on="0"/>
        <pt x="-102" y="709" on="0"/>
        <pt x="-102" y="722" on="1"/>
        <pt x="-102" y="734" on="0"/>
        <pt x="-118" y="741" on="0"/>
        <pt x="-144" y="741" on="1"/>
        <pt x="-172" y="741" on="0"/>
        <pt x="-238" y="739" on="1"/>
        <pt x="-238" y="804" on="1"/>
        <pt x="-170" y="816" on="0"/>
        <pt x="-131" y="816" on="1"/>
        <pt x="-74" y="816" on="0"/>
        <pt x="-18" y="785" on="0"/>
        <pt x="-18" y="740" on="1"/>
        <pt x="-18" y="705" on="0"/>
        <pt x="-34" y="672" on="0"/>
        <pt x="-64" y="659" on="1"/>
        <pt x="-75" y="654" on="1"/>
        <pt x="-93" y="647" on="0"/>
        <pt x="-114" y="636" on="0"/>
        <pt x="-118" y="627" on="0"/>
        <pt x="-118" y="614" on="1"/>
        <pt x="-192" y="614" on="1"/>
      </contour>
    </TTGlyph>
    <TTGlyph name="hookabovecomb.case" xMin="-238" yMin="733" xMax="-18" yMax="935">
      <contour>
        <pt x="-192" y="755" on="1"/>
        <pt x="-192" y="776" on="0"/>
        <pt x="-177" y="797" on="0"/>
        <pt x="-158" y="803" on="1"/>
        <pt x="-148" y="806" on="1"/>
        <pt x="-120" y="816" on="0"/>
        <pt x="-102" y="828" on="0"/>
        <pt x="-102" y="841" on="1"/>
        <pt x="-102" y="853" on="0"/>
        <pt x="-118" y="860" on="0"/>
        <pt x="-144" y="860" on="1"/>
        <pt x="-172" y="860" on="0"/>
        <pt x="-238" y="858" on="1"/>
        <pt x="-238" y="923" on="1"/>
        <pt x="-170" y="935" on="0"/>
        <pt x="-131" y="935" on="1"/>
        <pt x="-74" y="935" on="0"/>
        <pt x="-18" y="904" on="0"/>
        <pt x="-18" y="859" on="1"/>
        <pt x="-18" y="824" on="0"/>
        <pt x="-34" y="791" on="0"/>
        <pt x="-64" y="778" on="1"/>
        <pt x="-75" y="773" on="1"/>
        <pt x="-98" y="764" on="0"/>
        <pt x="-114" y="755" on="0"/>
        <pt x="-118" y="745" on="0"/>
        <pt x="-118" y="733" on="1"/>
        <pt x="-192" y="733" on="1"/>
      </contour>
    </TTGlyph>
    <TTGlyph name="house" xMin="22" yMin="0" xMax="446" yMax="701">
      <contour>
        <pt x="22" y="357" on="1"/>
        <pt x="178" y="701" on="1"/>
        <pt x="290" y="701" on="1"/>
        <pt x="446" y="357" on="1"/>
        <pt x="446" y="0" on="1"/>
        <pt x="22" y="0" on="1"/>
      </contour>
      <contour>
        <pt x="331" y="96" on="1"/>
        <pt x="331" y="350" on="1"/>
        <pt x="234" y="578" on="1"/>
        <pt x="137" y="350" on="1"/>
        <pt x="137" y="96" on="1"/>
      </contour>
    </TTGlyph>
    <TTGlyph name="hungarumlaut" xMin="5" yMin="612" xMax="249" yMax="729">
      <contour>
        <pt x="5" y="616" on="1"/>
        <pt x="33" y="729" on="1"/>
        <pt x="126" y="729" on="1"/>
        <pt x="126" y="724" on="1"/>
        <pt x="81" y="612" on="1"/>
        <pt x="5" y="612" on="1"/>
      </contour>
      <contour>
        <pt x="128" y="616" on="1"/>
        <pt x="157" y="729" on="1"/>
        <pt x="249" y="729" on="1"/>
        <pt x="249" y="724" on="1"/>
        <pt x="205" y="612" on="1"/>
        <pt x="128" y="612" on="1"/>
      </contour>
    </TTGlyph>
    <TTGlyph name="hyphen" xMin="48" yMin="233" xMax="222" yMax="337">
      <contour>
        <pt x="48" y="337" on="1"/>
        <pt x="222" y="337" on="1"/>
        <pt x="222" y="233" on="1"/>
        <pt x="48" y="233" on="1"/>
      </contour>
    </TTGlyph>
    <TTGlyph name="i" xMin="38" yMin="0" xMax="153" yMax="743">
      <contour>
        <pt x="38" y="743" on="1"/>
        <pt x="153" y="743" on="1"/>
        <pt x="153" y="630" on="1"/>
        <pt x="38" y="630" on="1"/>
      </contour>
      <contour>
        <pt x="39" y="510" on="1"/>
        <pt x="152" y="510" on="1"/>
        <pt x="152" y="0" on="1"/>
        <pt x="39" y="0" on="1"/>
      </contour>
    </TTGlyph>
    <TTGlyph name="i.loclTRK" xMin="39" yMin="0" xMax="152" yMax="730">
      <component glyphName="dotlessi" x="0" y="0" flags="0x0"/>
      <component glyphName="uni0307" x="148" y="0" flags="0x0"/>
    </TTGlyph>
    <TTGlyph name="iacute" xMin="39" yMin="0" xMax="186" yMax="743">
      <component glyphName="dotlessi" x="0" y="0" flags="0x0"/>
      <component glyphName="acute" x="39" y="0" flags="0x0"/>
    </TTGlyph>
    <TTGlyph name="iacute_j.loclNLD" xMin="39" yMin="-196" xMax="385" yMax="743">
      <component glyphName="dotlessi" x="0" y="0" flags="0x0"/>
      <component glyphName="acutecomb" x="194" y="0" flags="0x0"/>
      <component glyphName="uni0237" x="191" y="0" flags="0x0"/>
      <component glyphName="acutecomb" x="385" y="0" flags="0x0"/>
    </TTGlyph>
    <TTGlyph name="ibreve" xMin="-23" yMin="0" xMax="214" yMax="743">
      <component glyphName="dotlessi" x="0" y="0" flags="0x0"/>
      <component glyphName="uni0306" x="214" y="0" flags="0x0"/>
    </TTGlyph>
    <TTGlyph name="icircumflex" xMin="-29" yMin="0" xMax="221" yMax="743">
      <component glyphName="dotlessi" x="0" y="0" flags="0x0"/>
      <component glyphName="circumflex" x="-29" y="0" flags="0x0"/>
    </TTGlyph>
    <TTGlyph name="idieresis" xMin="-37" yMin="0" xMax="227" yMax="730">
      <component glyphName="dotlessi" x="0" y="0" flags="0x0"/>
      <component glyphName="dieresis" x="-44" y="0" flags="0x0"/>
    </TTGlyph>
    <TTGlyph name="igrave" xMin="4" yMin="0" xMax="152" yMax="743">
      <component glyphName="dotlessi" x="0" y="0" flags="0x0"/>
      <component glyphName="grave" x="4" y="0" flags="0x0"/>
    </TTGlyph>
    <TTGlyph name="ij" xMin="38" yMin="-196" xMax="344" yMax="743">
      <component glyphName="i" x="0" y="0" flags="0x0"/>
      <component glyphName="j" x="191" y="0" flags="0x0"/>
    </TTGlyph>
    <TTGlyph name="imacron" xMin="9" yMin="0" xMax="183" yMax="743">
      <component glyphName="dotlessi" x="0" y="0" flags="0x0"/>
      <component glyphName="uni0304" x="231" y="0" flags="0x0"/>
    </TTGlyph>
    <TTGlyph name="infinity" xMin="42" yMin="38" xMax="633" yMax="475">
      <contour>
        <pt x="111" y="38" on="0"/>
        <pt x="42" y="147" on="0"/>
        <pt x="42" y="256" on="1"/>
        <pt x="42" y="365" on="0"/>
        <pt x="112" y="475" on="0"/>
        <pt x="193" y="475" on="1"/>
        <pt x="249" y="475" on="0"/>
        <pt x="317" y="419" on="0"/>
        <pt x="338" y="369" on="1"/>
        <pt x="359" y="419" on="0"/>
        <pt x="427" y="475" on="0"/>
        <pt x="483" y="475" on="1"/>
        <pt x="564" y="475" on="0"/>
        <pt x="633" y="365" on="0"/>
        <pt x="633" y="256" on="1"/>
        <pt x="633" y="147" on="0"/>
        <pt x="565" y="38" on="0"/>
        <pt x="483" y="38" on="1"/>
        <pt x="426" y="38" on="0"/>
        <pt x="358" y="94" on="0"/>
        <pt x="338" y="146" on="1"/>
        <pt x="318" y="94" on="0"/>
        <pt x="250" y="38" on="0"/>
        <pt x="193" y="38" on="1"/>
      </contour>
      <contour>
        <pt x="237" y="126" on="0"/>
        <pt x="283" y="197" on="0"/>
        <pt x="290" y="256" on="1"/>
        <pt x="283" y="316" on="0"/>
        <pt x="238" y="387" on="0"/>
        <pt x="203" y="387" on="1"/>
        <pt x="167" y="387" on="0"/>
        <pt x="142" y="320" on="0"/>
        <pt x="142" y="256" on="1"/>
        <pt x="142" y="191" on="0"/>
        <pt x="167" y="126" on="0"/>
        <pt x="203" y="126" on="1"/>
      </contour>
      <contour>
        <pt x="509" y="126" on="0"/>
        <pt x="533" y="191" on="0"/>
        <pt x="533" y="256" on="1"/>
        <pt x="533" y="321" on="0"/>
        <pt x="508" y="387" on="0"/>
        <pt x="473" y="387" on="1"/>
        <pt x="438" y="387" on="0"/>
        <pt x="393" y="316" on="0"/>
        <pt x="386" y="256" on="1"/>
        <pt x="393" y="197" on="0"/>
        <pt x="439" y="126" on="0"/>
        <pt x="473" y="126" on="1"/>
      </contour>
    </TTGlyph>
    <TTGlyph name="integral" xMin="27" yMin="-190" xMax="241" yMax="696">
      <contour>
        <pt x="27" y="-102" on="1"/>
        <pt x="53" y="-102" on="0"/>
        <pt x="77" y="-97" on="0"/>
        <pt x="86" y="-79" on="0"/>
        <pt x="86" y="-58" on="1"/>
        <pt x="84" y="22" on="1"/>
        <pt x="63" y="520" on="1"/>
        <pt x="62" y="538" on="0"/>
        <pt x="62" y="559" on="1"/>
        <pt x="62" y="625" on="0"/>
        <pt x="96" y="682" on="0"/>
        <pt x="165" y="696" on="0"/>
        <pt x="241" y="696" on="1"/>
        <pt x="241" y="609" on="1"/>
        <pt x="212" y="609" on="0"/>
        <pt x="189" y="603" on="0"/>
        <pt x="182" y="580" on="0"/>
        <pt x="182" y="551" on="1"/>
        <pt x="183" y="508" on="1"/>
        <pt x="202" y="28" on="1"/>
        <pt x="204" y="-42" on="1"/>
        <pt x="204" y="-113" on="0"/>
        <pt x="170" y="-175" on="0"/>
        <pt x="102" y="-190" on="0"/>
        <pt x="27" y="-190" on="1"/>
      </contour>
    </TTGlyph>
    <TTGlyph name="iogonek" xMin="16" yMin="-196" xMax="152" yMax="730">
      <contour>
        <pt x="145" y="633" on="1"/>
        <pt x="46" y="633" on="1"/>
        <pt x="46" y="730" on="1"/>
        <pt x="145" y="730" on="1"/>
      </contour>
      <contour>
        <pt x="134" y="-16" on="0"/>
        <pt x="103" y="-69" on="0"/>
        <pt x="103" y="-94" on="1"/>
        <pt x="103" y="-131" on="0"/>
        <pt x="140" y="-131" on="1"/>
        <pt x="152" y="-130" on="1"/>
        <pt x="152" y="-192" on="1"/>
        <pt x="136" y="-196" on="0"/>
        <pt x="109" y="-196" on="1"/>
        <pt x="60" y="-196" on="0"/>
        <pt x="16" y="-149" on="0"/>
        <pt x="16" y="-113" on="1"/>
        <pt x="16" y="-83" on="0"/>
        <pt x="46" y="-24" on="0"/>
        <pt x="71" y="0" on="1"/>
        <pt x="39" y="0" on="1"/>
        <pt x="39" y="510" on="1"/>
        <pt x="152" y="510" on="1"/>
        <pt x="152" y="0" on="1"/>
      </contour>
    </TTGlyph>
    <TTGlyph name="itilde" xMin="-41" yMin="0" xMax="232" yMax="743">
      <component glyphName="dotlessi" x="0" y="0" flags="0x0"/>
      <component glyphName="tildecomb" x="232" y="0" flags="0x0"/>
    </TTGlyph>
    <TTGlyph name="j" xMin="-12" yMin="-196" xMax="153" yMax="743">
      <contour>
        <pt x="38" y="743" on="1"/>
        <pt x="153" y="743" on="1"/>
        <pt x="153" y="630" on="1"/>
        <pt x="38" y="630" on="1"/>
      </contour>
      <contour>
        <pt x="-12" y="-109" on="1"/>
        <pt x="12" y="-109" on="0"/>
        <pt x="34" y="-99" on="0"/>
        <pt x="39" y="-79" on="0"/>
        <pt x="39" y="-57" on="1"/>
        <pt x="39" y="510" on="1"/>
        <pt x="152" y="510" on="1"/>
        <pt x="152" y="-2" on="1"/>
        <pt x="152" y="-92" on="0"/>
        <pt x="124" y="-172" on="0"/>
        <pt x="59" y="-196" on="0"/>
        <pt x="-12" y="-196" on="1"/>
      </contour>
    </TTGlyph>
    <TTGlyph name="jcircumflex" xMin="-29" yMin="-196" xMax="221" yMax="743">
      <component glyphName="uni0237" x="0" y="0" flags="0x0"/>
      <component glyphName="uni0302" x="221" y="0" flags="0x0"/>
    </TTGlyph>
    <TTGlyph name="k" xMin="39" yMin="0" xMax="364" yMax="743">
      <contour>
        <pt x="180" y="206" on="1"/>
        <pt x="152" y="206" on="1"/>
        <pt x="152" y="0" on="1"/>
        <pt x="39" y="0" on="1"/>
        <pt x="39" y="743" on="1"/>
        <pt x="152" y="743" on="1"/>
        <pt x="152" y="303" on="1"/>
        <pt x="180" y="303" on="1"/>
        <pt x="249" y="510" on="1"/>
        <pt x="362" y="510" on="1"/>
        <pt x="274" y="267" on="1"/>
        <pt x="364" y="0" on="1"/>
        <pt x="247" y="0" on="1"/>
      </contour>
    </TTGlyph>
</ttFont>
